<svg width="584" height="464" viewBox="0 0 584 464" fill="none" xmlns="http://www.w3.org/2000/svg">
<path d="M568 0C576.837 0 584 7.16344 584 16V448C584 456.837 576.837 464 568 464H16C7.16345 464 0 456.837 0 448V16C4.12325e-06 7.16345 7.16345 0 16 0H568Z" fill="#F9FAFB"/>
<path d="M568 0C576.837 0 584 7.16344 584 16V448C584 456.837 576.837 464 568 464H16C7.16345 464 0 456.837 0 448V16C4.12325e-06 7.16345 7.16345 0 16 0H568Z" stroke="#E5E7EB"/>
<g clip-path="url(#clip0_11_163)">
<g clip-path="url(#clip1_11_163)">
<g clip-path="url(#clip2_11_163)">
<path d="M96 325.5H542" stroke="#E6E6E6"/>
<path d="M96 275.5H542" stroke="#E6E6E6"/>
<path d="M96 225.5H542" stroke="#E6E6E6"/>
<path d="M96 176.5H542" stroke="#E6E6E6"/>
<path d="M96 126.5H542" stroke="#E6E6E6"/>
<path d="M96 77.5H542" stroke="#E6E6E6"/>
<path d="M275.662 364.218C275.607 363.758 275.386 363.4 274.998 363.145C274.61 362.891 274.135 362.764 273.571 362.764C273.159 362.764 272.798 362.83 272.489 362.964C272.183 363.097 271.944 363.28 271.771 363.514C271.601 363.747 271.516 364.012 271.516 364.309C271.516 364.558 271.576 364.771 271.694 364.95C271.815 365.126 271.97 365.273 272.157 365.391C272.345 365.506 272.542 365.601 272.748 365.677C272.954 365.75 273.144 365.809 273.316 365.854L274.262 366.109C274.504 366.173 274.774 366.261 275.071 366.373C275.371 366.485 275.657 366.638 275.93 366.832C276.206 367.023 276.433 367.268 276.612 367.568C276.791 367.868 276.88 368.236 276.88 368.673C276.88 369.176 276.748 369.63 276.485 370.036C276.224 370.442 275.842 370.765 275.339 371.004C274.839 371.244 274.232 371.364 273.516 371.364C272.85 371.364 272.273 371.256 271.785 371.041C271.3 370.826 270.918 370.526 270.639 370.141C270.363 369.756 270.207 369.309 270.171 368.8H271.335C271.365 369.151 271.483 369.442 271.689 369.673C271.898 369.9 272.162 370.07 272.48 370.182C272.801 370.291 273.147 370.345 273.516 370.345C273.947 370.345 274.333 370.276 274.676 370.136C275.018 369.994 275.289 369.797 275.489 369.545C275.689 369.291 275.789 368.994 275.789 368.654C275.789 368.345 275.703 368.094 275.53 367.9C275.357 367.706 275.13 367.548 274.848 367.427C274.566 367.306 274.262 367.2 273.935 367.109L272.789 366.782C272.062 366.573 271.486 366.274 271.062 365.886C270.638 365.498 270.426 364.991 270.426 364.364C270.426 363.842 270.566 363.388 270.848 363C271.133 362.609 271.515 362.306 271.994 362.091C272.476 361.873 273.013 361.764 273.607 361.764C274.207 361.764 274.741 361.871 275.207 362.086C275.674 362.298 276.044 362.589 276.316 362.959C276.592 363.329 276.738 363.748 276.753 364.218H275.662ZM281.515 371.345C280.843 371.345 280.262 371.197 279.774 370.9C279.29 370.6 278.915 370.182 278.652 369.645C278.391 369.106 278.261 368.479 278.261 367.764C278.261 367.048 278.391 366.418 278.652 365.873C278.915 365.324 279.282 364.897 279.752 364.591C280.224 364.282 280.776 364.127 281.406 364.127C281.77 364.127 282.129 364.188 282.484 364.309C282.838 364.43 283.161 364.627 283.452 364.9C283.743 365.17 283.974 365.527 284.147 365.973C284.32 366.418 284.406 366.967 284.406 367.618V368.073H279.024V367.145H283.315C283.315 366.751 283.237 366.4 283.079 366.091C282.924 365.782 282.703 365.538 282.415 365.359C282.13 365.18 281.794 365.091 281.406 365.091C280.979 365.091 280.609 365.197 280.297 365.409C279.988 365.618 279.75 365.891 279.584 366.227C279.417 366.564 279.334 366.924 279.334 367.309V367.927C279.334 368.454 279.424 368.901 279.606 369.268C279.791 369.632 280.047 369.909 280.374 370.1C280.702 370.288 281.082 370.382 281.515 370.382C281.797 370.382 282.052 370.342 282.279 370.264C282.509 370.182 282.708 370.061 282.874 369.9C283.041 369.736 283.17 369.533 283.261 369.291L284.297 369.582C284.188 369.933 284.005 370.242 283.747 370.509C283.49 370.773 283.171 370.979 282.793 371.127C282.414 371.273 281.988 371.345 281.515 371.345ZM290.984 365.782L290.02 366.054C289.959 365.894 289.87 365.738 289.752 365.586C289.637 365.432 289.479 365.304 289.279 365.204C289.079 365.104 288.823 365.054 288.511 365.054C288.084 365.054 287.727 365.153 287.443 365.35C287.161 365.544 287.02 365.791 287.02 366.091C287.02 366.358 287.117 366.568 287.311 366.723C287.505 366.877 287.808 367.006 288.22 367.109L289.256 367.364C289.88 367.515 290.346 367.747 290.652 368.059C290.958 368.368 291.111 368.767 291.111 369.254C291.111 369.654 290.996 370.012 290.765 370.327C290.538 370.642 290.22 370.891 289.811 371.073C289.402 371.254 288.926 371.345 288.384 371.345C287.671 371.345 287.082 371.191 286.615 370.882C286.149 370.573 285.853 370.121 285.729 369.527L286.747 369.273C286.844 369.648 287.027 369.93 287.297 370.118C287.57 370.306 287.926 370.4 288.365 370.4C288.865 370.4 289.262 370.294 289.556 370.082C289.853 369.867 290.002 369.609 290.002 369.309C290.002 369.067 289.917 368.864 289.747 368.7C289.577 368.533 289.317 368.409 288.965 368.327L287.802 368.054C287.162 367.903 286.693 367.668 286.393 367.35C286.096 367.029 285.947 366.627 285.947 366.145C285.947 365.751 286.058 365.403 286.279 365.1C286.503 364.797 286.808 364.559 287.193 364.386C287.58 364.214 288.02 364.127 288.511 364.127C289.202 364.127 289.744 364.279 290.138 364.582C290.535 364.885 290.817 365.285 290.984 365.782ZM297.671 365.782L296.707 366.054C296.647 365.894 296.557 365.738 296.439 365.586C296.324 365.432 296.166 365.304 295.966 365.204C295.766 365.104 295.51 365.054 295.198 365.054C294.771 365.054 294.415 365.153 294.13 365.35C293.848 365.544 293.707 365.791 293.707 366.091C293.707 366.358 293.804 366.568 293.998 366.723C294.192 366.877 294.495 367.006 294.907 367.109L295.944 367.364C296.568 367.515 297.033 367.747 297.339 368.059C297.645 368.368 297.798 368.767 297.798 369.254C297.798 369.654 297.683 370.012 297.453 370.327C297.226 370.642 296.907 370.891 296.498 371.073C296.089 371.254 295.613 371.345 295.071 371.345C294.359 371.345 293.77 371.191 293.303 370.882C292.836 370.573 292.541 370.121 292.416 369.527L293.435 369.273C293.532 369.648 293.715 369.93 293.985 370.118C294.257 370.306 294.613 370.4 295.053 370.4C295.553 370.4 295.95 370.294 296.244 370.082C296.541 369.867 296.689 369.609 296.689 369.309C296.689 369.067 296.604 368.864 296.435 368.7C296.265 368.533 296.004 368.409 295.653 368.327L294.489 368.054C293.85 367.903 293.38 367.668 293.08 367.35C292.783 367.029 292.635 366.627 292.635 366.145C292.635 365.751 292.745 365.403 292.966 365.1C293.191 364.797 293.495 364.559 293.88 364.386C294.268 364.214 294.707 364.127 295.198 364.127C295.889 364.127 296.432 364.279 296.826 364.582C297.223 364.885 297.504 365.285 297.671 365.782ZM299.413 371.2V364.218H300.486V371.2H299.413ZM299.959 363.054C299.749 363.054 299.569 362.983 299.418 362.841C299.269 362.698 299.195 362.527 299.195 362.327C299.195 362.127 299.269 361.956 299.418 361.814C299.569 361.671 299.749 361.6 299.959 361.6C300.168 361.6 300.346 361.671 300.495 361.814C300.646 361.956 300.722 362.127 300.722 362.327C300.722 362.527 300.646 362.698 300.495 362.841C300.346 362.983 300.168 363.054 299.959 363.054ZM305.287 371.345C304.657 371.345 304.104 371.195 303.628 370.895C303.155 370.595 302.785 370.176 302.519 369.636C302.255 369.097 302.123 368.467 302.123 367.745C302.123 367.018 302.255 366.383 302.519 365.841C302.785 365.298 303.155 364.877 303.628 364.577C304.104 364.277 304.657 364.127 305.287 364.127C305.917 364.127 306.469 364.277 306.941 364.577C307.417 364.877 307.787 365.298 308.051 365.841C308.317 366.383 308.451 367.018 308.451 367.745C308.451 368.467 308.317 369.097 308.051 369.636C307.787 370.176 307.417 370.595 306.941 370.895C306.469 371.195 305.917 371.345 305.287 371.345ZM305.287 370.382C305.766 370.382 306.16 370.259 306.469 370.014C306.778 369.768 307.007 369.445 307.155 369.045C307.304 368.645 307.378 368.212 307.378 367.745C307.378 367.279 307.304 366.844 307.155 366.441C307.007 366.038 306.778 365.712 306.469 365.464C306.16 365.215 305.766 365.091 305.287 365.091C304.808 365.091 304.414 365.215 304.105 365.464C303.796 365.712 303.567 366.038 303.419 366.441C303.27 366.844 303.196 367.279 303.196 367.745C303.196 368.212 303.27 368.645 303.419 369.045C303.567 369.445 303.796 369.768 304.105 370.014C304.414 370.259 304.808 370.382 305.287 370.382ZM311.161 367V371.2H310.088V364.218H311.124V365.309H311.215C311.379 364.954 311.627 364.67 311.961 364.454C312.294 364.236 312.724 364.127 313.252 364.127C313.724 364.127 314.138 364.224 314.493 364.418C314.847 364.609 315.123 364.9 315.32 365.291C315.517 365.679 315.615 366.17 315.615 366.764V371.2H314.543V366.836C314.543 366.288 314.4 365.861 314.115 365.554C313.83 365.245 313.44 365.091 312.943 365.091C312.6 365.091 312.294 365.165 312.024 365.314C311.758 365.462 311.547 365.679 311.393 365.964C311.238 366.248 311.161 366.594 311.161 367ZM328.703 361.891V371.2H327.612L322.539 363.891H322.448V371.2H321.321V361.891H322.412L327.503 369.218H327.594V361.891H328.703ZM335.213 368.345V364.218H336.286V371.2H335.213V370.018H335.14C334.977 370.373 334.722 370.674 334.377 370.923C334.031 371.168 333.595 371.291 333.068 371.291C332.631 371.291 332.243 371.195 331.904 371.004C331.565 370.811 331.298 370.52 331.104 370.132C330.91 369.741 330.813 369.248 330.813 368.654V364.218H331.886V368.582C331.886 369.091 332.028 369.497 332.313 369.8C332.601 370.103 332.968 370.254 333.413 370.254C333.68 370.254 333.951 370.186 334.227 370.05C334.505 369.914 334.739 369.704 334.927 369.423C335.118 369.141 335.213 368.782 335.213 368.345ZM338.251 371.2V364.218H339.287V365.309H339.378C339.523 364.936 339.758 364.647 340.082 364.441C340.407 364.232 340.796 364.127 341.251 364.127C341.711 364.127 342.095 364.232 342.401 364.441C342.71 364.647 342.951 364.936 343.123 365.309H343.196C343.375 364.948 343.643 364.662 344.001 364.45C344.358 364.235 344.787 364.127 345.287 364.127C345.911 364.127 346.422 364.323 346.819 364.714C347.216 365.101 347.414 365.706 347.414 366.527V371.2H346.341V366.527C346.341 366.012 346.201 365.644 345.919 365.423C345.637 365.201 345.305 365.091 344.923 365.091C344.432 365.091 344.052 365.239 343.782 365.536C343.513 365.83 343.378 366.203 343.378 366.654V371.2H342.287V366.418C342.287 366.021 342.158 365.701 341.901 365.459C341.643 365.214 341.311 365.091 340.905 365.091C340.626 365.091 340.366 365.165 340.123 365.314C339.884 365.462 339.69 365.668 339.541 365.932C339.396 366.192 339.323 366.494 339.323 366.836V371.2H338.251ZM349.521 371.2V361.891H350.594V365.327H350.685C350.763 365.206 350.873 365.051 351.012 364.864C351.154 364.673 351.357 364.503 351.621 364.354C351.888 364.203 352.248 364.127 352.703 364.127C353.291 364.127 353.809 364.274 354.257 364.568C354.706 364.862 355.056 365.279 355.307 365.818C355.559 366.358 355.685 366.994 355.685 367.727C355.685 368.467 355.559 369.108 355.307 369.65C355.056 370.189 354.707 370.608 354.262 370.904C353.816 371.198 353.303 371.345 352.721 371.345C352.273 371.345 351.913 371.271 351.644 371.123C351.374 370.971 351.166 370.8 351.021 370.609C350.876 370.415 350.763 370.254 350.685 370.127H350.557V371.2H349.521ZM350.576 367.709C350.576 368.236 350.653 368.701 350.807 369.104C350.962 369.504 351.188 369.818 351.485 370.045C351.782 370.27 352.145 370.382 352.576 370.382C353.024 370.382 353.398 370.264 353.698 370.027C354.001 369.788 354.229 369.467 354.38 369.064C354.535 368.658 354.612 368.206 354.612 367.709C354.612 367.218 354.536 366.776 354.385 366.382C354.236 365.985 354.01 365.671 353.707 365.441C353.407 365.208 353.03 365.091 352.576 365.091C352.139 365.091 351.773 365.201 351.476 365.423C351.179 365.641 350.954 365.947 350.803 366.341C350.651 366.732 350.576 367.188 350.576 367.709ZM360.253 371.345C359.58 371.345 359 371.197 358.512 370.9C358.027 370.6 357.653 370.182 357.389 369.645C357.129 369.106 356.998 368.479 356.998 367.764C356.998 367.048 357.129 366.418 357.389 365.873C357.653 365.324 358.02 364.897 358.489 364.591C358.962 364.282 359.513 364.127 360.144 364.127C360.507 364.127 360.866 364.188 361.221 364.309C361.576 364.43 361.898 364.627 362.189 364.9C362.48 365.17 362.712 365.527 362.885 365.973C363.057 366.418 363.144 366.967 363.144 367.618V368.073H357.762V367.145H362.053C362.053 366.751 361.974 366.4 361.816 366.091C361.662 365.782 361.441 365.538 361.153 365.359C360.868 365.18 360.532 365.091 360.144 365.091C359.716 365.091 359.347 365.197 359.035 365.409C358.726 365.618 358.488 365.891 358.321 366.227C358.154 366.564 358.071 366.924 358.071 367.309V367.927C358.071 368.454 358.162 368.901 358.344 369.268C358.529 369.632 358.785 369.909 359.112 370.1C359.439 370.288 359.82 370.382 360.253 370.382C360.535 370.382 360.789 370.342 361.016 370.264C361.247 370.182 361.445 370.061 361.612 369.9C361.779 369.736 361.907 369.533 361.998 369.291L363.035 369.582C362.926 369.933 362.742 370.242 362.485 370.509C362.227 370.773 361.909 370.979 361.53 371.127C361.151 371.273 360.726 371.345 360.253 371.345ZM364.776 371.2V364.218H365.812V365.273H365.885C366.012 364.927 366.242 364.647 366.576 364.432C366.909 364.217 367.285 364.109 367.703 364.109C367.782 364.109 367.88 364.111 367.998 364.114C368.116 364.117 368.206 364.121 368.266 364.127V365.218C368.23 365.209 368.147 365.195 368.016 365.177C367.889 365.156 367.754 365.145 367.612 365.145C367.273 365.145 366.97 365.217 366.703 365.359C366.439 365.498 366.23 365.692 366.076 365.941C365.924 366.186 365.848 366.467 365.848 366.782V371.2H364.776Z" fill="#666666"/>
<path d="M96 325.5H542" stroke="#333333"/>
<path d="M48.9838 212.257C48.5232 212.311 48.1656 212.533 47.9111 212.92C47.6565 213.308 47.5293 213.784 47.5293 214.348C47.5293 214.76 47.5959 215.12 47.7293 215.43C47.8626 215.736 48.0459 215.975 48.2793 216.148C48.5126 216.317 48.7777 216.402 49.0747 216.402C49.3232 216.402 49.5368 216.343 49.7156 216.225C49.8914 216.104 50.0383 215.949 50.1565 215.761C50.2717 215.573 50.3671 215.377 50.4429 215.17C50.5156 214.964 50.5747 214.775 50.6202 214.602L50.8747 213.657C50.9383 213.414 51.0262 213.145 51.1383 212.848C51.2505 212.548 51.4035 212.261 51.5974 211.989C51.7883 211.713 52.0338 211.486 52.3338 211.307C52.6338 211.128 53.002 211.039 53.4383 211.039C53.9414 211.039 54.3959 211.17 54.802 211.434C55.208 211.695 55.5308 212.077 55.7702 212.58C56.0096 213.08 56.1293 213.687 56.1293 214.402C56.1293 215.069 56.0217 215.646 55.8065 216.134C55.5914 216.619 55.2914 217.001 54.9065 217.28C54.5217 217.555 54.0747 217.711 53.5656 217.748V216.584C53.9171 216.554 54.208 216.436 54.4383 216.23C54.6656 216.02 54.8353 215.757 54.9474 215.439C55.0565 215.117 55.1111 214.772 55.1111 214.402C55.1111 213.972 55.0414 213.586 54.902 213.243C54.7596 212.901 54.5626 212.63 54.3111 212.43C54.0565 212.23 53.7596 212.13 53.4202 212.13C53.1111 212.13 52.8596 212.216 52.6656 212.389C52.4717 212.561 52.3141 212.789 52.1929 213.07C52.0717 213.352 51.9656 213.657 51.8747 213.984L51.5474 215.13C51.3383 215.857 51.0399 216.433 50.652 216.857C50.2641 217.281 49.7565 217.493 49.1293 217.493C48.608 217.493 48.1535 217.352 47.7656 217.07C47.3747 216.786 47.0717 216.404 46.8565 215.925C46.6383 215.443 46.5293 214.905 46.5293 214.311C46.5293 213.711 46.6368 213.178 46.852 212.711C47.0641 212.245 47.355 211.875 47.7247 211.602C48.0944 211.327 48.5141 211.181 48.9838 211.166V212.257ZM56.1111 206.494C56.1111 207.149 55.9565 207.712 55.6474 208.185C55.3383 208.658 54.9126 209.022 54.3702 209.276C53.8277 209.531 53.208 209.658 52.5111 209.658C51.802 209.658 51.1762 209.528 50.6338 209.267C50.0883 209.003 49.6626 208.637 49.3565 208.167C49.0474 207.694 48.8929 207.143 48.8929 206.512C48.8929 206.022 48.9838 205.579 49.1656 205.185C49.3474 204.791 49.602 204.469 49.9293 204.217C50.2565 203.966 50.6383 203.809 51.0747 203.749V204.822C50.7565 204.903 50.4747 205.085 50.2293 205.367C49.9808 205.646 49.8565 206.022 49.8565 206.494C49.8565 206.912 49.9656 207.279 50.1838 207.594C50.399 207.906 50.7035 208.15 51.0974 208.326C51.4883 208.499 51.9474 208.585 52.4747 208.585C53.0141 208.585 53.4838 208.5 53.8838 208.331C54.2838 208.158 54.5944 207.916 54.8156 207.603C55.0368 207.288 55.1474 206.919 55.1474 206.494C55.1474 206.216 55.099 205.962 55.002 205.735C54.905 205.508 54.7656 205.316 54.5838 205.158C54.402 205 54.1838 204.888 53.9293 204.822V203.749C54.3414 203.809 54.7126 203.959 55.0429 204.199C55.3702 204.435 55.6308 204.749 55.8247 205.14C56.0156 205.528 56.1111 205.979 56.1111 206.494ZM56.1111 199.344C56.1111 199.975 55.9611 200.528 55.6611 201.003C55.3611 201.476 54.9414 201.846 54.402 202.113C53.8626 202.376 53.2323 202.508 52.5111 202.508C51.7838 202.508 51.149 202.376 50.6065 202.113C50.0641 201.846 49.6429 201.476 49.3429 201.003C49.0429 200.528 48.8929 199.975 48.8929 199.344C48.8929 198.714 49.0429 198.163 49.3429 197.69C49.6429 197.214 50.0641 196.844 50.6065 196.581C51.149 196.314 51.7838 196.181 52.5111 196.181C53.2323 196.181 53.8626 196.314 54.402 196.581C54.9414 196.844 55.3611 197.214 55.6611 197.69C55.9611 198.163 56.1111 198.714 56.1111 199.344ZM55.1474 199.344C55.1474 198.866 55.0247 198.472 54.7793 198.163C54.5338 197.853 54.2111 197.625 53.8111 197.476C53.4111 197.328 52.9777 197.253 52.5111 197.253C52.0444 197.253 51.6096 197.328 51.2065 197.476C50.8035 197.625 50.4777 197.853 50.2293 198.163C49.9808 198.472 49.8565 198.866 49.8565 199.344C49.8565 199.823 49.9808 200.217 50.2293 200.526C50.4777 200.835 50.8035 201.064 51.2065 201.213C51.6096 201.361 52.0444 201.435 52.5111 201.435C52.9777 201.435 53.4111 201.361 53.8111 201.213C54.2111 201.064 54.5338 200.835 54.7793 200.526C55.0247 200.217 55.1474 199.823 55.1474 199.344ZM55.9656 194.543H48.9838V193.507H50.0383V193.434C49.6929 193.307 49.4126 193.077 49.1974 192.743C48.9823 192.41 48.8747 192.034 48.8747 191.616C48.8747 191.537 48.8762 191.439 48.8793 191.32C48.8823 191.202 48.8868 191.113 48.8929 191.052H49.9838C49.9747 191.089 49.9611 191.172 49.9429 191.302C49.9217 191.43 49.9111 191.564 49.9111 191.707C49.9111 192.046 49.9823 192.349 50.1247 192.616C50.2641 192.88 50.458 193.089 50.7065 193.243C50.952 193.395 51.2323 193.47 51.5474 193.47H55.9656L55.9656 194.543ZM56.1111 187.066C56.1111 187.739 55.9626 188.319 55.6656 188.807C55.3656 189.292 54.9474 189.666 54.4111 189.93C53.8717 190.19 53.2444 190.32 52.5293 190.32C51.8141 190.32 51.1838 190.19 50.6383 189.93C50.0899 189.666 49.6626 189.299 49.3565 188.83C49.0474 188.357 48.8929 187.805 48.8929 187.175C48.8929 186.811 48.9535 186.452 49.0747 186.098C49.1959 185.743 49.3929 185.42 49.6656 185.13C49.9353 184.839 50.2929 184.607 50.7383 184.434C51.1838 184.261 51.7323 184.175 52.3838 184.175H52.8383V189.557H51.9111V185.266C51.5171 185.266 51.1656 185.345 50.8565 185.502C50.5474 185.657 50.3035 185.878 50.1247 186.166C49.9459 186.451 49.8565 186.787 49.8565 187.175C49.8565 187.602 49.9626 187.972 50.1747 188.284C50.3838 188.593 50.6565 188.831 50.9929 188.998C51.3293 189.164 51.6899 189.248 52.0747 189.248H52.6929C53.2202 189.248 53.6671 189.157 54.0338 188.975C54.3974 188.79 54.6747 188.534 54.8656 188.207C55.0535 187.88 55.1474 187.499 55.1474 187.066C55.1474 186.784 55.108 186.53 55.0293 186.302C54.9474 186.072 54.8262 185.873 54.6656 185.707C54.502 185.54 54.299 185.411 54.0565 185.32L54.3474 184.284C54.699 184.393 55.008 184.577 55.2747 184.834C55.5383 185.092 55.7444 185.41 55.8929 185.789C56.0383 186.167 56.1111 186.593 56.1111 187.066Z" fill="#666666"/>
<mask id="mask0_11_163" style="mask-type:luminance" maskUnits="userSpaceOnUse" x="96" y="77" width="446" height="248">
<path d="M542 77H96V325H542V77Z" fill="white"/>
</mask>
<g mask="url(#mask0_11_163)">
<path d="M140.6 126.6L229.8 176.2L319 201L408.2 250.6L497.4 275.4" stroke="#8B4513" stroke-width="2" stroke-linecap="round" stroke-linejoin="round"/>
<path d="M140.6 126.6L229.8 176.2L319 201L408.2 250.6L497.4 275.4" stroke="#C0C0C0" stroke-opacity="0.01" stroke-width="22" stroke-linecap="round" stroke-linejoin="round"/>
</g>
<path d="M140.5 130.6C139.439 130.6 138.422 130.179 137.672 129.428C136.921 128.678 136.5 127.661 136.5 126.6C136.5 125.539 136.921 124.522 137.672 123.772C138.422 123.021 139.439 122.6 140.5 122.6C141.561 122.6 142.578 123.021 143.328 123.771C144.079 124.522 144.5 125.539 144.5 126.6C144.5 127.661 144.079 128.678 143.329 129.428C142.578 130.178 141.561 130.6 140.5 130.6Z" fill="#8B4513"/>
<path d="M229.5 180.2C228.439 180.2 227.422 179.779 226.672 179.028C225.921 178.278 225.5 177.261 225.5 176.2C225.5 175.139 225.921 174.122 226.672 173.372C227.422 172.621 228.439 172.2 229.5 172.2C230.561 172.2 231.578 172.621 232.328 173.371C233.079 174.122 233.5 175.139 233.5 176.2C233.5 177.261 233.079 178.278 232.329 179.028C231.578 179.778 230.561 180.2 229.5 180.2Z" fill="#8B4513"/>
<path d="M319.5 205C318.439 205 317.422 204.579 316.672 203.828C315.921 203.078 315.5 202.061 315.5 201C315.5 199.939 315.921 198.922 316.672 198.172C317.422 197.421 318.439 197 319.5 197C320.561 197 321.578 197.421 322.328 198.171C323.079 198.922 323.5 199.939 323.5 201C323.5 202.061 323.079 203.078 322.329 203.828C321.578 204.578 320.561 205 319.5 205Z" fill="#8B4513"/>
<path d="M408.5 254.6C407.439 254.6 406.422 254.179 405.672 253.428C404.921 252.678 404.5 251.661 404.5 250.6C404.5 249.539 404.921 248.522 405.672 247.772C406.422 247.021 407.439 246.6 408.5 246.6C409.561 246.6 410.578 247.021 411.328 247.771C412.079 248.522 412.5 249.539 412.5 250.6C412.5 251.661 412.079 252.678 411.329 253.428C410.578 254.178 409.561 254.6 408.5 254.6Z" fill="#8B4513"/>
<path d="M497.5 279.4C496.439 279.4 495.422 278.978 494.672 278.228C493.921 277.478 493.5 276.461 493.5 275.4C493.5 274.339 493.921 273.322 494.672 272.572C495.422 271.821 496.439 271.4 497.5 271.4C498.561 271.4 499.578 271.821 500.328 272.571C501.079 273.322 501.5 274.339 501.5 275.4C501.5 276.461 501.079 277.478 500.329 278.228C499.578 278.978 498.561 279.4 497.5 279.4Z" fill="#8B4513"/>
<mask id="mask1_11_163" style="mask-type:luminance" maskUnits="userSpaceOnUse" x="96" y="77" width="446" height="248">
<path d="M542 77H96V325H542V77Z" fill="white"/>
</mask>
<g mask="url(#mask1_11_163)">
<path d="M140.6 250.6L229.8 201L319 176.2L408.2 126.6L497.4 101.8" stroke="#87A96B" stroke-width="2" stroke-linecap="round" stroke-linejoin="round"/>
<path d="M140.6 250.6L229.8 201L319 176.2L408.2 126.6L497.4 101.8" stroke="#C0C0C0" stroke-opacity="0.01" stroke-width="22" stroke-linecap="round" stroke-linejoin="round"/>
</g>
<path d="M140.5 246.6L144.5 250.6L140.5 254.6L136.5 250.6L140.5 246.6Z" fill="#87A96B"/>
<path d="M229.5 197L233.5 201L229.5 205L225.5 201L229.5 197Z" fill="#87A96B"/>
<path d="M319.5 172.2L323.5 176.2L319.5 180.2L315.5 176.2L319.5 172.2Z" fill="#87A96B"/>
<path d="M408.5 122.6L412.5 126.6L408.5 130.6L404.5 126.6L408.5 122.6Z" fill="#87A96B"/>
<path d="M497.5 97.8L501.5 101.8L497.5 105.8L493.5 101.8L497.5 97.8Z" fill="#87A96B"/>
<path d="M152.715 56V42.9091H155.483V48.3104H161.101V42.9091H163.863V56H161.101V50.5923H155.483V56H152.715ZM170.568 56.1918C169.558 56.1918 168.689 55.9872 167.96 55.5781C167.236 55.1648 166.677 54.581 166.285 53.8267C165.893 53.0682 165.697 52.1712 165.697 51.1357C165.697 50.1257 165.893 49.2393 166.285 48.4766C166.677 47.7138 167.229 47.1193 167.941 46.6932C168.657 46.267 169.496 46.054 170.459 46.054C171.107 46.054 171.71 46.1584 172.268 46.3672C172.831 46.5717 173.321 46.8807 173.738 47.294C174.16 47.7074 174.488 48.2273 174.723 48.8537C174.957 49.4759 175.074 50.2045 175.074 51.0398V51.7876H166.784V50.1001H172.511C172.511 49.7081 172.426 49.3608 172.255 49.0582C172.085 48.7557 171.848 48.5192 171.546 48.3487C171.248 48.174 170.9 48.0866 170.504 48.0866C170.091 48.0866 169.724 48.1825 169.405 48.3743C169.089 48.5618 168.842 48.8153 168.663 49.1349C168.484 49.4503 168.392 49.8018 168.388 50.1896V51.794C168.388 52.2798 168.478 52.6996 168.657 53.0533C168.84 53.407 169.098 53.6797 169.43 53.8714C169.763 54.0632 170.157 54.1591 170.613 54.1591C170.915 54.1591 171.192 54.1165 171.444 54.0312C171.695 53.946 171.91 53.8182 172.089 53.6477C172.268 53.4773 172.405 53.2685 172.498 53.0213L175.017 53.1875C174.889 53.7926 174.627 54.321 174.231 54.7727C173.839 55.2202 173.331 55.5696 172.709 55.821C172.091 56.0682 171.378 56.1918 170.568 56.1918ZM179.651 56.1854C179.025 56.1854 178.466 56.0767 177.976 55.8594C177.486 55.6378 177.098 55.3118 176.813 54.8814C176.532 54.4467 176.391 53.9055 176.391 53.2578C176.391 52.7124 176.491 52.2543 176.691 51.8835C176.892 51.5128 177.165 51.2145 177.51 50.9886C177.855 50.7628 178.247 50.5923 178.686 50.4773C179.129 50.3622 179.593 50.2812 180.079 50.2344C180.65 50.1747 181.111 50.1193 181.46 50.0682C181.809 50.0128 182.063 49.9318 182.221 49.8253C182.378 49.7187 182.457 49.5611 182.457 49.3523V49.3139C182.457 48.9091 182.329 48.5959 182.074 48.3743C181.822 48.1527 181.464 48.0419 181 48.0419C180.51 48.0419 180.12 48.1506 179.83 48.3679C179.54 48.581 179.348 48.8494 179.255 49.1733L176.736 48.9688C176.864 48.3722 177.116 47.8565 177.491 47.4219C177.866 46.983 178.349 46.6463 178.941 46.4119C179.538 46.1733 180.228 46.054 181.013 46.054C181.558 46.054 182.08 46.1179 182.579 46.2457C183.081 46.3736 183.527 46.5717 183.915 46.8402C184.307 47.1087 184.616 47.4538 184.841 47.8757C185.067 48.2933 185.18 48.794 185.18 49.3778V56H182.598V54.6385H182.521C182.363 54.9453 182.152 55.2159 181.888 55.4503C181.624 55.6804 181.307 55.8615 180.936 55.9936C180.565 56.1214 180.137 56.1854 179.651 56.1854ZM180.431 54.3061C180.831 54.3061 181.185 54.2273 181.492 54.0696C181.799 53.9077 182.04 53.6903 182.214 53.4176C182.389 53.1449 182.476 52.8359 182.476 52.4908V51.4489C182.391 51.5043 182.274 51.5554 182.125 51.6023C181.98 51.6449 181.816 51.6854 181.633 51.7237C181.449 51.7578 181.266 51.7898 181.083 51.8196C180.9 51.8452 180.733 51.8686 180.584 51.8899C180.265 51.9368 179.986 52.0114 179.747 52.1136C179.508 52.2159 179.323 52.3544 179.191 52.5291C179.059 52.6996 178.993 52.9126 178.993 53.1683C178.993 53.5391 179.127 53.8224 179.395 54.0185C179.668 54.2102 180.013 54.3061 180.431 54.3061ZM190.016 42.9091V56H187.293V42.9091H190.016ZM192.197 56V46.1818H194.92V56H192.197ZM193.565 44.9162C193.16 44.9162 192.813 44.782 192.523 44.5135C192.237 44.2408 192.095 43.9148 192.095 43.5355C192.095 43.1605 192.237 42.8388 192.523 42.5703C192.813 42.2976 193.16 42.1612 193.565 42.1612C193.97 42.1612 194.315 42.2976 194.6 42.5703C194.89 42.8388 195.035 43.1605 195.035 43.5355C195.035 43.9148 194.89 44.2408 194.6 44.5135C194.315 44.782 193.97 44.9162 193.565 44.9162ZM199.824 50.3239V56H197.101V46.1818H199.696V47.9141H199.812C200.029 47.343 200.393 46.8913 200.905 46.5589C201.416 46.2223 202.036 46.054 202.765 46.054C203.446 46.054 204.041 46.2031 204.548 46.5014C205.055 46.7997 205.449 47.2259 205.731 47.7798C206.012 48.3295 206.152 48.9858 206.152 49.7486V56H203.429V50.2344C203.434 49.6335 203.28 49.1648 202.969 48.8281C202.658 48.4872 202.23 48.3168 201.684 48.3168C201.318 48.3168 200.994 48.3956 200.713 48.5533C200.436 48.7109 200.218 48.9411 200.061 49.2436C199.907 49.5419 199.829 49.902 199.824 50.3239ZM212.722 59.8864C211.84 59.8864 211.083 59.7649 210.453 59.522C209.826 59.2834 209.328 58.9574 208.957 58.544C208.586 58.1307 208.345 57.6662 208.235 57.1506L210.753 56.8118C210.83 57.0078 210.951 57.1911 211.117 57.3615C211.284 57.532 211.503 57.6683 211.776 57.7706C212.053 57.8771 212.389 57.9304 212.786 57.9304C213.378 57.9304 213.866 57.7855 214.25 57.4957C214.637 57.2102 214.831 56.7308 214.831 56.0575V54.2614H214.716C214.597 54.5341 214.418 54.7919 214.179 55.0348C213.941 55.2777 213.634 55.4759 213.259 55.6293C212.884 55.7827 212.436 55.8594 211.916 55.8594C211.179 55.8594 210.508 55.6889 209.903 55.348C209.302 55.0028 208.823 54.4766 208.465 53.7692C208.111 53.0575 207.934 52.1584 207.934 51.0717C207.934 49.9595 208.115 49.0305 208.478 48.2848C208.84 47.5391 209.321 46.9808 209.922 46.6101C210.527 46.2393 211.19 46.054 211.91 46.054C212.46 46.054 212.92 46.1477 213.291 46.3352C213.661 46.5185 213.96 46.7486 214.186 47.0256C214.416 47.2983 214.593 47.5668 214.716 47.831H214.818V46.1818H217.522V56.0959C217.522 56.9311 217.318 57.63 216.909 58.1925C216.5 58.755 215.933 59.1768 215.208 59.4581C214.488 59.7436 213.659 59.8864 212.722 59.8864ZM212.779 53.8139C213.218 53.8139 213.589 53.7053 213.892 53.4879C214.198 53.2663 214.433 52.951 214.595 52.5419C214.761 52.1286 214.844 51.6342 214.844 51.0589C214.844 50.4837 214.763 49.9851 214.601 49.5632C214.439 49.1371 214.205 48.8068 213.898 48.5724C213.591 48.3381 213.218 48.2209 212.779 48.2209C212.332 48.2209 211.955 48.3423 211.648 48.5852C211.341 48.8239 211.109 49.1562 210.951 49.5824C210.794 50.0085 210.715 50.5007 210.715 51.0589C210.715 51.6257 210.794 52.1158 210.951 52.5291C211.113 52.9382 211.345 53.2557 211.648 53.4815C211.955 53.7031 212.332 53.8139 212.779 53.8139ZM223.906 56V42.9091H229.071C230.064 42.9091 230.91 43.0987 231.609 43.478C232.308 43.853 232.84 44.375 233.207 45.044C233.578 45.7088 233.763 46.4759 233.763 47.3452C233.763 48.2145 233.575 48.9815 233.2 49.6463C232.825 50.3111 232.282 50.8288 231.57 51.1996C230.863 51.5703 230.006 51.7557 229.001 51.7557H225.709V49.5376H228.553C229.086 49.5376 229.525 49.446 229.87 49.2628C230.22 49.0753 230.479 48.8175 230.65 48.4893C230.825 48.157 230.912 47.7756 230.912 47.3452C230.912 46.9105 230.825 46.5312 230.65 46.2074C230.479 45.8793 230.22 45.6257 229.87 45.4467C229.521 45.2635 229.078 45.1719 228.541 45.1719H226.674V56H223.906ZM235.509 56V46.1818H238.149V47.8949H238.252C238.431 47.2855 238.731 46.8253 239.153 46.5142C239.575 46.1989 240.061 46.0412 240.61 46.0412C240.747 46.0412 240.894 46.0497 241.051 46.0668C241.209 46.0838 241.348 46.1072 241.467 46.1371V48.5533C241.339 48.5149 241.162 48.4808 240.936 48.451C240.71 48.4212 240.504 48.4062 240.316 48.4062C239.916 48.4062 239.558 48.4936 239.242 48.6683C238.931 48.8388 238.684 49.0774 238.501 49.3842C238.322 49.6911 238.233 50.0447 238.233 50.4453V56H235.509ZM246.854 56.1918C245.861 56.1918 245.002 55.9808 244.278 55.5589C243.558 55.1328 243.002 54.5405 242.609 53.782C242.217 53.0192 242.021 52.1349 242.021 51.1293C242.021 50.1151 242.217 49.2287 242.609 48.4702C243.002 47.7074 243.558 47.1151 244.278 46.6932C245.002 46.267 245.861 46.054 246.854 46.054C247.847 46.054 248.703 46.267 249.423 46.6932C250.148 47.1151 250.706 47.7074 251.098 48.4702C251.49 49.2287 251.686 50.1151 251.686 51.1293C251.686 52.1349 251.49 53.0192 251.098 53.782C250.706 54.5405 250.148 55.1328 249.423 55.5589C248.703 55.9808 247.847 56.1918 246.854 56.1918ZM246.867 54.0824C247.318 54.0824 247.695 53.9545 247.998 53.6989C248.301 53.4389 248.528 53.0852 248.682 52.6378C248.84 52.1903 248.918 51.6811 248.918 51.1101C248.918 50.5391 248.84 50.0298 248.682 49.5824C248.528 49.1349 248.301 48.7812 247.998 48.5213C247.695 48.2614 247.318 48.1314 246.867 48.1314C246.411 48.1314 246.027 48.2614 245.716 48.5213C245.409 48.7812 245.177 49.1349 245.019 49.5824C244.866 50.0298 244.789 50.5391 244.789 51.1101C244.789 51.6811 244.866 52.1903 245.019 52.6378C245.177 53.0852 245.409 53.4389 245.716 53.6989C246.027 53.9545 246.411 54.0824 246.867 54.0824ZM257.88 59.8864C256.998 59.8864 256.242 59.7649 255.611 59.522C254.984 59.2834 254.486 58.9574 254.115 58.544C253.744 58.1307 253.504 57.6662 253.393 57.1506L255.911 56.8118C255.988 57.0078 256.109 57.1911 256.276 57.3615C256.442 57.532 256.661 57.6683 256.934 57.7706C257.211 57.8771 257.548 57.9304 257.944 57.9304C258.536 57.9304 259.024 57.7855 259.408 57.4957C259.796 57.2102 259.989 56.7308 259.989 56.0575V54.2614H259.874C259.755 54.5341 259.576 54.7919 259.337 55.0348C259.099 55.2777 258.792 55.4759 258.417 55.6293C258.042 55.7827 257.595 55.8594 257.075 55.8594C256.337 55.8594 255.666 55.6889 255.061 55.348C254.46 55.0028 253.981 54.4766 253.623 53.7692C253.269 53.0575 253.092 52.1584 253.092 51.0717C253.092 49.9595 253.274 49.0305 253.636 48.2848C253.998 47.5391 254.479 46.9808 255.08 46.6101C255.685 46.2393 256.348 46.054 257.068 46.054C257.618 46.054 258.078 46.1477 258.449 46.3352C258.82 46.5185 259.118 46.7486 259.344 47.0256C259.574 47.2983 259.751 47.5668 259.874 47.831H259.977V46.1818H262.68V56.0959C262.68 56.9311 262.476 57.63 262.067 58.1925C261.658 58.755 261.091 59.1768 260.367 59.4581C259.646 59.7436 258.818 59.8864 257.88 59.8864ZM257.938 53.8139C258.377 53.8139 258.747 53.7053 259.05 53.4879C259.357 53.2663 259.591 52.951 259.753 52.5419C259.919 52.1286 260.002 51.6342 260.002 51.0589C260.002 50.4837 259.921 49.9851 259.759 49.5632C259.597 49.1371 259.363 48.8068 259.056 48.5724C258.749 48.3381 258.377 48.2209 257.938 48.2209C257.49 48.2209 257.113 48.3423 256.806 48.5852C256.499 48.8239 256.267 49.1562 256.109 49.5824C255.952 50.0085 255.873 50.5007 255.873 51.0589C255.873 51.6257 255.952 52.1158 256.109 52.5291C256.271 52.9382 256.504 53.2557 256.806 53.4815C257.113 53.7031 257.49 53.8139 257.938 53.8139ZM264.847 56V46.1818H267.487V47.8949H267.59C267.769 47.2855 268.069 46.8253 268.491 46.5142C268.913 46.1989 269.399 46.0412 269.948 46.0412C270.085 46.0412 270.232 46.0497 270.389 46.0668C270.547 46.0838 270.685 46.1072 270.805 46.1371V48.5533C270.677 48.5149 270.5 48.4808 270.274 48.451C270.048 48.4212 269.842 48.4062 269.654 48.4062C269.254 48.4062 268.896 48.4936 268.58 48.6683C268.269 48.8388 268.022 49.0774 267.839 49.3842C267.66 49.6911 267.57 50.0447 267.57 50.4453V56H264.847ZM276.23 56.1918C275.22 56.1918 274.351 55.9872 273.622 55.5781C272.898 55.1648 272.339 54.581 271.947 53.8267C271.555 53.0682 271.359 52.1712 271.359 51.1357C271.359 50.1257 271.555 49.2393 271.947 48.4766C272.339 47.7138 272.891 47.1193 273.603 46.6932C274.319 46.267 275.158 46.054 276.121 46.054C276.769 46.054 277.372 46.1584 277.93 46.3672C278.493 46.5717 278.983 46.8807 279.4 47.294C279.822 47.7074 280.15 48.2273 280.385 48.8537C280.619 49.4759 280.736 50.2045 280.736 51.0398V51.7876H272.446V50.1001H278.173C278.173 49.7081 278.088 49.3608 277.918 49.0582C277.747 48.7557 277.511 48.5192 277.208 48.3487C276.91 48.174 276.562 48.0866 276.166 48.0866C275.753 48.0866 275.386 48.1825 275.067 48.3743C274.751 48.5618 274.504 48.8153 274.325 49.1349C274.146 49.4503 274.055 49.8018 274.05 50.1896V51.794C274.05 52.2798 274.14 52.6996 274.319 53.0533C274.502 53.407 274.76 53.6797 275.092 53.8714C275.425 54.0632 275.819 54.1591 276.275 54.1591C276.577 54.1591 276.854 54.1165 277.106 54.0312C277.357 53.946 277.572 53.8182 277.751 53.6477C277.93 53.4773 278.067 53.2685 278.16 53.0213L280.679 53.1875C280.551 53.7926 280.289 54.321 279.893 54.7727C279.501 55.2202 278.994 55.5696 278.371 55.821C277.753 56.0682 277.04 56.1918 276.23 56.1918ZM290.682 48.9815L288.19 49.1349C288.147 48.9219 288.055 48.7301 287.915 48.5597C287.774 48.3849 287.589 48.2464 287.359 48.1442C287.133 48.0376 286.862 47.9844 286.547 47.9844C286.125 47.9844 285.769 48.0739 285.479 48.2528C285.19 48.4276 285.045 48.6619 285.045 48.956C285.045 49.1903 285.138 49.3885 285.326 49.5504C285.513 49.7124 285.835 49.8423 286.291 49.9403L288.068 50.2983C289.023 50.4943 289.734 50.8097 290.203 51.2443C290.672 51.679 290.906 52.25 290.906 52.9574C290.906 53.6009 290.717 54.1655 290.337 54.6513C289.962 55.1371 289.447 55.5163 288.79 55.7891C288.138 56.0575 287.386 56.1918 286.534 56.1918C285.234 56.1918 284.199 55.9212 283.427 55.38C282.66 54.8345 282.211 54.093 282.079 53.1555L284.757 53.0149C284.838 53.4112 285.034 53.7138 285.345 53.9226C285.656 54.1271 286.055 54.2294 286.54 54.2294C287.018 54.2294 287.401 54.1378 287.691 53.9545C287.985 53.767 288.134 53.5263 288.138 53.2322C288.134 52.9851 288.03 52.7827 287.825 52.625C287.621 52.4631 287.305 52.3395 286.879 52.2543L285.179 51.9155C284.22 51.7237 283.506 51.3913 283.038 50.9183C282.573 50.4453 282.341 49.8423 282.341 49.1094C282.341 48.4787 282.511 47.9354 282.852 47.4794C283.197 47.0234 283.681 46.6719 284.303 46.4247C284.93 46.1776 285.663 46.054 286.502 46.054C287.742 46.054 288.718 46.3161 289.43 46.8402C290.146 47.3643 290.563 48.0781 290.682 48.9815ZM300.79 48.9815L298.297 49.1349C298.254 48.9219 298.163 48.7301 298.022 48.5597C297.881 48.3849 297.696 48.2464 297.466 48.1442C297.24 48.0376 296.97 47.9844 296.654 47.9844C296.232 47.9844 295.877 48.0739 295.587 48.2528C295.297 48.4276 295.152 48.6619 295.152 48.956C295.152 49.1903 295.246 49.3885 295.433 49.5504C295.621 49.7124 295.943 49.8423 296.399 49.9403L298.176 50.2983C299.13 50.4943 299.842 50.8097 300.31 51.2443C300.779 51.679 301.014 52.25 301.014 52.9574C301.014 53.6009 300.824 54.1655 300.445 54.6513C300.07 55.1371 299.554 55.5163 298.898 55.7891C298.246 56.0575 297.494 56.1918 296.641 56.1918C295.342 56.1918 294.306 55.9212 293.535 55.38C292.768 54.8345 292.318 54.093 292.186 53.1555L294.864 53.0149C294.945 53.4112 295.141 53.7138 295.453 53.9226C295.764 54.1271 296.162 54.2294 296.648 54.2294C297.125 54.2294 297.509 54.1378 297.798 53.9545C298.092 53.767 298.242 53.5263 298.246 53.2322C298.242 52.9851 298.137 52.7827 297.933 52.625C297.728 52.4631 297.413 52.3395 296.987 52.2543L295.286 51.9155C294.328 51.7237 293.614 51.3913 293.145 50.9183C292.68 50.4453 292.448 49.8423 292.448 49.1094C292.448 48.4787 292.619 47.9354 292.96 47.4794C293.305 47.0234 293.788 46.6719 294.411 46.4247C295.037 46.1776 295.77 46.054 296.609 46.054C297.85 46.054 298.825 46.3161 299.537 46.8402C300.253 47.3643 300.671 48.0781 300.79 48.9815ZM318.975 49.4545C318.975 50.8821 318.705 52.0966 318.163 53.098C317.627 54.0994 316.894 54.8643 315.965 55.3928C315.04 55.9169 314 56.179 312.845 56.179C311.682 56.179 310.638 55.9148 309.713 55.3864C308.788 54.858 308.058 54.093 307.521 53.0916C306.984 52.0902 306.715 50.8778 306.715 49.4545C306.715 48.027 306.984 46.8125 307.521 45.8111C308.058 44.8097 308.788 44.0469 309.713 43.5227C310.638 42.9943 311.682 42.7301 312.845 42.7301C314 42.7301 315.04 42.9943 315.965 43.5227C316.894 44.0469 317.627 44.8097 318.163 45.8111C318.705 46.8125 318.975 48.027 318.975 49.4545ZM316.169 49.4545C316.169 48.5298 316.031 47.75 315.754 47.1151C315.481 46.4801 315.095 45.9986 314.597 45.6705C314.098 45.3423 313.514 45.1783 312.845 45.1783C312.176 45.1783 311.592 45.3423 311.094 45.6705C310.595 45.9986 310.207 46.4801 309.93 47.1151C309.658 47.75 309.521 48.5298 309.521 49.4545C309.521 50.3793 309.658 51.1591 309.93 51.794C310.207 52.429 310.595 52.9105 311.094 53.2386C311.592 53.5668 312.176 53.7308 312.845 53.7308C313.514 53.7308 314.098 53.5668 314.597 53.2386C315.095 52.9105 315.481 52.429 315.754 51.794C316.031 51.1591 316.169 50.3793 316.169 49.4545ZM330.128 46.1818L326.695 56H323.627L320.195 46.1818H323.071L325.11 53.2067H325.212L327.245 46.1818H330.128ZM335.679 56.1918C334.669 56.1918 333.8 55.9872 333.071 55.5781C332.347 55.1648 331.789 54.581 331.397 53.8267C331.005 53.0682 330.809 52.1712 330.809 51.1357C330.809 50.1257 331.005 49.2393 331.397 48.4766C331.789 47.7138 332.34 47.1193 333.052 46.6932C333.768 46.267 334.608 46.054 335.571 46.054C336.218 46.054 336.821 46.1584 337.38 46.3672C337.942 46.5717 338.432 46.8807 338.85 47.294C339.272 47.7074 339.6 48.2273 339.834 48.8537C340.068 49.4759 340.186 50.2045 340.186 51.0398V51.7876H331.895V50.1001H337.622C337.622 49.7081 337.537 49.3608 337.367 49.0582C337.196 48.7557 336.96 48.5192 336.657 48.3487C336.359 48.174 336.012 48.0866 335.615 48.0866C335.202 48.0866 334.835 48.1825 334.516 48.3743C334.201 48.5618 333.953 48.8153 333.774 49.1349C333.595 49.4503 333.504 49.8018 333.5 50.1896V51.794C333.5 52.2798 333.589 52.6996 333.768 53.0533C333.951 53.407 334.209 53.6797 334.541 53.8714C334.874 54.0632 335.268 54.1591 335.724 54.1591C336.027 54.1591 336.304 54.1165 336.555 54.0312C336.806 53.946 337.022 53.8182 337.201 53.6477C337.38 53.4773 337.516 53.2685 337.61 53.0213L340.128 53.1875C340 53.7926 339.738 54.321 339.342 54.7727C338.95 55.2202 338.443 55.5696 337.821 55.821C337.203 56.0682 336.489 56.1918 335.679 56.1918ZM341.963 56V46.1818H344.603V47.8949H344.705C344.884 47.2855 345.184 46.8253 345.606 46.5142C346.028 46.1989 346.514 46.0412 347.063 46.0412C347.2 46.0412 347.347 46.0497 347.505 46.0668C347.662 46.0838 347.801 46.1072 347.92 46.1371V48.5533C347.792 48.5149 347.615 48.4808 347.389 48.451C347.164 48.4212 346.957 48.4062 346.769 48.4062C346.369 48.4062 346.011 48.4936 345.696 48.6683C345.384 48.8388 345.137 49.0774 344.954 49.3842C344.775 49.6911 344.686 50.0447 344.686 50.4453V56H341.963ZM360.647 46.674C360.595 46.1584 360.376 45.7578 359.988 45.4723C359.6 45.1868 359.074 45.044 358.409 45.044C357.958 45.044 357.576 45.108 357.265 45.2358C356.954 45.3594 356.715 45.532 356.549 45.7536C356.387 45.9751 356.306 46.2266 356.306 46.5078C356.298 46.7422 356.347 46.9467 356.453 47.1214C356.564 47.2962 356.715 47.4474 356.907 47.5753C357.099 47.6989 357.321 47.8075 357.572 47.9013C357.823 47.9908 358.092 48.0675 358.377 48.1314L359.554 48.4126C360.125 48.5405 360.649 48.7109 361.126 48.924C361.603 49.1371 362.017 49.3991 362.366 49.7102C362.715 50.0213 362.986 50.3878 363.178 50.8097C363.374 51.2315 363.474 51.7152 363.478 52.2607C363.474 53.0618 363.269 53.7564 362.865 54.3445C362.464 54.9283 361.884 55.3821 361.126 55.706C360.372 56.0256 359.462 56.1854 358.397 56.1854C357.34 56.1854 356.419 56.0234 355.635 55.6996C354.855 55.3757 354.246 54.8963 353.807 54.2614C353.372 53.6222 353.144 52.8317 353.123 51.8899H355.801C355.831 52.3288 355.957 52.6953 356.179 52.9893C356.404 53.2791 356.705 53.4986 357.08 53.6477C357.459 53.7926 357.887 53.8651 358.365 53.8651C358.833 53.8651 359.24 53.7969 359.585 53.6605C359.935 53.5241 360.206 53.3345 360.397 53.0916C360.589 52.8487 360.685 52.5696 360.685 52.2543C360.685 51.9602 360.598 51.7131 360.423 51.5128C360.252 51.3125 360.001 51.142 359.669 51.0014C359.34 50.8608 358.938 50.733 358.46 50.6179L357.035 50.2599C355.931 49.9915 355.06 49.5717 354.421 49.0007C353.782 48.4297 353.464 47.6605 353.468 46.6932C353.464 45.9006 353.675 45.2081 354.101 44.6158C354.532 44.0234 355.122 43.5611 355.872 43.2287C356.622 42.8963 357.474 42.7301 358.429 42.7301C359.4 42.7301 360.248 42.8963 360.973 43.2287C361.701 43.5611 362.268 44.0234 362.673 44.6158C363.078 45.2081 363.286 45.8942 363.299 46.674H360.647ZM369.763 56.1918C368.753 56.1918 367.884 55.9872 367.155 55.5781C366.431 55.1648 365.873 54.581 365.481 53.8267C365.089 53.0682 364.892 52.1712 364.892 51.1357C364.892 50.1257 365.089 49.2393 365.481 48.4766C365.873 47.7138 366.424 47.1193 367.136 46.6932C367.852 46.267 368.691 46.054 369.655 46.054C370.302 46.054 370.905 46.1584 371.464 46.3672C372.026 46.5717 372.516 46.8807 372.934 47.294C373.356 47.7074 373.684 48.2273 373.918 48.8537C374.152 49.4759 374.27 50.2045 374.27 51.0398V51.7876H365.979V50.1001H371.706C371.706 49.7081 371.621 49.3608 371.451 49.0582C371.28 48.7557 371.044 48.5192 370.741 48.3487C370.443 48.174 370.096 48.0866 369.699 48.0866C369.286 48.0866 368.919 48.1825 368.6 48.3743C368.285 48.5618 368.037 48.8153 367.858 49.1349C367.679 49.4503 367.588 49.8018 367.584 50.1896V51.794C367.584 52.2798 367.673 52.6996 367.852 53.0533C368.035 53.407 368.293 53.6797 368.625 53.8714C368.958 54.0632 369.352 54.1591 369.808 54.1591C370.111 54.1591 370.388 54.1165 370.639 54.0312C370.89 53.946 371.106 53.8182 371.285 53.6477C371.464 53.4773 371.6 53.2685 371.694 53.0213L374.212 53.1875C374.084 53.7926 373.822 54.321 373.426 54.7727C373.034 55.2202 372.527 55.5696 371.905 55.821C371.287 56.0682 370.573 56.1918 369.763 56.1918ZM384.216 48.9815L381.723 49.1349C381.68 48.9219 381.589 48.7301 381.448 48.5597C381.307 48.3849 381.122 48.2464 380.892 48.1442C380.666 48.0376 380.395 47.9844 380.08 47.9844C379.658 47.9844 379.302 48.0739 379.013 48.2528C378.723 48.4276 378.578 48.6619 378.578 48.956C378.578 49.1903 378.672 49.3885 378.859 49.5504C379.047 49.7124 379.368 49.8423 379.824 49.9403L381.601 50.2983C382.556 50.4943 383.267 50.8097 383.736 51.2443C384.205 51.679 384.439 52.25 384.439 52.9574C384.439 53.6009 384.25 54.1655 383.87 54.6513C383.495 55.1371 382.98 55.5163 382.324 55.7891C381.672 56.0575 380.919 56.1918 380.067 56.1918C378.767 56.1918 377.732 55.9212 376.961 55.38C376.194 54.8345 375.744 54.093 375.612 53.1555L378.29 53.0149C378.371 53.4112 378.567 53.7138 378.878 53.9226C379.189 54.1271 379.588 54.2294 380.074 54.2294C380.551 54.2294 380.934 54.1378 381.224 53.9545C381.518 53.767 381.667 53.5263 381.672 53.2322C381.667 52.9851 381.563 52.7827 381.358 52.625C381.154 52.4631 380.839 52.3395 380.412 52.2543L378.712 51.9155C377.753 51.7237 377.04 51.3913 376.571 50.9183C376.106 50.4453 375.874 49.8423 375.874 49.1094C375.874 48.4787 376.044 47.9354 376.385 47.4794C376.731 47.0234 377.214 46.6719 377.836 46.4247C378.463 46.1776 379.196 46.054 380.035 46.054C381.275 46.054 382.251 46.3161 382.963 46.8402C383.679 47.3643 384.096 48.0781 384.216 48.9815ZM394.323 48.9815L391.83 49.1349C391.788 48.9219 391.696 48.7301 391.555 48.5597C391.415 48.3849 391.229 48.2464 390.999 48.1442C390.773 48.0376 390.503 47.9844 390.187 47.9844C389.766 47.9844 389.41 48.0739 389.12 48.2528C388.83 48.4276 388.685 48.6619 388.685 48.956C388.685 49.1903 388.779 49.3885 388.967 49.5504C389.154 49.7124 389.476 49.8423 389.932 49.9403L391.709 50.2983C392.663 50.4943 393.375 50.8097 393.844 51.2443C394.312 51.679 394.547 52.25 394.547 52.9574C394.547 53.6009 394.357 54.1655 393.978 54.6513C393.603 55.1371 393.087 55.5163 392.431 55.7891C391.779 56.0575 391.027 56.1918 390.175 56.1918C388.875 56.1918 387.839 55.9212 387.068 55.38C386.301 54.8345 385.851 54.093 385.719 53.1555L388.398 53.0149C388.479 53.4112 388.675 53.7138 388.986 53.9226C389.297 54.1271 389.695 54.2294 390.181 54.2294C390.658 54.2294 391.042 54.1378 391.332 53.9545C391.626 53.767 391.775 53.5263 391.779 53.2322C391.775 52.9851 391.67 52.7827 391.466 52.625C391.261 52.4631 390.946 52.3395 390.52 52.2543L388.82 51.9155C387.861 51.7237 387.147 51.3913 386.678 50.9183C386.214 50.4453 385.981 49.8423 385.981 49.1094C385.981 48.4787 386.152 47.9354 386.493 47.4794C386.838 47.0234 387.322 46.6719 387.944 46.4247C388.57 46.1776 389.303 46.054 390.143 46.054C391.383 46.054 392.359 46.3161 393.07 46.8402C393.786 47.3643 394.204 48.0781 394.323 48.9815ZM396.261 56V46.1818H398.984V56H396.261ZM397.629 44.9162C397.225 44.9162 396.877 44.782 396.587 44.5135C396.302 44.2408 396.159 43.9148 396.159 43.5355C396.159 43.1605 396.302 42.8388 396.587 42.5703C396.877 42.2976 397.225 42.1612 397.629 42.1612C398.034 42.1612 398.379 42.2976 398.665 42.5703C398.955 42.8388 399.1 43.1605 399.1 43.5355C399.1 43.9148 398.955 44.2408 398.665 44.5135C398.379 44.782 398.034 44.9162 397.629 44.9162ZM405.602 56.1918C404.609 56.1918 403.75 55.9808 403.026 55.5589C402.306 55.1328 401.75 54.5405 401.358 53.782C400.965 53.0192 400.769 52.1349 400.769 51.1293C400.769 50.1151 400.965 49.2287 401.358 48.4702C401.75 47.7074 402.306 47.1151 403.026 46.6932C403.75 46.267 404.609 46.054 405.602 46.054C406.595 46.054 407.451 46.267 408.171 46.6932C408.896 47.1151 409.454 47.7074 409.846 48.4702C410.238 49.2287 410.434 50.1151 410.434 51.1293C410.434 52.1349 410.238 53.0192 409.846 53.782C409.454 54.5405 408.896 55.1328 408.171 55.5589C407.451 55.9808 406.595 56.1918 405.602 56.1918ZM405.615 54.0824C406.066 54.0824 406.443 53.9545 406.746 53.6989C407.049 53.4389 407.277 53.0852 407.43 52.6378C407.588 52.1903 407.666 51.6811 407.666 51.1101C407.666 50.5391 407.588 50.0298 407.43 49.5824C407.277 49.1349 407.049 48.7812 406.746 48.5213C406.443 48.2614 406.066 48.1314 405.615 48.1314C405.159 48.1314 404.775 48.2614 404.464 48.5213C404.157 48.7812 403.925 49.1349 403.767 49.5824C403.614 50.0298 403.537 50.5391 403.537 51.1101C403.537 51.6811 403.614 52.1903 403.767 52.6378C403.925 53.0852 404.157 53.4389 404.464 53.6989C404.775 53.9545 405.159 54.0824 405.615 54.0824ZM414.928 50.3239V56H412.205V46.1818H414.8V47.9141H414.915C415.132 47.343 415.497 46.8913 416.008 46.5589C416.519 46.2223 417.139 46.054 417.868 46.054C418.55 46.054 419.144 46.2031 419.652 46.5014C420.159 46.7997 420.553 47.2259 420.834 47.7798C421.115 48.3295 421.256 48.9858 421.256 49.7486V56H418.533V50.2344C418.537 49.6335 418.384 49.1648 418.073 48.8281C417.762 48.4872 417.333 48.3168 416.788 48.3168C416.421 48.3168 416.098 48.3956 415.816 48.5533C415.539 48.7109 415.322 48.9411 415.164 49.2436C415.011 49.5419 414.932 49.902 414.928 50.3239ZM431.571 48.9815L429.078 49.1349C429.036 48.9219 428.944 48.7301 428.803 48.5597C428.663 48.3849 428.477 48.2464 428.247 48.1442C428.021 48.0376 427.751 47.9844 427.435 47.9844C427.014 47.9844 426.658 48.0739 426.368 48.2528C426.078 48.4276 425.933 48.6619 425.933 48.956C425.933 49.1903 426.027 49.3885 426.215 49.5504C426.402 49.7124 426.724 49.8423 427.18 49.9403L428.957 50.2983C429.911 50.4943 430.623 50.8097 431.092 51.2443C431.56 51.679 431.795 52.25 431.795 52.9574C431.795 53.6009 431.605 54.1655 431.226 54.6513C430.851 55.1371 430.335 55.5163 429.679 55.7891C429.027 56.0575 428.275 56.1918 427.423 56.1918C426.123 56.1918 425.087 55.9212 424.316 55.38C423.549 54.8345 423.1 54.093 422.967 53.1555L425.646 53.0149C425.727 53.4112 425.923 53.7138 426.234 53.9226C426.545 54.1271 426.943 54.2294 427.429 54.2294C427.906 54.2294 428.29 54.1378 428.58 53.9545C428.874 53.767 429.023 53.5263 429.027 53.2322C429.023 52.9851 428.918 52.7827 428.714 52.625C428.509 52.4631 428.194 52.3395 427.768 52.2543L426.068 51.9155C425.109 51.7237 424.395 51.3913 423.926 50.9183C423.462 50.4453 423.229 49.8423 423.229 49.1094C423.229 48.4787 423.4 47.9354 423.741 47.4794C424.086 47.0234 424.57 46.6719 425.192 46.4247C425.818 46.1776 426.551 46.054 427.391 46.054C428.631 46.054 429.607 46.3161 430.318 46.8402C431.034 47.3643 431.452 48.0781 431.571 48.9815Z" fill="#4A5D23"/>
<path d="M193 403H207" stroke="#8B4513" stroke-width="2" stroke-linecap="round"/>
<path d="M200 407C198.939 407 197.922 406.579 197.172 405.828C196.421 405.078 196 404.061 196 403C196 401.939 196.421 400.922 197.172 400.172C197.922 399.421 198.939 399 200 399C201.061 399 202.078 399.421 202.828 400.171C203.579 400.922 204 401.939 204 403C204 404.061 203.579 405.078 202.829 405.828C202.078 406.578 201.061 407 200 407Z" fill="#8B4513"/>
<path d="M214.127 406.2V396.891H217.273C218.003 396.891 218.6 397.023 219.064 397.286C219.53 397.547 219.876 397.9 220.1 398.345C220.324 398.791 220.436 399.288 220.436 399.836C220.436 400.385 220.324 400.883 220.1 401.332C219.879 401.78 219.536 402.138 219.073 402.404C218.609 402.668 218.015 402.8 217.291 402.8H215.036V401.8H217.255C217.755 401.8 218.156 401.714 218.459 401.541C218.762 401.368 218.982 401.135 219.118 400.841C219.258 400.544 219.327 400.209 219.327 399.836C219.327 399.464 219.258 399.13 219.118 398.836C218.982 398.542 218.761 398.312 218.455 398.145C218.148 397.976 217.742 397.891 217.236 397.891H215.255V406.2H214.127ZM224.161 406.364C223.719 406.364 223.317 406.28 222.957 406.114C222.596 405.944 222.31 405.7 222.098 405.382C221.886 405.061 221.78 404.673 221.78 404.218C221.78 403.818 221.858 403.494 222.016 403.245C222.173 402.994 222.384 402.797 222.648 402.654C222.911 402.512 223.202 402.406 223.52 402.336C223.842 402.264 224.164 402.206 224.489 402.164C224.913 402.109 225.257 402.068 225.52 402.041C225.787 402.011 225.981 401.961 226.102 401.891C226.227 401.821 226.289 401.7 226.289 401.527V401.491C226.289 401.042 226.166 400.694 225.92 400.445C225.678 400.197 225.31 400.073 224.816 400.073C224.304 400.073 223.902 400.185 223.611 400.409C223.32 400.633 223.116 400.873 222.998 401.127L221.98 400.764C222.161 400.339 222.404 400.009 222.707 399.773C223.013 399.533 223.346 399.367 223.707 399.273C224.07 399.176 224.428 399.127 224.78 399.127C225.004 399.127 225.261 399.154 225.552 399.209C225.846 399.261 226.13 399.368 226.402 399.532C226.678 399.695 226.907 399.942 227.089 400.273C227.27 400.603 227.361 401.045 227.361 401.6V406.2H226.289V405.254H226.234C226.161 405.406 226.04 405.568 225.87 405.741C225.701 405.914 225.475 406.061 225.193 406.182C224.911 406.303 224.567 406.364 224.161 406.364ZM224.325 405.4C224.749 405.4 225.107 405.317 225.398 405.15C225.692 404.983 225.913 404.768 226.061 404.504C226.213 404.241 226.289 403.964 226.289 403.673V402.691C226.243 402.745 226.143 402.795 225.989 402.841C225.837 402.883 225.661 402.921 225.461 402.954C225.264 402.985 225.072 403.012 224.884 403.036C224.699 403.058 224.549 403.076 224.434 403.091C224.155 403.127 223.895 403.186 223.652 403.268C223.413 403.347 223.219 403.467 223.07 403.627C222.925 403.785 222.852 404 222.852 404.273C222.852 404.645 222.99 404.927 223.266 405.118C223.545 405.306 223.898 405.4 224.325 405.4ZM229.319 406.2V399.218H230.392V406.2H229.319ZM229.865 398.054C229.656 398.054 229.475 397.983 229.324 397.841C229.175 397.698 229.101 397.527 229.101 397.327C229.101 397.127 229.175 396.956 229.324 396.814C229.475 396.671 229.656 396.6 229.865 396.6C230.074 396.6 230.253 396.671 230.401 396.814C230.553 396.956 230.628 397.127 230.628 397.327C230.628 397.527 230.553 397.698 230.401 397.841C230.253 397.983 230.074 398.054 229.865 398.054ZM233.43 402V406.2H232.357V399.218H233.393V400.309H233.484C233.648 399.954 233.896 399.67 234.23 399.454C234.563 399.236 234.993 399.127 235.52 399.127C235.993 399.127 236.407 399.224 236.761 399.418C237.116 399.609 237.392 399.9 237.589 400.291C237.786 400.679 237.884 401.17 237.884 401.764V406.2H236.811V401.836C236.811 401.288 236.669 400.861 236.384 400.554C236.099 400.245 235.708 400.091 235.211 400.091C234.869 400.091 234.563 400.165 234.293 400.314C234.027 400.462 233.816 400.679 233.661 400.964C233.507 401.248 233.43 401.594 233.43 402ZM243.59 406.2V396.891H244.717V405.2H249.044V406.2H243.59ZM253.572 406.345C252.899 406.345 252.319 406.197 251.831 405.9C251.346 405.6 250.972 405.182 250.708 404.645C250.447 404.106 250.317 403.479 250.317 402.764C250.317 402.048 250.447 401.418 250.708 400.873C250.972 400.324 251.338 399.897 251.808 399.591C252.281 399.282 252.832 399.127 253.463 399.127C253.826 399.127 254.185 399.188 254.54 399.309C254.894 399.43 255.217 399.627 255.508 399.9C255.799 400.17 256.031 400.527 256.203 400.973C256.376 401.418 256.463 401.967 256.463 402.618V403.073H251.081V402.145H255.372C255.372 401.751 255.293 401.4 255.135 401.091C254.981 400.782 254.759 400.538 254.472 400.359C254.187 400.18 253.85 400.091 253.463 400.091C253.035 400.091 252.666 400.197 252.353 400.409C252.044 400.618 251.806 400.891 251.64 401.227C251.473 401.564 251.39 401.924 251.39 402.309V402.927C251.39 403.454 251.481 403.901 251.663 404.268C251.847 404.632 252.103 404.909 252.431 405.1C252.758 405.288 253.138 405.382 253.572 405.382C253.853 405.382 254.108 405.342 254.335 405.264C254.566 405.182 254.764 405.061 254.931 404.9C255.097 404.736 255.226 404.533 255.317 404.291L256.353 404.582C256.244 404.933 256.061 405.242 255.803 405.509C255.546 405.773 255.228 405.979 254.849 406.127C254.47 406.273 254.044 406.345 253.572 406.345ZM263.591 399.218L261.009 406.2H259.918L257.336 399.218H258.5L260.427 404.782H260.5L262.427 399.218H263.591ZM267.684 406.345C267.011 406.345 266.431 406.197 265.943 405.9C265.458 405.6 265.084 405.182 264.82 404.645C264.56 404.106 264.43 403.479 264.43 402.764C264.43 402.048 264.56 401.418 264.82 400.873C265.084 400.324 265.451 399.897 265.92 399.591C266.393 399.282 266.945 399.127 267.575 399.127C267.939 399.127 268.298 399.188 268.652 399.309C269.007 399.43 269.33 399.627 269.62 399.9C269.911 400.17 270.143 400.527 270.316 400.973C270.489 401.418 270.575 401.967 270.575 402.618V403.073H265.193V402.145H269.484C269.484 401.751 269.405 401.4 269.248 401.091C269.093 400.782 268.872 400.538 268.584 400.359C268.299 400.18 267.963 400.091 267.575 400.091C267.148 400.091 266.778 400.197 266.466 400.409C266.157 400.618 265.919 400.891 265.752 401.227C265.586 401.564 265.502 401.924 265.502 402.309V402.927C265.502 403.454 265.593 403.901 265.775 404.268C265.96 404.632 266.216 404.909 266.543 405.1C266.87 405.288 267.251 405.382 267.684 405.382C267.966 405.382 268.22 405.342 268.448 405.264C268.678 405.182 268.877 405.061 269.043 404.9C269.21 404.736 269.339 404.533 269.43 404.291L270.466 404.582C270.357 404.933 270.173 405.242 269.916 405.509C269.658 405.773 269.34 405.979 268.961 406.127C268.583 406.273 268.157 406.345 267.684 406.345ZM273.28 396.891V406.2H272.207V396.891H273.28Z" fill="#333333"/>
<path d="M293.766 403H307.766" stroke="#87A96B" stroke-width="2" stroke-linecap="round"/>
<path d="M300.766 399L304.766 403L300.766 407L296.766 403L300.766 399Z" fill="#87A96B"/>
<path d="M314.893 406.2V396.891H320.511V397.891H316.02V401.036H320.22V402.036H316.02V405.2H320.584V406.2H314.893ZM323.47 402V406.2H322.397V399.218H323.434V400.309H323.525C323.688 399.954 323.937 399.67 324.27 399.454C324.604 399.236 325.034 399.127 325.561 399.127C326.034 399.127 326.447 399.224 326.802 399.418C327.157 399.609 327.432 399.9 327.629 400.291C327.826 400.679 327.925 401.17 327.925 401.764V406.2H326.852V401.836C326.852 401.288 326.71 400.861 326.425 400.554C326.14 400.245 325.749 400.091 325.252 400.091C324.91 400.091 324.604 400.165 324.334 400.314C324.067 400.462 323.857 400.679 323.702 400.964C323.547 401.248 323.47 401.594 323.47 402ZM332.812 406.345C332.139 406.345 331.559 406.197 331.071 405.9C330.586 405.6 330.212 405.182 329.949 404.645C329.688 404.106 329.558 403.479 329.558 402.764C329.558 402.048 329.688 401.418 329.949 400.873C330.212 400.324 330.579 399.897 331.049 399.591C331.521 399.282 332.073 399.127 332.703 399.127C333.067 399.127 333.426 399.188 333.78 399.309C334.135 399.43 334.458 399.627 334.749 399.9C335.039 400.17 335.271 400.527 335.444 400.973C335.617 401.418 335.703 401.967 335.703 402.618V403.073H330.321V402.145H334.612C334.612 401.751 334.533 401.4 334.376 401.091C334.221 400.782 334 400.538 333.712 400.359C333.427 400.18 333.091 400.091 332.703 400.091C332.276 400.091 331.906 400.197 331.594 400.409C331.285 400.618 331.047 400.891 330.88 401.227C330.714 401.564 330.63 401.924 330.63 402.309V402.927C330.63 403.454 330.721 403.901 330.903 404.268C331.088 404.632 331.344 404.909 331.671 405.1C331.999 405.288 332.379 405.382 332.812 405.382C333.094 405.382 333.349 405.342 333.576 405.264C333.806 405.182 334.005 405.061 334.171 404.9C334.338 404.736 334.467 404.533 334.558 404.291L335.594 404.582C335.485 404.933 335.302 405.242 335.044 405.509C334.786 405.773 334.468 405.979 334.089 406.127C333.711 406.273 333.285 406.345 332.812 406.345ZM337.335 406.2V399.218H338.371V400.273H338.444C338.571 399.927 338.802 399.647 339.135 399.432C339.468 399.217 339.844 399.109 340.262 399.109C340.341 399.109 340.439 399.111 340.558 399.114C340.676 399.117 340.765 399.121 340.826 399.127V400.218C340.789 400.209 340.706 400.195 340.576 400.177C340.449 400.156 340.314 400.145 340.171 400.145C339.832 400.145 339.529 400.217 339.262 400.359C338.999 400.498 338.789 400.692 338.635 400.941C338.483 401.186 338.408 401.467 338.408 401.782V406.2H337.335ZM344.703 408.964C344.185 408.964 343.739 408.897 343.367 408.764C342.994 408.633 342.683 408.461 342.435 408.245C342.189 408.033 341.994 407.806 341.849 407.564L342.703 406.964C342.8 407.091 342.923 407.236 343.071 407.4C343.22 407.567 343.423 407.711 343.68 407.832C343.941 407.956 344.282 408.018 344.703 408.018C345.267 408.018 345.732 407.882 346.099 407.609C346.465 407.336 346.649 406.909 346.649 406.327V404.909H346.558C346.479 405.036 346.367 405.194 346.221 405.382C346.079 405.567 345.873 405.732 345.603 405.877C345.336 406.02 344.976 406.091 344.521 406.091C343.958 406.091 343.452 405.958 343.003 405.691C342.558 405.424 342.205 405.036 341.944 404.527C341.686 404.018 341.558 403.4 341.558 402.673C341.558 401.958 341.683 401.335 341.935 400.804C342.186 400.271 342.536 399.859 342.985 399.568C343.433 399.274 343.952 399.127 344.539 399.127C344.994 399.127 345.355 399.203 345.621 399.354C345.891 399.503 346.097 399.673 346.239 399.864C346.385 400.051 346.497 400.206 346.576 400.327H346.685V399.218H347.721V406.4C347.721 407 347.585 407.488 347.312 407.864C347.043 408.242 346.679 408.52 346.221 408.695C345.767 408.874 345.261 408.964 344.703 408.964ZM344.667 405.127C345.097 405.127 345.461 405.029 345.758 404.832C346.055 404.635 346.28 404.351 346.435 403.982C346.589 403.612 346.667 403.17 346.667 402.654C346.667 402.151 346.591 401.708 346.439 401.323C346.288 400.938 346.064 400.636 345.767 400.418C345.47 400.2 345.103 400.091 344.667 400.091C344.212 400.091 343.833 400.206 343.53 400.436C343.23 400.667 343.005 400.976 342.853 401.364C342.705 401.751 342.63 402.182 342.63 402.654C342.63 403.139 342.706 403.568 342.858 403.941C343.012 404.311 343.239 404.601 343.539 404.814C343.843 405.023 344.218 405.127 344.667 405.127ZM350.376 408.818C350.194 408.818 350.032 408.803 349.889 408.773C349.747 408.745 349.649 408.718 349.594 408.691L349.867 407.745C350.127 407.812 350.358 407.836 350.558 407.818C350.758 407.8 350.935 407.711 351.089 407.55C351.247 407.392 351.391 407.136 351.521 406.782L351.721 406.236L349.139 399.218H350.303L352.23 404.782H352.303L354.23 399.218H355.394L352.43 407.218C352.297 407.579 352.132 407.877 351.935 408.114C351.738 408.353 351.509 408.53 351.249 408.645C350.991 408.761 350.7 408.818 350.376 408.818ZM365.646 399.218C365.592 398.758 365.371 398.4 364.983 398.145C364.595 397.891 364.119 397.764 363.555 397.764C363.143 397.764 362.783 397.83 362.474 397.964C362.168 398.097 361.928 398.28 361.755 398.514C361.586 398.747 361.501 399.012 361.501 399.309C361.501 399.558 361.56 399.771 361.678 399.95C361.799 400.126 361.954 400.273 362.142 400.391C362.33 400.506 362.527 400.601 362.733 400.677C362.939 400.75 363.128 400.809 363.301 400.854L364.246 401.109C364.489 401.173 364.758 401.261 365.055 401.373C365.355 401.485 365.642 401.638 365.914 401.832C366.19 402.023 366.418 402.268 366.596 402.568C366.775 402.868 366.864 403.236 366.864 403.673C366.864 404.176 366.733 404.63 366.469 405.036C366.208 405.442 365.827 405.765 365.324 406.004C364.824 406.244 364.216 406.364 363.501 406.364C362.834 406.364 362.257 406.256 361.769 406.041C361.284 405.826 360.902 405.526 360.624 405.141C360.348 404.756 360.192 404.309 360.155 403.8H361.319C361.349 404.151 361.468 404.442 361.674 404.673C361.883 404.9 362.146 405.07 362.464 405.182C362.786 405.291 363.131 405.345 363.501 405.345C363.931 405.345 364.318 405.276 364.66 405.136C365.002 404.994 365.274 404.797 365.474 404.545C365.674 404.291 365.774 403.994 365.774 403.654C365.774 403.345 365.687 403.094 365.514 402.9C365.342 402.706 365.114 402.548 364.833 402.427C364.551 402.306 364.246 402.2 363.919 402.109L362.774 401.782C362.046 401.573 361.471 401.274 361.046 400.886C360.622 400.498 360.41 399.991 360.41 399.364C360.41 398.842 360.551 398.388 360.833 398C361.118 397.609 361.499 397.306 361.978 397.091C362.46 396.873 362.998 396.764 363.592 396.764C364.192 396.764 364.725 396.871 365.192 397.086C365.658 397.298 366.028 397.589 366.301 397.959C366.577 398.329 366.722 398.748 366.737 399.218H365.646ZM371.409 406.345C370.754 406.345 370.191 406.191 369.718 405.882C369.245 405.573 368.882 405.147 368.627 404.604C368.372 404.062 368.245 403.442 368.245 402.745C368.245 402.036 368.375 401.411 368.636 400.868C368.9 400.323 369.266 399.897 369.736 399.591C370.209 399.282 370.76 399.127 371.391 399.127C371.882 399.127 372.324 399.218 372.718 399.4C373.112 399.582 373.435 399.836 373.686 400.164C373.938 400.491 374.094 400.873 374.154 401.309H373.082C373 400.991 372.818 400.709 372.536 400.464C372.257 400.215 371.882 400.091 371.409 400.091C370.991 400.091 370.624 400.2 370.309 400.418C369.997 400.633 369.753 400.938 369.577 401.332C369.404 401.723 369.318 402.182 369.318 402.709C369.318 403.248 369.403 403.718 369.572 404.118C369.745 404.518 369.988 404.829 370.3 405.05C370.615 405.271 370.985 405.382 371.409 405.382C371.688 405.382 371.941 405.333 372.168 405.236C372.395 405.139 372.588 405 372.745 404.818C372.903 404.636 373.015 404.418 373.082 404.164H374.154C374.094 404.576 373.944 404.947 373.704 405.277C373.468 405.604 373.154 405.865 372.763 406.059C372.375 406.25 371.924 406.345 371.409 406.345ZM378.559 406.345C377.929 406.345 377.375 406.195 376.9 405.895C376.427 405.595 376.057 405.176 375.791 404.636C375.527 404.097 375.395 403.467 375.395 402.745C375.395 402.018 375.527 401.383 375.791 400.841C376.057 400.298 376.427 399.877 376.9 399.577C377.375 399.277 377.929 399.127 378.559 399.127C379.189 399.127 379.741 399.277 380.213 399.577C380.689 399.877 381.059 400.298 381.322 400.841C381.589 401.383 381.722 402.018 381.722 402.745C381.722 403.467 381.589 404.097 381.322 404.636C381.059 405.176 380.689 405.595 380.213 405.895C379.741 406.195 379.189 406.345 378.559 406.345ZM378.559 405.382C379.038 405.382 379.432 405.259 379.741 405.014C380.05 404.768 380.279 404.445 380.427 404.045C380.575 403.645 380.65 403.212 380.65 402.745C380.65 402.279 380.575 401.844 380.427 401.441C380.279 401.038 380.05 400.712 379.741 400.464C379.432 400.215 379.038 400.091 378.559 400.091C378.08 400.091 377.686 400.215 377.377 400.464C377.068 400.712 376.839 401.038 376.691 401.441C376.542 401.844 376.468 402.279 376.468 402.745C376.468 403.212 376.542 403.645 376.691 404.045C376.839 404.445 377.068 404.768 377.377 405.014C377.686 405.259 378.08 405.382 378.559 405.382ZM383.36 406.2V399.218H384.396V400.273H384.469C384.596 399.927 384.827 399.647 385.16 399.432C385.493 399.217 385.869 399.109 386.287 399.109C386.366 399.109 386.464 399.111 386.583 399.114C386.701 399.117 386.79 399.121 386.851 399.127V400.218C386.814 400.209 386.731 400.195 386.601 400.177C386.474 400.156 386.339 400.145 386.196 400.145C385.857 400.145 385.554 400.217 385.287 400.359C385.024 400.498 384.814 400.692 384.66 400.941C384.508 401.186 384.433 401.467 384.433 401.782V406.2H383.36ZM390.837 406.345C390.164 406.345 389.584 406.197 389.096 405.9C388.611 405.6 388.237 405.182 387.974 404.645C387.713 404.106 387.583 403.479 387.583 402.764C387.583 402.048 387.713 401.418 387.974 400.873C388.237 400.324 388.604 399.897 389.074 399.591C389.546 399.282 390.098 399.127 390.728 399.127C391.092 399.127 391.451 399.188 391.805 399.309C392.16 399.43 392.483 399.627 392.774 399.9C393.064 400.17 393.296 400.527 393.469 400.973C393.642 401.418 393.728 401.967 393.728 402.618V403.073H388.346V402.145H392.637C392.637 401.751 392.558 401.4 392.401 401.091C392.246 400.782 392.025 400.538 391.737 400.359C391.452 400.18 391.116 400.091 390.728 400.091C390.301 400.091 389.931 400.197 389.619 400.409C389.31 400.618 389.072 400.891 388.905 401.227C388.739 401.564 388.655 401.924 388.655 402.309V402.927C388.655 403.454 388.746 403.901 388.928 404.268C389.113 404.632 389.369 404.909 389.696 405.1C390.024 405.288 390.404 405.382 390.837 405.382C391.119 405.382 391.374 405.342 391.601 405.264C391.831 405.182 392.03 405.061 392.196 404.9C392.363 404.736 392.492 404.533 392.583 404.291L393.619 404.582C393.51 404.933 393.327 405.242 393.069 405.509C392.811 405.773 392.493 405.979 392.114 406.127C391.736 406.273 391.31 406.345 390.837 406.345Z" fill="#333333"/>
<path d="M141.861 341.891V351.2H140.734V343.073H140.68L138.407 344.582V343.436L140.734 341.891H141.861Z" fill="#333333"/>
<path d="M226.889 351.2V350.382L229.961 347.018C230.322 346.624 230.619 346.282 230.852 345.991C231.086 345.697 231.258 345.421 231.37 345.164C231.486 344.903 231.543 344.63 231.543 344.345C231.543 344.018 231.464 343.735 231.307 343.495C231.152 343.256 230.94 343.071 230.67 342.941C230.401 342.811 230.098 342.745 229.761 342.745C229.404 342.745 229.092 342.82 228.825 342.968C228.561 343.114 228.357 343.318 228.211 343.582C228.069 343.845 227.998 344.154 227.998 344.509H226.925C226.925 343.964 227.051 343.485 227.302 343.073C227.554 342.661 227.896 342.339 228.33 342.109C228.766 341.879 229.255 341.764 229.798 341.764C230.343 341.764 230.827 341.879 231.248 342.109C231.669 342.339 231.999 342.65 232.239 343.041C232.478 343.432 232.598 343.867 232.598 344.345C232.598 344.688 232.536 345.023 232.411 345.35C232.29 345.674 232.078 346.036 231.775 346.436C231.475 346.833 231.058 347.318 230.525 347.891L228.434 350.127V350.2H232.761V351.2H226.889Z" fill="#333333"/>
<path d="M319.034 351.327C318.434 351.327 317.899 351.224 317.43 351.018C316.963 350.812 316.592 350.526 316.316 350.159C316.043 349.789 315.895 349.361 315.87 348.873H317.016C317.04 349.173 317.143 349.432 317.325 349.65C317.507 349.865 317.745 350.032 318.039 350.15C318.333 350.268 318.658 350.327 319.016 350.327C319.416 350.327 319.77 350.258 320.08 350.118C320.389 349.979 320.631 349.785 320.807 349.536C320.983 349.288 321.07 349 321.07 348.673C321.07 348.33 320.986 348.029 320.816 347.768C320.646 347.504 320.398 347.298 320.07 347.15C319.743 347.001 319.343 346.927 318.87 346.927H318.125V345.927H318.87C319.24 345.927 319.564 345.861 319.843 345.727C320.125 345.594 320.345 345.406 320.502 345.164C320.663 344.921 320.743 344.636 320.743 344.309C320.743 343.994 320.673 343.72 320.534 343.486C320.395 343.253 320.198 343.071 319.943 342.941C319.692 342.811 319.395 342.745 319.052 342.745C318.731 342.745 318.428 342.804 318.143 342.923C317.861 343.038 317.631 343.206 317.452 343.427C317.273 343.645 317.177 343.909 317.161 344.218H316.07C316.089 343.73 316.236 343.303 316.511 342.936C316.787 342.567 317.148 342.279 317.593 342.073C318.042 341.867 318.534 341.764 319.07 341.764C319.646 341.764 320.14 341.88 320.552 342.114C320.964 342.344 321.281 342.648 321.502 343.027C321.723 343.406 321.834 343.815 321.834 344.254C321.834 344.779 321.696 345.226 321.42 345.595C321.148 345.965 320.777 346.221 320.307 346.364V346.436C320.895 346.533 321.354 346.783 321.684 347.186C322.014 347.586 322.18 348.082 322.18 348.673C322.18 349.179 322.042 349.633 321.766 350.036C321.493 350.436 321.12 350.751 320.648 350.982C320.175 351.212 319.637 351.327 319.034 351.327Z" fill="#333333"/>
<path d="M404.839 349.291V348.364L408.93 341.891H409.603V343.327H409.148L406.057 348.218V348.291H411.566V349.291H404.839ZM409.221 351.2V349.009V348.577V341.891H410.294V351.2H409.221Z" fill="#333333"/>
<path d="M497.379 351.327C496.846 351.327 496.365 351.221 495.938 351.009C495.511 350.797 495.168 350.506 494.911 350.136C494.653 349.767 494.512 349.345 494.488 348.873H495.579C495.621 349.294 495.812 349.642 496.152 349.918C496.494 350.191 496.903 350.327 497.379 350.327C497.761 350.327 498.1 350.238 498.397 350.059C498.697 349.88 498.932 349.635 499.102 349.323C499.274 349.008 499.361 348.651 499.361 348.254C499.361 347.848 499.271 347.486 499.093 347.168C498.917 346.847 498.674 346.594 498.365 346.409C498.056 346.224 497.703 346.13 497.306 346.127C497.021 346.124 496.729 346.168 496.429 346.259C496.129 346.347 495.882 346.461 495.688 346.6L494.634 346.473L495.197 341.891H500.034V342.891H496.143L495.815 345.636H495.87C496.061 345.485 496.3 345.359 496.588 345.259C496.876 345.159 497.176 345.109 497.488 345.109C498.058 345.109 498.565 345.245 499.011 345.518C499.459 345.788 499.811 346.158 500.065 346.627C500.323 347.097 500.452 347.633 500.452 348.236C500.452 348.83 500.318 349.361 500.052 349.827C499.788 350.291 499.424 350.658 498.961 350.927C498.497 351.194 497.97 351.327 497.379 351.327Z" fill="#333333"/>
<path d="M77 329.327C76.3152 329.327 75.7318 329.141 75.25 328.768C74.7682 328.392 74.4 327.849 74.1455 327.136C73.8909 326.421 73.7636 325.558 73.7636 324.546C73.7636 323.539 73.8909 322.68 74.1455 321.968C74.403 321.253 74.7727 320.708 75.2545 320.332C75.7394 319.953 76.3212 319.764 77 319.764C77.6788 319.764 78.2591 319.953 78.7409 320.332C79.2258 320.708 79.5955 321.253 79.85 321.968C80.1076 322.68 80.2364 323.539 80.2364 324.546C80.2364 325.558 80.1091 326.421 79.8545 327.136C79.6 327.849 79.2318 328.392 78.75 328.768C78.2682 329.141 77.6848 329.327 77 329.327ZM77 328.327C77.6788 328.327 78.2061 328 78.5818 327.346C78.9576 326.691 79.1455 325.758 79.1455 324.546C79.1455 323.739 79.0591 323.053 78.8864 322.486C78.7167 321.92 78.4712 321.488 78.15 321.191C77.8318 320.894 77.4485 320.746 77 320.746C76.3273 320.746 75.8015 321.077 75.4227 321.741C75.0439 322.402 74.8545 323.336 74.8545 324.546C74.8545 325.352 74.9394 326.036 75.1091 326.6C75.2788 327.164 75.5227 327.592 75.8409 327.886C76.1621 328.18 76.5485 328.327 77 328.327Z" fill="#333333"/>
<path d="M74.2136 279.2V278.382L77.2864 275.018C77.647 274.624 77.9439 274.282 78.1773 273.991C78.4106 273.697 78.5833 273.421 78.6955 273.164C78.8106 272.903 78.8682 272.63 78.8682 272.345C78.8682 272.018 78.7894 271.735 78.6318 271.495C78.4773 271.256 78.2652 271.071 77.9955 270.941C77.7258 270.811 77.4227 270.745 77.0864 270.745C76.7288 270.745 76.4167 270.82 76.15 270.968C75.8864 271.114 75.6818 271.318 75.5364 271.582C75.3939 271.845 75.3227 272.154 75.3227 272.509H74.25C74.25 271.964 74.3758 271.485 74.6273 271.073C74.8788 270.661 75.2212 270.339 75.6545 270.109C76.0909 269.879 76.5803 269.764 77.1227 269.764C77.6682 269.764 78.1515 269.879 78.5727 270.109C78.9939 270.339 79.3242 270.65 79.5636 271.041C79.803 271.432 79.9227 271.867 79.9227 272.345C79.9227 272.688 79.8606 273.023 79.7364 273.35C79.6152 273.674 79.403 274.036 79.1 274.436C78.8 274.833 78.3833 275.318 77.85 275.891L75.7591 278.127V278.2H80.0864V279.2H74.2136Z" fill="#333333"/>
<path d="M73.533 227.291V226.364L77.6239 219.891H78.2966V221.327H77.842L74.7511 226.218V226.291H80.2602V227.291H73.533ZM77.9148 229.2V227.009V226.577V219.891H78.9875V229.2H77.9148Z" fill="#333333"/>
<path d="M77.067 180.327C76.6852 180.321 76.3034 180.248 75.9216 180.109C75.5398 179.97 75.1913 179.735 74.8761 179.405C74.561 179.071 74.308 178.621 74.117 178.055C73.9261 177.485 73.8307 176.77 73.8307 175.909C73.8307 175.085 73.908 174.355 74.0625 173.718C74.217 173.079 74.4413 172.541 74.7352 172.105C75.0292 171.665 75.3837 171.332 75.7989 171.105C76.217 170.877 76.6883 170.764 77.2125 170.764C77.7337 170.764 78.1973 170.868 78.6034 171.077C79.0125 171.283 79.3458 171.571 79.6034 171.941C79.861 172.311 80.0277 172.736 80.1034 173.218H78.9943C78.8913 172.8 78.6913 172.453 78.3943 172.177C78.0973 171.902 77.7034 171.764 77.2125 171.764C76.4913 171.764 75.9231 172.077 75.508 172.705C75.0958 173.332 74.8883 174.212 74.8852 175.345H74.958C75.1277 175.088 75.3292 174.868 75.5625 174.686C75.7989 174.502 76.0595 174.359 76.3443 174.259C76.6292 174.159 76.9307 174.109 77.2489 174.109C77.7822 174.109 78.2701 174.242 78.7125 174.509C79.1549 174.773 79.5095 175.138 79.7761 175.605C80.0428 176.068 80.1761 176.6 80.1761 177.2C80.1761 177.776 80.0473 178.303 79.7898 178.782C79.5322 179.258 79.1701 179.636 78.7034 179.918C78.2398 180.197 77.6943 180.333 77.067 180.327ZM77.067 179.327C77.4489 179.327 77.7913 179.232 78.0943 179.041C78.4004 178.85 78.6413 178.594 78.817 178.273C78.9958 177.952 79.0852 177.594 79.0852 177.2C79.0852 176.815 78.9989 176.465 78.8261 176.15C78.6564 175.832 78.4216 175.579 78.1216 175.391C77.8246 175.203 77.4852 175.109 77.1034 175.109C76.8155 175.109 76.5473 175.167 76.2989 175.282C76.0504 175.394 75.8322 175.548 75.6443 175.745C75.4595 175.942 75.314 176.168 75.208 176.423C75.1019 176.674 75.0489 176.939 75.0489 177.218C75.0489 177.588 75.1352 177.933 75.308 178.255C75.4837 178.576 75.7231 178.835 76.0261 179.032C76.3322 179.229 76.6792 179.327 77.067 179.327Z" fill="#333333"/>
<path d="M77.058 130.327C76.4337 130.327 75.8822 130.217 75.4034 129.995C74.9277 129.771 74.5564 129.464 74.2898 129.073C74.0231 128.679 73.8913 128.23 73.8943 127.727C73.8913 127.333 73.9686 126.97 74.1261 126.636C74.2837 126.3 74.4989 126.02 74.7716 125.795C75.0473 125.568 75.3549 125.424 75.6943 125.364V125.309C75.2489 125.194 74.8943 124.944 74.6307 124.559C74.367 124.171 74.2367 123.73 74.2398 123.236C74.2367 122.764 74.3564 122.341 74.5989 121.968C74.8413 121.595 75.1746 121.302 75.5989 121.086C76.0261 120.871 76.5125 120.764 77.058 120.764C77.5973 120.764 78.0792 120.871 78.5034 121.086C78.9277 121.302 79.261 121.595 79.5034 121.968C79.7489 122.341 79.8731 122.764 79.8761 123.236C79.8731 123.73 79.7383 124.171 79.4716 124.559C79.208 124.944 78.858 125.194 78.4216 125.309V125.364C78.758 125.424 79.061 125.568 79.3307 125.795C79.6004 126.02 79.8155 126.3 79.9761 126.636C80.1367 126.97 80.2186 127.333 80.2216 127.727C80.2186 128.23 80.0822 128.679 79.8125 129.073C79.5458 129.464 79.1746 129.771 78.6989 129.995C78.2261 130.217 77.6792 130.327 77.058 130.327ZM77.058 129.327C77.4792 129.327 77.8428 129.259 78.1489 129.123C78.4549 128.986 78.6913 128.794 78.858 128.545C79.0246 128.297 79.1095 128.006 79.1125 127.673C79.1095 127.321 79.0186 127.011 78.8398 126.741C78.661 126.471 78.417 126.259 78.108 126.105C77.8019 125.95 77.4519 125.873 77.058 125.873C76.661 125.873 76.3064 125.95 75.9943 126.105C75.6852 126.259 75.4413 126.471 75.2625 126.741C75.0867 127.011 75.0004 127.321 75.0034 127.673C75.0004 128.006 75.0807 128.297 75.2443 128.545C75.411 128.794 75.6489 128.986 75.958 129.123C76.267 129.259 76.6337 129.327 77.058 129.327ZM77.058 124.909C77.3913 124.909 77.6867 124.842 77.9443 124.709C78.2049 124.576 78.4095 124.389 78.558 124.15C78.7064 123.911 78.7822 123.63 78.7852 123.309C78.7822 122.994 78.708 122.72 78.5625 122.486C78.417 122.25 78.2155 122.068 77.958 121.941C77.7004 121.811 77.4004 121.745 77.058 121.745C76.7095 121.745 76.4049 121.811 76.1443 121.941C75.8837 122.068 75.6822 122.25 75.5398 122.486C75.3973 122.72 75.3277 122.994 75.3307 123.309C75.3277 123.63 75.3989 123.911 75.5443 124.15C75.6928 124.389 75.8973 124.576 76.158 124.709C76.4186 124.842 76.7186 124.909 77.058 124.909Z" fill="#333333"/>
<path d="M71.2864 71.8909V81.2H70.1591V73.0727H70.1045L67.8318 74.5818V73.4364L70.1591 71.8909H71.2864ZM77 81.3273C76.3152 81.3273 75.7318 81.1409 75.25 80.7682C74.7682 80.3924 74.4 79.8485 74.1455 79.1364C73.8909 78.4212 73.7636 77.5576 73.7636 76.5455C73.7636 75.5394 73.8909 74.6803 74.1455 73.9682C74.403 73.253 74.7727 72.7076 75.2545 72.3318C75.7394 71.953 76.3212 71.7636 77 71.7636C77.6788 71.7636 78.2591 71.953 78.7409 72.3318C79.2258 72.7076 79.5955 73.253 79.85 73.9682C80.1076 74.6803 80.2364 75.5394 80.2364 76.5455C80.2364 77.5576 80.1091 78.4212 79.8545 79.1364C79.6 79.8485 79.2318 80.3924 78.75 80.7682C78.2682 81.1409 77.6848 81.3273 77 81.3273ZM77 80.3273C77.6788 80.3273 78.2061 80 78.5818 79.3455C78.9576 78.6909 79.1455 77.7576 79.1455 76.5455C79.1455 75.7394 79.0591 75.053 78.8864 74.4864C78.7167 73.9197 78.4712 73.4879 78.15 73.1909C77.8318 72.894 77.4485 72.7455 77 72.7455C76.3273 72.7455 75.8015 73.0773 75.4227 73.7409C75.0439 74.4015 74.8545 75.3364 74.8545 76.5455C74.8545 77.3515 74.9394 78.0364 75.1091 78.6C75.2788 79.1636 75.5227 79.5924 75.8409 79.8864C76.1621 80.1803 76.5485 80.3273 77 80.3273Z" fill="#333333"/>
</g>
</g>
</g>
<defs>
<clipPath id="clip0_11_163">
<path d="M32 32H552V432H32V32Z" fill="white"/>
</clipPath>
<clipPath id="clip1_11_163">
<path d="M32 32H552V432H32V32Z" fill="white"/>
</clipPath>
<clipPath id="clip2_11_163">
<path d="M32 32H552V432H32V32Z" fill="white"/>
</clipPath>
</defs>
</svg>
