<svg width="288" height="384" viewBox="0 0 288 384" fill="none" xmlns="http://www.w3.org/2000/svg">
<path d="M264 0C277.255 0 288 10.7452 288 24V360C288 373.255 277.255 384 264 384H24C10.7452 384 0 373.255 0 360V24C0 10.7452 10.7452 0 24 0H264Z" fill="#111827"/>
<path d="M264 0C277.255 0 288 10.7452 288 24V360C288 373.255 277.255 384 264 384H24C10.7452 384 0 373.255 0 360V24C0 10.7452 10.7452 0 24 0H264Z" stroke="#E5E7EB"/>
<path d="M264 8C272.837 8 280 15.1634 280 24V360C280 368.837 272.837 376 264 376H24C15.1634 376 8 368.837 8 360V24C8 15.1634 15.1634 8 24 8H264Z" fill="white"/>
<path d="M264 8C272.837 8 280 15.1634 280 24V360C280 368.837 272.837 376 264 376H24C15.1634 376 8 368.837 8 360V24C8 15.1634 15.1634 8 24 8H264Z" stroke="#E5E7EB"/>
<path d="M256 72H32V32H256V72Z" stroke="#E5E7EB"/>
<path d="M52 32C63.0457 32 72 40.9543 72 52C72 63.0457 63.0457 72 52 72C40.9543 72 32 63.0457 32 52C32 40.9543 40.9543 32 52 32Z" fill="#87A96B"/>
<path d="M52 32C63.0457 32 72 40.9543 72 52C72 63.0457 63.0457 72 52 72C40.9543 72 32 63.0457 32 52C32 40.9543 40.9543 32 52 32Z" stroke="#E5E7EB"/>
<path d="M60 64H44V40H60V64Z" stroke="#E5E7EB"/>
<path d="M60 59H44V43H60V59Z" stroke="#E5E7EB"/>
<path d="M52.5 46C50.0437 46 47.9656 47.6094 47.2594 49.8281C48.3094 49.2969 49.4938 49 50.75 49H53.5C53.775 49 54 49.225 54 49.5C54 49.775 53.775 50 53.5 50H53H50.75C50.2312 50 49.7281 50.0594 49.2438 50.1688C48.4344 50.3531 47.6813 50.6813 47.0125 51.1281C45.1969 52.3375 44 54.4031 44 56.75V57.25C44 57.6656 44.3344 58 44.75 58C45.1656 58 45.5 57.6656 45.5 57.25V56.75C45.5 55.2281 46.1469 53.8594 47.1813 52.9C47.8 55.2594 49.9469 57 52.5 57H52.5312C56.6594 56.9781 60 52.9094 60 47.8938C60 46.5625 59.7656 45.2969 59.3406 44.1563C59.2594 43.9406 58.9438 43.95 58.8344 44.1531C58.2469 45.2531 57.0844 46 55.75 46H52.5Z" fill="white"/>
<path d="M239.203 70H84V34H239.203V70Z" stroke="#E5E7EB"/>
<path d="M92.092 42.252C92.092 42.7747 91.966 43.2647 91.714 43.722C91.4713 44.1793 91.084 44.548 90.552 44.828C90.0293 45.108 89.3667 45.248 88.564 45.248H86.926V49H84.966V39.228H88.564C89.32 39.228 89.964 39.3587 90.496 39.62C91.028 39.8813 91.4247 40.2407 91.686 40.698C91.9567 41.1553 92.092 41.6733 92.092 42.252ZM88.48 43.666C89.0213 43.666 89.4227 43.5447 89.684 43.302C89.9453 43.05 90.076 42.7 90.076 42.252C90.076 41.3 89.544 40.824 88.48 40.824H86.926V43.666H88.48ZM92.9796 45.094C92.9796 44.31 93.1336 43.6147 93.4416 43.008C93.7589 42.4013 94.1836 41.9347 94.7156 41.608C95.2569 41.2813 95.8589 41.118 96.5216 41.118C97.1002 41.118 97.6042 41.2347 98.0336 41.468C98.4722 41.7013 98.8222 41.9953 99.0836 42.35V41.244H101.058V49H99.0836V47.866C98.8316 48.23 98.4816 48.5333 98.0336 48.776C97.5949 49.0093 97.0862 49.126 96.5076 49.126C95.8542 49.126 95.2569 48.958 94.7156 48.622C94.1836 48.286 93.7589 47.8147 93.4416 47.208C93.1336 46.592 92.9796 45.8873 92.9796 45.094ZM99.0836 45.122C99.0836 44.646 98.9902 44.24 98.8036 43.904C98.6169 43.5587 98.3649 43.2973 98.0476 43.12C97.7302 42.9333 97.3896 42.84 97.0256 42.84C96.6616 42.84 96.3256 42.9287 96.0176 43.106C95.7096 43.2833 95.4576 43.5447 95.2616 43.89C95.0749 44.226 94.9816 44.6273 94.9816 45.094C94.9816 45.5607 95.0749 45.9713 95.2616 46.326C95.4576 46.6713 95.7096 46.9373 96.0176 47.124C96.3349 47.3107 96.6709 47.404 97.0256 47.404C97.3896 47.404 97.7302 47.3153 98.0476 47.138C98.3649 46.9513 98.6169 46.69 98.8036 46.354C98.9902 46.0087 99.0836 45.598 99.0836 45.122ZM107.27 41.132C108.194 41.132 108.941 41.426 109.51 42.014C110.079 42.5927 110.364 43.4047 110.364 44.45V49H108.404V44.716C108.404 44.1 108.25 43.6287 107.942 43.302C107.634 42.966 107.214 42.798 106.682 42.798C106.141 42.798 105.711 42.966 105.394 43.302C105.086 43.6287 104.932 44.1 104.932 44.716V49H102.972V41.244H104.932V42.21C105.193 41.874 105.525 41.6127 105.926 41.426C106.337 41.23 106.785 41.132 107.27 41.132ZM111.724 45.122C111.724 44.3193 111.887 43.6193 112.214 43.022C112.54 42.4153 112.993 41.9487 113.572 41.622C114.15 41.286 114.813 41.118 115.56 41.118C116.521 41.118 117.314 41.3607 117.94 41.846C118.574 42.322 118.999 42.994 119.214 43.862H117.1C116.988 43.526 116.796 43.2647 116.526 43.078C116.264 42.882 115.938 42.784 115.546 42.784C114.986 42.784 114.542 42.9893 114.216 43.4C113.889 43.8013 113.726 44.3753 113.726 45.122C113.726 45.8593 113.889 46.4333 114.216 46.844C114.542 47.2453 114.986 47.446 115.546 47.446C116.339 47.446 116.857 47.0913 117.1 46.382H119.214C118.999 47.222 118.574 47.8893 117.94 48.384C117.305 48.8787 116.512 49.126 115.56 49.126C114.813 49.126 114.15 48.9627 113.572 48.636C112.993 48.3 112.54 47.8333 112.214 47.236C111.887 46.6293 111.724 45.9247 111.724 45.122ZM125.018 41.132C125.606 41.132 126.128 41.2627 126.586 41.524C127.043 41.776 127.398 42.154 127.65 42.658C127.911 43.1527 128.042 43.75 128.042 44.45V49H126.082V44.716C126.082 44.1 125.928 43.6287 125.62 43.302C125.312 42.966 124.892 42.798 124.36 42.798C123.818 42.798 123.389 42.966 123.072 43.302C122.764 43.6287 122.61 44.1 122.61 44.716V49H120.65V38.64H122.61V42.21C122.862 41.874 123.198 41.6127 123.618 41.426C124.038 41.23 124.504 41.132 125.018 41.132ZM129.401 45.094C129.401 44.31 129.555 43.6147 129.863 43.008C130.181 42.4013 130.605 41.9347 131.137 41.608C131.679 41.2813 132.281 41.118 132.943 41.118C133.522 41.118 134.026 41.2347 134.455 41.468C134.894 41.7013 135.244 41.9953 135.505 42.35V41.244H137.479V49H135.505V47.866C135.253 48.23 134.903 48.5333 134.455 48.776C134.017 49.0093 133.508 49.126 132.929 49.126C132.276 49.126 131.679 48.958 131.137 48.622C130.605 48.286 130.181 47.8147 129.863 47.208C129.555 46.592 129.401 45.8873 129.401 45.094ZM135.505 45.122C135.505 44.646 135.412 44.24 135.225 43.904C135.039 43.5587 134.787 43.2973 134.469 43.12C134.152 42.9333 133.811 42.84 133.447 42.84C133.083 42.84 132.747 42.9287 132.439 43.106C132.131 43.2833 131.879 43.5447 131.683 43.89C131.497 44.226 131.403 44.6273 131.403 45.094C131.403 45.5607 131.497 45.9713 131.683 46.326C131.879 46.6713 132.131 46.9373 132.439 47.124C132.757 47.3107 133.093 47.404 133.447 47.404C133.811 47.404 134.152 47.3153 134.469 47.138C134.787 46.9513 135.039 46.69 135.225 46.354C135.412 46.0087 135.505 45.598 135.505 45.122ZM143.986 49L141.354 45.696V49H139.394V38.64H141.354V44.534L143.958 41.244H146.506L143.09 45.136L146.534 49H143.986ZM147.066 45.094C147.066 44.31 147.22 43.6147 147.528 43.008C147.845 42.4013 148.27 41.9347 148.802 41.608C149.343 41.2813 149.945 41.118 150.608 41.118C151.186 41.118 151.69 41.2347 152.12 41.468C152.558 41.7013 152.908 41.9953 153.17 42.35V41.244H155.144V49H153.17V47.866C152.918 48.23 152.568 48.5333 152.12 48.776C151.681 49.0093 151.172 49.126 150.594 49.126C149.94 49.126 149.343 48.958 148.802 48.622C148.27 48.286 147.845 47.8147 147.528 47.208C147.22 46.592 147.066 45.8873 147.066 45.094ZM153.17 45.122C153.17 44.646 153.076 44.24 152.89 43.904C152.703 43.5587 152.451 43.2973 152.134 43.12C151.816 42.9333 151.476 42.84 151.112 42.84C150.748 42.84 150.412 42.9287 150.104 43.106C149.796 43.2833 149.544 43.5447 149.348 43.89C149.161 44.226 149.068 44.6273 149.068 45.094C149.068 45.5607 149.161 45.9713 149.348 46.326C149.544 46.6713 149.796 46.9373 150.104 47.124C150.421 47.3107 150.757 47.404 151.112 47.404C151.476 47.404 151.816 47.3153 152.134 47.138C152.451 46.9513 152.703 46.69 152.89 46.354C153.076 46.0087 153.17 45.598 153.17 45.122ZM159.018 42.448C159.27 42.0373 159.596 41.7153 159.998 41.482C160.408 41.2487 160.875 41.132 161.398 41.132V43.19H160.88C160.264 43.19 159.797 43.3347 159.48 43.624C159.172 43.9133 159.018 44.4173 159.018 45.136V49H157.058V41.244H159.018V42.448ZM172.35 41.132C173.302 41.132 174.067 41.426 174.646 42.014C175.234 42.5927 175.528 43.4047 175.528 44.45V49H173.568V44.716C173.568 44.1093 173.414 43.6473 173.106 43.33C172.798 43.0033 172.378 42.84 171.846 42.84C171.314 42.84 170.889 43.0033 170.572 43.33C170.264 43.6473 170.11 44.1093 170.11 44.716V49H168.15V44.716C168.15 44.1093 167.996 43.6473 167.688 43.33C167.38 43.0033 166.96 42.84 166.428 42.84C165.887 42.84 165.457 43.0033 165.14 43.33C164.832 43.6473 164.678 44.1093 164.678 44.716V49H162.718V41.244H164.678V42.182C164.93 41.8553 165.252 41.5987 165.644 41.412C166.045 41.2253 166.484 41.132 166.96 41.132C167.567 41.132 168.108 41.2627 168.584 41.524C169.06 41.776 169.429 42.14 169.69 42.616C169.942 42.168 170.306 41.8087 170.782 41.538C171.267 41.2673 171.79 41.132 172.35 41.132ZM176.884 45.094C176.884 44.31 177.038 43.6147 177.346 43.008C177.663 42.4013 178.088 41.9347 178.62 41.608C179.161 41.2813 179.763 41.118 180.426 41.118C181.005 41.118 181.509 41.2347 181.938 41.468C182.377 41.7013 182.727 41.9953 182.988 42.35V41.244H184.962V49H182.988V47.866C182.736 48.23 182.386 48.5333 181.938 48.776C181.499 49.0093 180.991 49.126 180.412 49.126C179.759 49.126 179.161 48.958 178.62 48.622C178.088 48.286 177.663 47.8147 177.346 47.208C177.038 46.592 176.884 45.8873 176.884 45.094ZM182.988 45.122C182.988 44.646 182.895 44.24 182.708 43.904C182.521 43.5587 182.269 43.2973 181.952 43.12C181.635 42.9333 181.294 42.84 180.93 42.84C180.566 42.84 180.23 42.9287 179.922 43.106C179.614 43.2833 179.362 43.5447 179.166 43.89C178.979 44.226 178.886 44.6273 178.886 45.094C178.886 45.5607 178.979 45.9713 179.166 46.326C179.362 46.6713 179.614 46.9373 179.922 47.124C180.239 47.3107 180.575 47.404 180.93 47.404C181.294 47.404 181.635 47.3153 181.952 47.138C182.269 46.9513 182.521 46.69 182.708 46.354C182.895 46.0087 182.988 45.598 182.988 45.122ZM192.868 47.138H188.976L188.332 49H186.274L189.788 39.214H192.07L195.584 49H193.512L192.868 47.138ZM192.336 45.57L190.922 41.482L189.508 45.57H192.336ZM198.858 39.228V49H196.898V39.228H198.858Z" fill="black"/>
<path d="M90.78 57.636L88.056 62.844V66H86.964V62.844L84.228 57.636H85.44L87.504 61.872L89.568 57.636H90.78ZM94.7998 66.108C94.1838 66.108 93.6238 65.968 93.1198 65.688C92.6238 65.408 92.2318 65.012 91.9438 64.5C91.6638 63.98 91.5238 63.38 91.5238 62.7C91.5238 62.028 91.6678 61.436 91.9558 60.924C92.2518 60.404 92.6518 60.008 93.1558 59.736C93.6598 59.456 94.2238 59.316 94.8478 59.316C95.4718 59.316 96.0358 59.456 96.5398 59.736C97.0438 60.008 97.4398 60.4 97.7278 60.912C98.0238 61.424 98.1718 62.02 98.1718 62.7C98.1718 63.38 98.0198 63.98 97.7158 64.5C97.4198 65.012 97.0158 65.408 96.5038 65.688C95.9918 65.968 95.4238 66.108 94.7998 66.108ZM94.7998 65.148C95.1918 65.148 95.5598 65.056 95.9038 64.872C96.2478 64.688 96.5238 64.412 96.7318 64.044C96.9478 63.676 97.0558 63.228 97.0558 62.7C97.0558 62.172 96.9518 61.724 96.7438 61.356C96.5358 60.988 96.2638 60.716 95.9278 60.54C95.5918 60.356 95.2278 60.264 94.8358 60.264C94.4358 60.264 94.0678 60.356 93.7318 60.54C93.4038 60.716 93.1398 60.988 92.9398 61.356C92.7398 61.724 92.6398 62.172 92.6398 62.7C92.6398 63.236 92.7358 63.688 92.9278 64.056C93.1278 64.424 93.3918 64.7 93.7198 64.884C94.0478 65.06 94.4078 65.148 94.7998 65.148ZM105.44 59.424V66H104.348V65.028C104.14 65.364 103.848 65.628 103.472 65.82C103.104 66.004 102.696 66.096 102.248 66.096C101.736 66.096 101.276 65.992 100.868 65.784C100.46 65.568 100.136 65.248 99.8956 64.824C99.6636 64.4 99.5476 63.884 99.5476 63.276V59.424H100.628V63.132C100.628 63.78 100.792 64.28 101.12 64.632C101.448 64.976 101.896 65.148 102.464 65.148C103.048 65.148 103.508 64.968 103.844 64.608C104.18 64.248 104.348 63.724 104.348 63.036V59.424H105.44ZM108.375 60.492C108.567 60.116 108.839 59.824 109.191 59.616C109.551 59.408 109.987 59.304 110.499 59.304V60.432H110.211C108.987 60.432 108.375 61.096 108.375 62.424V66H107.283V59.424H108.375V60.492ZM123.719 59.424L121.667 66H120.539L118.955 60.78L117.371 66H116.243L114.179 59.424H115.295L116.807 64.944L118.439 59.424H119.555L121.151 64.956L122.639 59.424H123.719ZM130.803 62.46C130.803 62.668 130.791 62.888 130.767 63.12H125.511C125.551 63.768 125.771 64.276 126.171 64.644C126.579 65.004 127.071 65.184 127.647 65.184C128.119 65.184 128.511 65.076 128.823 64.86C129.143 64.636 129.367 64.34 129.495 63.972H130.671C130.495 64.604 130.143 65.12 129.615 65.52C129.087 65.912 128.431 66.108 127.647 66.108C127.023 66.108 126.463 65.968 125.967 65.688C125.479 65.408 125.095 65.012 124.815 64.5C124.535 63.98 124.395 63.38 124.395 62.7C124.395 62.02 124.531 61.424 124.803 60.912C125.075 60.4 125.455 60.008 125.943 59.736C126.439 59.456 127.007 59.316 127.647 59.316C128.271 59.316 128.823 59.452 129.303 59.724C129.783 59.996 130.151 60.372 130.407 60.852C130.671 61.324 130.803 61.86 130.803 62.46ZM129.675 62.232C129.675 61.816 129.583 61.46 129.399 61.164C129.215 60.86 128.963 60.632 128.643 60.48C128.331 60.32 127.983 60.24 127.599 60.24C127.047 60.24 126.575 60.416 126.183 60.768C125.799 61.12 125.579 61.608 125.523 62.232H129.675ZM133.336 57.12V66H132.244V57.12H133.336ZM136.289 57.12V66H135.197V57.12H136.289ZM141.355 59.304C142.155 59.304 142.803 59.548 143.299 60.036C143.795 60.516 144.043 61.212 144.043 62.124V66H142.963V62.28C142.963 61.624 142.799 61.124 142.471 60.78C142.143 60.428 141.695 60.252 141.127 60.252C140.551 60.252 140.091 60.432 139.747 60.792C139.411 61.152 139.243 61.676 139.243 62.364V66H138.151V59.424H139.243V60.36C139.459 60.024 139.751 59.764 140.119 59.58C140.495 59.396 140.907 59.304 141.355 59.304ZM151.826 62.46C151.826 62.668 151.814 62.888 151.79 63.12H146.534C146.574 63.768 146.794 64.276 147.194 64.644C147.602 65.004 148.094 65.184 148.67 65.184C149.142 65.184 149.534 65.076 149.846 64.86C150.166 64.636 150.39 64.34 150.518 63.972H151.694C151.518 64.604 151.166 65.12 150.638 65.52C150.11 65.912 149.454 66.108 148.67 66.108C148.046 66.108 147.486 65.968 146.99 65.688C146.502 65.408 146.118 65.012 145.838 64.5C145.558 63.98 145.418 63.38 145.418 62.7C145.418 62.02 145.554 61.424 145.826 60.912C146.098 60.4 146.478 60.008 146.966 59.736C147.462 59.456 148.03 59.316 148.67 59.316C149.294 59.316 149.846 59.452 150.326 59.724C150.806 59.996 151.174 60.372 151.43 60.852C151.694 61.324 151.826 61.86 151.826 62.46ZM150.698 62.232C150.698 61.816 150.606 61.46 150.422 61.164C150.238 60.86 149.986 60.632 149.666 60.48C149.354 60.32 149.006 60.24 148.622 60.24C148.07 60.24 147.598 60.416 147.206 60.768C146.822 61.12 146.602 61.608 146.546 62.232H150.698ZM155.596 66.108C155.092 66.108 154.64 66.024 154.24 65.856C153.84 65.68 153.524 65.44 153.292 65.136C153.06 64.824 152.932 64.468 152.908 64.068H154.036C154.068 64.396 154.22 64.664 154.492 64.872C154.772 65.08 155.136 65.184 155.584 65.184C156 65.184 156.328 65.092 156.568 64.908C156.808 64.724 156.928 64.492 156.928 64.212C156.928 63.924 156.8 63.712 156.544 63.576C156.288 63.432 155.892 63.292 155.356 63.156C154.868 63.028 154.468 62.9 154.156 62.772C153.852 62.636 153.588 62.44 153.364 62.184C153.148 61.92 153.04 61.576 153.04 61.152C153.04 60.816 153.14 60.508 153.34 60.228C153.54 59.948 153.824 59.728 154.192 59.568C154.56 59.4 154.98 59.316 155.452 59.316C156.18 59.316 156.768 59.5 157.216 59.868C157.664 60.236 157.904 60.74 157.936 61.38H156.844C156.82 61.036 156.68 60.76 156.424 60.552C156.176 60.344 155.84 60.24 155.416 60.24C155.024 60.24 154.712 60.324 154.48 60.492C154.248 60.66 154.132 60.88 154.132 61.152C154.132 61.368 154.2 61.548 154.336 61.692C154.48 61.828 154.656 61.94 154.864 62.028C155.08 62.108 155.376 62.2 155.752 62.304C156.224 62.432 156.608 62.56 156.904 62.688C157.2 62.808 157.452 62.992 157.66 63.24C157.876 63.488 157.988 63.812 157.996 64.212C157.996 64.572 157.896 64.896 157.696 65.184C157.496 65.472 157.212 65.7 156.844 65.868C156.484 66.028 156.068 66.108 155.596 66.108ZM161.865 66.108C161.361 66.108 160.909 66.024 160.509 65.856C160.109 65.68 159.793 65.44 159.561 65.136C159.329 64.824 159.201 64.468 159.177 64.068H160.305C160.337 64.396 160.489 64.664 160.761 64.872C161.041 65.08 161.405 65.184 161.853 65.184C162.269 65.184 162.597 65.092 162.837 64.908C163.077 64.724 163.197 64.492 163.197 64.212C163.197 63.924 163.069 63.712 162.813 63.576C162.557 63.432 162.161 63.292 161.625 63.156C161.137 63.028 160.737 62.9 160.425 62.772C160.121 62.636 159.857 62.44 159.633 62.184C159.417 61.92 159.309 61.576 159.309 61.152C159.309 60.816 159.409 60.508 159.609 60.228C159.809 59.948 160.093 59.728 160.461 59.568C160.829 59.4 161.249 59.316 161.721 59.316C162.449 59.316 163.037 59.5 163.485 59.868C163.933 60.236 164.173 60.74 164.205 61.38H163.113C163.089 61.036 162.949 60.76 162.693 60.552C162.445 60.344 162.109 60.24 161.685 60.24C161.293 60.24 160.981 60.324 160.749 60.492C160.517 60.66 160.401 60.88 160.401 61.152C160.401 61.368 160.469 61.548 160.605 61.692C160.749 61.828 160.925 61.94 161.133 62.028C161.349 62.108 161.645 62.2 162.021 62.304C162.493 62.432 162.877 62.56 163.173 62.688C163.469 62.808 163.721 62.992 163.929 63.24C164.145 63.488 164.257 63.812 164.265 64.212C164.265 64.572 164.165 64.896 163.965 65.184C163.765 65.472 163.481 65.7 163.113 65.868C162.753 66.028 162.337 66.108 161.865 66.108ZM168.598 62.7C168.598 62.02 168.734 61.428 169.006 60.924C169.278 60.412 169.654 60.016 170.134 59.736C170.622 59.456 171.178 59.316 171.802 59.316C172.61 59.316 173.274 59.512 173.794 59.904C174.322 60.296 174.67 60.84 174.838 61.536H173.662C173.55 61.136 173.33 60.82 173.002 60.588C172.682 60.356 172.282 60.24 171.802 60.24C171.178 60.24 170.674 60.456 170.29 60.888C169.906 61.312 169.714 61.916 169.714 62.7C169.714 63.492 169.906 64.104 170.29 64.536C170.674 64.968 171.178 65.184 171.802 65.184C172.282 65.184 172.682 65.072 173.002 64.848C173.322 64.624 173.542 64.304 173.662 63.888H174.838C174.662 64.56 174.31 65.1 173.782 65.508C173.254 65.908 172.594 66.108 171.802 66.108C171.178 66.108 170.622 65.968 170.134 65.688C169.654 65.408 169.278 65.012 169.006 64.5C168.734 63.988 168.598 63.388 168.598 62.7ZM179.163 66.108C178.547 66.108 177.987 65.968 177.483 65.688C176.987 65.408 176.595 65.012 176.307 64.5C176.027 63.98 175.887 63.38 175.887 62.7C175.887 62.028 176.031 61.436 176.319 60.924C176.615 60.404 177.015 60.008 177.519 59.736C178.023 59.456 178.587 59.316 179.211 59.316C179.835 59.316 180.399 59.456 180.903 59.736C181.407 60.008 181.803 60.4 182.091 60.912C182.387 61.424 182.535 62.02 182.535 62.7C182.535 63.38 182.383 63.98 182.079 64.5C181.783 65.012 181.379 65.408 180.867 65.688C180.355 65.968 179.787 66.108 179.163 66.108ZM179.163 65.148C179.555 65.148 179.923 65.056 180.267 64.872C180.611 64.688 180.887 64.412 181.095 64.044C181.311 63.676 181.419 63.228 181.419 62.7C181.419 62.172 181.315 61.724 181.107 61.356C180.899 60.988 180.627 60.716 180.291 60.54C179.955 60.356 179.591 60.264 179.199 60.264C178.799 60.264 178.431 60.356 178.095 60.54C177.767 60.716 177.503 60.988 177.303 61.356C177.103 61.724 177.003 62.172 177.003 62.7C177.003 63.236 177.099 63.688 177.291 64.056C177.491 64.424 177.755 64.7 178.083 64.884C178.411 65.06 178.771 65.148 179.163 65.148ZM191.879 59.304C192.391 59.304 192.847 59.412 193.247 59.628C193.647 59.836 193.963 60.152 194.195 60.576C194.427 61 194.543 61.516 194.543 62.124V66H193.463V62.28C193.463 61.624 193.299 61.124 192.971 60.78C192.651 60.428 192.215 60.252 191.663 60.252C191.095 60.252 190.643 60.436 190.307 60.804C189.971 61.164 189.803 61.688 189.803 62.376V66H188.723V62.28C188.723 61.624 188.559 61.124 188.231 60.78C187.911 60.428 187.475 60.252 186.923 60.252C186.355 60.252 185.903 60.436 185.567 60.804C185.231 61.164 185.063 61.688 185.063 62.376V66H183.971V59.424H185.063V60.372C185.279 60.028 185.567 59.764 185.927 59.58C186.295 59.396 186.699 59.304 187.139 59.304C187.691 59.304 188.179 59.428 188.603 59.676C189.027 59.924 189.343 60.288 189.551 60.768C189.735 60.304 190.039 59.944 190.463 59.688C190.887 59.432 191.359 59.304 191.879 59.304ZM197.426 60.636C197.642 60.26 197.962 59.948 198.386 59.7C198.818 59.444 199.318 59.316 199.886 59.316C200.47 59.316 200.998 59.456 201.47 59.736C201.95 60.016 202.326 60.412 202.598 60.924C202.87 61.428 203.006 62.016 203.006 62.688C203.006 63.352 202.87 63.944 202.598 64.464C202.326 64.984 201.95 65.388 201.47 65.676C200.998 65.964 200.47 66.108 199.886 66.108C199.326 66.108 198.83 65.984 198.398 65.736C197.974 65.48 197.65 65.164 197.426 64.788V69.12H196.334V59.424H197.426V60.636ZM201.89 62.688C201.89 62.192 201.79 61.76 201.59 61.392C201.39 61.024 201.118 60.744 200.774 60.552C200.438 60.36 200.066 60.264 199.658 60.264C199.258 60.264 198.886 60.364 198.542 60.564C198.206 60.756 197.934 61.04 197.726 61.416C197.526 61.784 197.426 62.212 197.426 62.7C197.426 63.196 197.526 63.632 197.726 64.008C197.934 64.376 198.206 64.66 198.542 64.86C198.886 65.052 199.258 65.148 199.658 65.148C200.066 65.148 200.438 65.052 200.774 64.86C201.118 64.66 201.39 64.376 201.59 64.008C201.79 63.632 201.89 63.192 201.89 62.688ZM204.036 62.688C204.036 62.016 204.172 61.428 204.444 60.924C204.716 60.412 205.088 60.016 205.56 59.736C206.04 59.456 206.572 59.316 207.156 59.316C207.732 59.316 208.232 59.44 208.656 59.688C209.08 59.936 209.396 60.248 209.604 60.624V59.424H210.708V66H209.604V64.776C209.388 65.16 209.064 65.48 208.632 65.736C208.208 65.984 207.712 66.108 207.144 66.108C206.56 66.108 206.032 65.964 205.56 65.676C205.088 65.388 204.716 64.984 204.444 64.464C204.172 63.944 204.036 63.352 204.036 62.688ZM209.604 62.7C209.604 62.204 209.504 61.772 209.304 61.404C209.104 61.036 208.832 60.756 208.488 60.564C208.152 60.364 207.78 60.264 207.372 60.264C206.964 60.264 206.592 60.36 206.256 60.552C205.92 60.744 205.652 61.024 205.452 61.392C205.252 61.76 205.152 62.192 205.152 62.688C205.152 63.192 205.252 63.632 205.452 64.008C205.652 64.376 205.92 64.66 206.256 64.86C206.592 65.052 206.964 65.148 207.372 65.148C207.78 65.148 208.152 65.052 208.488 64.86C208.832 64.66 209.104 64.376 209.304 64.008C209.504 63.632 209.604 63.196 209.604 62.7ZM215.757 59.304C216.557 59.304 217.205 59.548 217.701 60.036C218.197 60.516 218.445 61.212 218.445 62.124V66H217.365V62.28C217.365 61.624 217.201 61.124 216.873 60.78C216.545 60.428 216.097 60.252 215.529 60.252C214.953 60.252 214.493 60.432 214.149 60.792C213.813 61.152 213.645 61.676 213.645 62.364V66H212.553V59.424H213.645V60.36C213.861 60.024 214.153 59.764 214.521 59.58C214.897 59.396 215.309 59.304 215.757 59.304ZM220.793 58.356C220.585 58.356 220.409 58.284 220.265 58.14C220.121 57.996 220.049 57.82 220.049 57.612C220.049 57.404 220.121 57.228 220.265 57.084C220.409 56.94 220.585 56.868 220.793 56.868C220.993 56.868 221.161 56.94 221.297 57.084C221.441 57.228 221.513 57.404 221.513 57.612C221.513 57.82 221.441 57.996 221.297 58.14C221.161 58.284 220.993 58.356 220.793 58.356ZM221.321 59.424V66H220.229V59.424H221.321ZM226.05 66.108C225.434 66.108 224.874 65.968 224.37 65.688C223.874 65.408 223.482 65.012 223.194 64.5C222.914 63.98 222.774 63.38 222.774 62.7C222.774 62.028 222.918 61.436 223.206 60.924C223.502 60.404 223.902 60.008 224.406 59.736C224.91 59.456 225.474 59.316 226.098 59.316C226.722 59.316 227.286 59.456 227.79 59.736C228.294 60.008 228.69 60.4 228.978 60.912C229.274 61.424 229.422 62.02 229.422 62.7C229.422 63.38 229.27 63.98 228.966 64.5C228.67 65.012 228.266 65.408 227.754 65.688C227.242 65.968 226.674 66.108 226.05 66.108ZM226.05 65.148C226.442 65.148 226.81 65.056 227.154 64.872C227.498 64.688 227.774 64.412 227.982 64.044C228.198 63.676 228.306 63.228 228.306 62.7C228.306 62.172 228.202 61.724 227.994 61.356C227.786 60.988 227.514 60.716 227.178 60.54C226.842 60.356 226.478 60.264 226.086 60.264C225.686 60.264 225.318 60.356 224.982 60.54C224.654 60.716 224.39 60.988 224.19 61.356C223.99 61.724 223.89 62.172 223.89 62.7C223.89 63.236 223.986 63.688 224.178 64.056C224.378 64.424 224.642 64.7 224.97 64.884C225.298 65.06 225.658 65.148 226.05 65.148ZM234.062 59.304C234.862 59.304 235.51 59.548 236.006 60.036C236.502 60.516 236.75 61.212 236.75 62.124V66H235.67V62.28C235.67 61.624 235.506 61.124 235.178 60.78C234.85 60.428 234.402 60.252 233.834 60.252C233.258 60.252 232.798 60.432 232.454 60.792C232.118 61.152 231.95 61.676 231.95 62.364V66H230.858V59.424H231.95V60.36C232.166 60.024 232.458 59.764 232.826 59.58C233.202 59.396 233.614 59.304 234.062 59.304Z" fill="#6B7280"/>
<path d="M256 352H32V96H256V352Z" stroke="#E5E7EB"/>
<path d="M248 96C252.418 96 256 99.5817 256 104V144C256 148.418 252.418 152 248 152H40C35.5817 152 32 148.418 32 144V104C32 99.5817 35.5817 96 40 96H248Z" fill="#87A96B" fill-opacity="0.1"/>
<path d="M248 96C252.418 96 256 99.5817 256 104V144C256 148.418 252.418 152 248 152H40C35.5817 152 32 148.418 32 144V104C32 99.5817 35.5817 96 40 96H248Z" stroke="#E5E7EB"/>
<path d="M244 124H44V108H244V124Z" stroke="#E5E7EB"/>
<path d="M47.648 120.084C47.088 120.084 46.584 119.988 46.136 119.796C45.688 119.596 45.336 119.316 45.08 118.956C44.824 118.596 44.696 118.176 44.696 117.696H46.16C46.192 118.056 46.332 118.352 46.58 118.584C46.836 118.816 47.192 118.932 47.648 118.932C48.12 118.932 48.488 118.82 48.752 118.596C49.016 118.364 49.148 118.068 49.148 117.708C49.148 117.428 49.064 117.2 48.896 117.024C48.736 116.848 48.532 116.712 48.284 116.616C48.044 116.52 47.708 116.416 47.276 116.304C46.732 116.16 46.288 116.016 45.944 115.872C45.608 115.72 45.32 115.488 45.08 115.176C44.84 114.864 44.72 114.448 44.72 113.928C44.72 113.448 44.84 113.028 45.08 112.668C45.32 112.308 45.656 112.032 46.088 111.84C46.52 111.648 47.02 111.552 47.588 111.552C48.396 111.552 49.056 111.756 49.568 112.164C50.088 112.564 50.376 113.116 50.432 113.82H48.92C48.896 113.516 48.752 113.256 48.488 113.04C48.224 112.824 47.876 112.716 47.444 112.716C47.052 112.716 46.732 112.816 46.484 113.016C46.236 113.216 46.112 113.504 46.112 113.88C46.112 114.136 46.188 114.348 46.34 114.516C46.5 114.676 46.7 114.804 46.94 114.9C47.18 114.996 47.508 115.1 47.924 115.212C48.476 115.364 48.924 115.516 49.268 115.668C49.62 115.82 49.916 116.056 50.156 116.376C50.404 116.688 50.528 117.108 50.528 117.636C50.528 118.06 50.412 118.46 50.18 118.836C49.956 119.212 49.624 119.516 49.184 119.748C48.752 119.972 48.24 120.084 47.648 120.084ZM58.2022 116.532C58.2022 116.78 58.1862 117.004 58.1542 117.204H53.1022C53.1422 117.732 53.3382 118.156 53.6902 118.476C54.0422 118.796 54.4742 118.956 54.9862 118.956C55.7222 118.956 56.2422 118.648 56.5462 118.032H58.0222C57.8222 118.64 57.4582 119.14 56.9302 119.532C56.4102 119.916 55.7622 120.108 54.9862 120.108C54.3542 120.108 53.7862 119.968 53.2822 119.688C52.7862 119.4 52.3942 119 52.1062 118.488C51.8262 117.968 51.6862 117.368 51.6862 116.688C51.6862 116.008 51.8222 115.412 52.0942 114.9C52.3742 114.38 52.7622 113.98 53.2582 113.7C53.7622 113.42 54.3382 113.28 54.9862 113.28C55.6102 113.28 56.1662 113.416 56.6542 113.688C57.1422 113.96 57.5222 114.344 57.7942 114.84C58.0662 115.328 58.2022 115.892 58.2022 116.532ZM56.7742 116.1C56.7662 115.596 56.5862 115.192 56.2342 114.888C55.8822 114.584 55.4462 114.432 54.9262 114.432C54.4542 114.432 54.0502 114.584 53.7142 114.888C53.3782 115.184 53.1782 115.588 53.1142 116.1H56.7742ZM61.9484 120.108C61.4284 120.108 60.9604 120.016 60.5444 119.832C60.1364 119.64 59.8124 119.384 59.5724 119.064C59.3324 118.736 59.2044 118.372 59.1884 117.972H60.6044C60.6284 118.252 60.7604 118.488 61.0004 118.68C61.2484 118.864 61.5564 118.956 61.9244 118.956C62.3084 118.956 62.6044 118.884 62.8124 118.74C63.0284 118.588 63.1364 118.396 63.1364 118.164C63.1364 117.916 63.0164 117.732 62.7764 117.612C62.5444 117.492 62.1724 117.36 61.6604 117.216C61.1644 117.08 60.7604 116.948 60.4484 116.82C60.1364 116.692 59.8644 116.496 59.6324 116.232C59.4084 115.968 59.2964 115.62 59.2964 115.188C59.2964 114.836 59.4004 114.516 59.6084 114.228C59.8164 113.932 60.1124 113.7 60.4964 113.532C60.8884 113.364 61.3364 113.28 61.8404 113.28C62.5924 113.28 63.1964 113.472 63.6524 113.856C64.1164 114.232 64.3644 114.748 64.3964 115.404H63.0284C63.0044 115.108 62.8844 114.872 62.6684 114.696C62.4524 114.52 62.1604 114.432 61.7924 114.432C61.4324 114.432 61.1564 114.5 60.9644 114.636C60.7724 114.772 60.6764 114.952 60.6764 115.176C60.6764 115.352 60.7404 115.5 60.8684 115.62C60.9964 115.74 61.1524 115.836 61.3364 115.908C61.5204 115.972 61.7924 116.056 62.1524 116.16C62.6324 116.288 63.0244 116.42 63.3284 116.556C63.6404 116.684 63.9084 116.876 64.1324 117.132C64.3564 117.388 64.4724 117.728 64.4804 118.152C64.4804 118.528 64.3764 118.864 64.1684 119.16C63.9604 119.456 63.6644 119.688 63.2804 119.856C62.9044 120.024 62.4604 120.108 61.9484 120.108ZM68.3586 120.108C67.8386 120.108 67.3706 120.016 66.9546 119.832C66.5466 119.64 66.2226 119.384 65.9826 119.064C65.7426 118.736 65.6146 118.372 65.5986 117.972H67.0146C67.0386 118.252 67.1706 118.488 67.4106 118.68C67.6586 118.864 67.9666 118.956 68.3346 118.956C68.7186 118.956 69.0146 118.884 69.2226 118.74C69.4386 118.588 69.5466 118.396 69.5466 118.164C69.5466 117.916 69.4266 117.732 69.1866 117.612C68.9546 117.492 68.5826 117.36 68.0706 117.216C67.5746 117.08 67.1706 116.948 66.8586 116.82C66.5466 116.692 66.2746 116.496 66.0426 116.232C65.8186 115.968 65.7066 115.62 65.7066 115.188C65.7066 114.836 65.8106 114.516 66.0186 114.228C66.2266 113.932 66.5226 113.7 66.9066 113.532C67.2986 113.364 67.7466 113.28 68.2506 113.28C69.0026 113.28 69.6066 113.472 70.0626 113.856C70.5266 114.232 70.7746 114.748 70.8066 115.404H69.4386C69.4146 115.108 69.2946 114.872 69.0786 114.696C68.8626 114.52 68.5706 114.432 68.2026 114.432C67.8426 114.432 67.5666 114.5 67.3746 114.636C67.1826 114.772 67.0866 114.952 67.0866 115.176C67.0866 115.352 67.1506 115.5 67.2786 115.62C67.4066 115.74 67.5626 115.836 67.7466 115.908C67.9306 115.972 68.2026 116.056 68.5626 116.16C69.0426 116.288 69.4346 116.42 69.7386 116.556C70.0506 116.684 70.3186 116.876 70.5426 117.132C70.7666 117.388 70.8826 117.728 70.8906 118.152C70.8906 118.528 70.7866 118.864 70.5786 119.16C70.3706 119.456 70.0746 119.688 69.6906 119.856C69.3146 120.024 68.8706 120.108 68.3586 120.108ZM73.0648 112.512C72.8168 112.512 72.6088 112.428 72.4408 112.26C72.2728 112.092 72.1888 111.884 72.1888 111.636C72.1888 111.388 72.2728 111.18 72.4408 111.012C72.6088 110.844 72.8168 110.76 73.0648 110.76C73.3048 110.76 73.5088 110.844 73.6768 111.012C73.8448 111.18 73.9288 111.388 73.9288 111.636C73.9288 111.884 73.8448 112.092 73.6768 112.26C73.5088 112.428 73.3048 112.512 73.0648 112.512ZM73.7368 113.388V120H72.3688V113.388H73.7368ZM78.4008 120.108C77.7768 120.108 77.2128 119.968 76.7088 119.688C76.2048 119.4 75.8088 119 75.5208 118.488C75.2328 117.968 75.0888 117.368 75.0888 116.688C75.0888 116.016 75.2368 115.42 75.5328 114.9C75.8288 114.38 76.2328 113.98 76.7448 113.7C77.2568 113.42 77.8288 113.28 78.4608 113.28C79.0928 113.28 79.6648 113.42 80.1768 113.7C80.6888 113.98 81.0928 114.38 81.3888 114.9C81.6848 115.42 81.8328 116.016 81.8328 116.688C81.8328 117.36 81.6808 117.956 81.3768 118.476C81.0728 118.996 80.6568 119.4 80.1288 119.688C79.6088 119.968 79.0328 120.108 78.4008 120.108ZM78.4008 118.92C78.7528 118.92 79.0808 118.836 79.3848 118.668C79.6968 118.5 79.9488 118.248 80.1408 117.912C80.3328 117.576 80.4288 117.168 80.4288 116.688C80.4288 116.208 80.3368 115.804 80.1528 115.476C79.9688 115.14 79.7248 114.888 79.4208 114.72C79.1168 114.552 78.7888 114.468 78.4368 114.468C78.0848 114.468 77.7568 114.552 77.4528 114.72C77.1568 114.888 76.9208 115.14 76.7448 115.476C76.5688 115.804 76.4808 116.208 76.4808 116.688C76.4808 117.4 76.6608 117.952 77.0208 118.344C77.3888 118.728 77.8488 118.92 78.4008 118.92ZM86.5212 113.28C87.0412 113.28 87.5052 113.388 87.9132 113.604C88.3292 113.82 88.6532 114.14 88.8852 114.564C89.1172 114.988 89.2332 115.5 89.2332 116.1V120H87.8772V116.304C87.8772 115.712 87.7292 115.26 87.4332 114.948C87.1372 114.628 86.7332 114.468 86.2212 114.468C85.7092 114.468 85.3012 114.628 84.9972 114.948C84.7012 115.26 84.5532 115.712 84.5532 116.304V120H83.1852V113.388H84.5532V114.144C84.7772 113.872 85.0612 113.66 85.4052 113.508C85.7572 113.356 86.1292 113.28 86.5212 113.28ZM98.4273 120L96.5073 116.664H95.4633V120H94.0953V111.66H96.9753C97.6153 111.66 98.1553 111.772 98.5953 111.996C99.0433 112.22 99.3753 112.52 99.5913 112.896C99.8153 113.272 99.9273 113.692 99.9273 114.156C99.9273 114.7 99.7673 115.196 99.4473 115.644C99.1353 116.084 98.6513 116.384 97.9953 116.544L100.059 120H98.4273ZM95.4633 115.572H96.9753C97.4873 115.572 97.8713 115.444 98.1273 115.188C98.3913 114.932 98.5233 114.588 98.5233 114.156C98.5233 113.724 98.3953 113.388 98.1393 113.148C97.8833 112.9 97.4953 112.776 96.9753 112.776H95.4633V115.572ZM107.737 116.532C107.737 116.78 107.721 117.004 107.689 117.204H102.637C102.677 117.732 102.873 118.156 103.225 118.476C103.577 118.796 104.009 118.956 104.521 118.956C105.257 118.956 105.777 118.648 106.081 118.032H107.557C107.357 118.64 106.993 119.14 106.465 119.532C105.945 119.916 105.297 120.108 104.521 120.108C103.889 120.108 103.321 119.968 102.817 119.688C102.321 119.4 101.929 119 101.641 118.488C101.361 117.968 101.221 117.368 101.221 116.688C101.221 116.008 101.357 115.412 101.629 114.9C101.909 114.38 102.297 113.98 102.793 113.7C103.297 113.42 103.873 113.28 104.521 113.28C105.145 113.28 105.701 113.416 106.189 113.688C106.677 113.96 107.057 114.344 107.329 114.84C107.601 115.328 107.737 115.892 107.737 116.532ZM106.309 116.1C106.301 115.596 106.121 115.192 105.769 114.888C105.417 114.584 104.981 114.432 104.461 114.432C103.989 114.432 103.585 114.584 103.249 114.888C102.913 115.184 102.713 115.588 102.649 116.1H106.309ZM117.088 113.28C117.608 113.28 118.072 113.388 118.48 113.604C118.896 113.82 119.22 114.14 119.452 114.564C119.692 114.988 119.812 115.5 119.812 116.1V120H118.456V116.304C118.456 115.712 118.308 115.26 118.012 114.948C117.716 114.628 117.312 114.468 116.8 114.468C116.288 114.468 115.88 114.628 115.576 114.948C115.28 115.26 115.132 115.712 115.132 116.304V120H113.776V116.304C113.776 115.712 113.628 115.26 113.332 114.948C113.036 114.628 112.632 114.468 112.12 114.468C111.608 114.468 111.2 114.628 110.896 114.948C110.6 115.26 110.452 115.712 110.452 116.304V120H109.084V113.388H110.452V114.144C110.676 113.872 110.96 113.66 111.304 113.508C111.648 113.356 112.016 113.28 112.408 113.28C112.936 113.28 113.408 113.392 113.824 113.616C114.24 113.84 114.56 114.164 114.784 114.588C114.984 114.188 115.296 113.872 115.72 113.64C116.144 113.4 116.6 113.28 117.088 113.28ZM122.248 112.512C122 112.512 121.792 112.428 121.624 112.26C121.456 112.092 121.372 111.884 121.372 111.636C121.372 111.388 121.456 111.18 121.624 111.012C121.792 110.844 122 110.76 122.248 110.76C122.488 110.76 122.692 110.844 122.86 111.012C123.028 111.18 123.112 111.388 123.112 111.636C123.112 111.884 123.028 112.092 122.86 112.26C122.692 112.428 122.488 112.512 122.248 112.512ZM122.92 113.388V120H121.552V113.388H122.92ZM128.052 113.28C128.572 113.28 129.036 113.388 129.444 113.604C129.86 113.82 130.184 114.14 130.416 114.564C130.648 114.988 130.764 115.5 130.764 116.1V120H129.408V116.304C129.408 115.712 129.26 115.26 128.964 114.948C128.668 114.628 128.264 114.468 127.752 114.468C127.24 114.468 126.832 114.628 126.528 114.948C126.232 115.26 126.084 115.712 126.084 116.304V120H124.716V113.388H126.084V114.144C126.308 113.872 126.592 113.66 126.936 113.508C127.288 113.356 127.66 113.28 128.052 113.28ZM132.053 116.664C132.053 116 132.189 115.412 132.461 114.9C132.741 114.388 133.117 113.992 133.589 113.712C134.069 113.424 134.601 113.28 135.185 113.28C135.617 113.28 136.041 113.376 136.457 113.568C136.881 113.752 137.217 114 137.465 114.312V111.12H138.845V120H137.465V119.004C137.241 119.324 136.929 119.588 136.529 119.796C136.137 120.004 135.685 120.108 135.173 120.108C134.597 120.108 134.069 119.964 133.589 119.676C133.117 119.38 132.741 118.972 132.461 118.452C132.189 117.924 132.053 117.328 132.053 116.664ZM137.465 116.688C137.465 116.232 137.369 115.836 137.177 115.5C136.993 115.164 136.749 114.908 136.445 114.732C136.141 114.556 135.813 114.468 135.461 114.468C135.109 114.468 134.781 114.556 134.477 114.732C134.173 114.9 133.925 115.152 133.733 115.488C133.549 115.816 133.457 116.208 133.457 116.664C133.457 117.12 133.549 117.52 133.733 117.864C133.925 118.208 134.173 118.472 134.477 118.656C134.789 118.832 135.117 118.92 135.461 118.92C135.813 118.92 136.141 118.832 136.445 118.656C136.749 118.48 136.993 118.224 137.177 117.888C137.369 117.544 137.465 117.144 137.465 116.688ZM146.702 116.532C146.702 116.78 146.686 117.004 146.654 117.204H141.602C141.642 117.732 141.838 118.156 142.19 118.476C142.542 118.796 142.974 118.956 143.486 118.956C144.222 118.956 144.742 118.648 145.046 118.032H146.522C146.322 118.64 145.958 119.14 145.43 119.532C144.91 119.916 144.262 120.108 143.486 120.108C142.854 120.108 142.286 119.968 141.782 119.688C141.286 119.4 140.894 119 140.606 118.488C140.326 117.968 140.186 117.368 140.186 116.688C140.186 116.008 140.322 115.412 140.594 114.9C140.874 114.38 141.262 113.98 141.758 113.7C142.262 113.42 142.838 113.28 143.486 113.28C144.11 113.28 144.666 113.416 145.154 113.688C145.642 113.96 146.022 114.344 146.294 114.84C146.566 115.328 146.702 115.892 146.702 116.532ZM145.274 116.1C145.266 115.596 145.086 115.192 144.734 114.888C144.382 114.584 143.946 114.432 143.426 114.432C142.954 114.432 142.55 114.584 142.214 114.888C141.878 115.184 141.678 115.588 141.614 116.1H145.274ZM149.416 114.348C149.616 114.012 149.88 113.752 150.208 113.568C150.544 113.376 150.94 113.28 151.396 113.28V114.696H151.048C150.512 114.696 150.104 114.832 149.824 115.104C149.552 115.376 149.416 115.848 149.416 116.52V120H148.048V113.388H149.416V114.348Z" fill="#4A5D23"/>
<path d="M244 140H44V124H244V140Z" stroke="#E5E7EB"/>
<path d="M50.072 127.636V128.524H47.792V136H46.7V128.524H44.408V127.636H50.072ZM54.2842 136.108C53.6682 136.108 53.1082 135.968 52.6042 135.688C52.1082 135.408 51.7162 135.012 51.4282 134.5C51.1482 133.98 51.0082 133.38 51.0082 132.7C51.0082 132.028 51.1522 131.436 51.4402 130.924C51.7362 130.404 52.1362 130.008 52.6402 129.736C53.1442 129.456 53.7082 129.316 54.3322 129.316C54.9562 129.316 55.5202 129.456 56.0242 129.736C56.5282 130.008 56.9242 130.4 57.2122 130.912C57.5082 131.424 57.6562 132.02 57.6562 132.7C57.6562 133.38 57.5042 133.98 57.2002 134.5C56.9042 135.012 56.5002 135.408 55.9882 135.688C55.4762 135.968 54.9082 136.108 54.2842 136.108ZM54.2842 135.148C54.6762 135.148 55.0442 135.056 55.3882 134.872C55.7322 134.688 56.0082 134.412 56.2162 134.044C56.4322 133.676 56.5402 133.228 56.5402 132.7C56.5402 132.172 56.4362 131.724 56.2282 131.356C56.0202 130.988 55.7482 130.716 55.4122 130.54C55.0762 130.356 54.7122 130.264 54.3202 130.264C53.9202 130.264 53.5522 130.356 53.2162 130.54C52.8882 130.716 52.6242 130.988 52.4242 131.356C52.2242 131.724 52.1242 132.172 52.1242 132.7C52.1242 133.236 52.2202 133.688 52.4122 134.056C52.6122 134.424 52.8762 134.7 53.2042 134.884C53.5322 135.06 53.8922 135.148 54.2842 135.148ZM67 129.304C67.512 129.304 67.968 129.412 68.368 129.628C68.768 129.836 69.084 130.152 69.316 130.576C69.548 131 69.664 131.516 69.664 132.124V136H68.584V132.28C68.584 131.624 68.42 131.124 68.092 130.78C67.772 130.428 67.336 130.252 66.784 130.252C66.216 130.252 65.764 130.436 65.428 130.804C65.092 131.164 64.924 131.688 64.924 132.376V136H63.844V132.28C63.844 131.624 63.68 131.124 63.352 130.78C63.032 130.428 62.596 130.252 62.044 130.252C61.476 130.252 61.024 130.436 60.688 130.804C60.352 131.164 60.184 131.688 60.184 132.376V136H59.092V129.424H60.184V130.372C60.4 130.028 60.688 129.764 61.048 129.58C61.416 129.396 61.82 129.304 62.26 129.304C62.812 129.304 63.3 129.428 63.724 129.676C64.148 129.924 64.464 130.288 64.672 130.768C64.856 130.304 65.16 129.944 65.584 129.688C66.008 129.432 66.48 129.304 67 129.304ZM74.3233 136.108C73.7073 136.108 73.1473 135.968 72.6433 135.688C72.1473 135.408 71.7553 135.012 71.4673 134.5C71.1873 133.98 71.0473 133.38 71.0473 132.7C71.0473 132.028 71.1913 131.436 71.4793 130.924C71.7753 130.404 72.1753 130.008 72.6793 129.736C73.1833 129.456 73.7473 129.316 74.3713 129.316C74.9953 129.316 75.5593 129.456 76.0633 129.736C76.5673 130.008 76.9633 130.4 77.2513 130.912C77.5473 131.424 77.6953 132.02 77.6953 132.7C77.6953 133.38 77.5433 133.98 77.2393 134.5C76.9433 135.012 76.5393 135.408 76.0273 135.688C75.5153 135.968 74.9473 136.108 74.3233 136.108ZM74.3233 135.148C74.7153 135.148 75.0833 135.056 75.4273 134.872C75.7713 134.688 76.0473 134.412 76.2553 134.044C76.4713 133.676 76.5793 133.228 76.5793 132.7C76.5793 132.172 76.4753 131.724 76.2673 131.356C76.0593 130.988 75.7873 130.716 75.4513 130.54C75.1153 130.356 74.7513 130.264 74.3593 130.264C73.9593 130.264 73.5913 130.356 73.2553 130.54C72.9273 130.716 72.6633 130.988 72.4633 131.356C72.2633 131.724 72.1633 132.172 72.1633 132.7C72.1633 133.236 72.2593 133.688 72.4513 134.056C72.6513 134.424 72.9153 134.7 73.2433 134.884C73.5713 135.06 73.9313 135.148 74.3233 135.148ZM80.223 130.492C80.415 130.116 80.687 129.824 81.039 129.616C81.399 129.408 81.835 129.304 82.347 129.304V130.432H82.059C80.835 130.432 80.223 131.096 80.223 132.424V136H79.131V129.424H80.223V130.492ZM84.6996 130.492C84.8916 130.116 85.1636 129.824 85.5156 129.616C85.8756 129.408 86.3116 129.304 86.8236 129.304V130.432H86.5356C85.3116 130.432 84.6996 131.096 84.6996 132.424V136H83.6076V129.424H84.6996V130.492ZM90.9522 136.108C90.3362 136.108 89.7762 135.968 89.2722 135.688C88.7762 135.408 88.3842 135.012 88.0962 134.5C87.8162 133.98 87.6762 133.38 87.6762 132.7C87.6762 132.028 87.8202 131.436 88.1082 130.924C88.4042 130.404 88.8042 130.008 89.3082 129.736C89.8122 129.456 90.3762 129.316 91.0002 129.316C91.6242 129.316 92.1882 129.456 92.6922 129.736C93.1962 130.008 93.5922 130.4 93.8802 130.912C94.1762 131.424 94.3242 132.02 94.3242 132.7C94.3242 133.38 94.1722 133.98 93.8682 134.5C93.5722 135.012 93.1682 135.408 92.6562 135.688C92.1442 135.968 91.5762 136.108 90.9522 136.108ZM90.9522 135.148C91.3442 135.148 91.7122 135.056 92.0562 134.872C92.4002 134.688 92.6762 134.412 92.8842 134.044C93.1002 133.676 93.2082 133.228 93.2082 132.7C93.2082 132.172 93.1042 131.724 92.8962 131.356C92.6882 130.988 92.4162 130.716 92.0802 130.54C91.7442 130.356 91.3802 130.264 90.9882 130.264C90.5882 130.264 90.2202 130.356 89.8842 130.54C89.5562 130.716 89.2922 130.988 89.0922 131.356C88.8922 131.724 88.7922 132.172 88.7922 132.7C88.7922 133.236 88.8882 133.688 89.0802 134.056C89.2802 134.424 89.5442 134.7 89.8722 134.884C90.2002 135.06 90.5602 135.148 90.9522 135.148ZM104.52 129.424L102.468 136H101.34L99.7559 130.78L98.1719 136H97.0439L94.9799 129.424H96.0959L97.6079 134.944L99.2399 129.424H100.356L101.952 134.956L103.44 129.424H104.52ZM108.395 132.688C108.395 132.016 108.531 131.428 108.803 130.924C109.075 130.412 109.447 130.016 109.919 129.736C110.399 129.456 110.931 129.316 111.515 129.316C112.091 129.316 112.591 129.44 113.015 129.688C113.439 129.936 113.755 130.248 113.963 130.624V129.424H115.067V136H113.963V134.776C113.747 135.16 113.423 135.48 112.991 135.736C112.567 135.984 112.071 136.108 111.503 136.108C110.919 136.108 110.391 135.964 109.919 135.676C109.447 135.388 109.075 134.984 108.803 134.464C108.531 133.944 108.395 133.352 108.395 132.688ZM113.963 132.7C113.963 132.204 113.863 131.772 113.663 131.404C113.463 131.036 113.191 130.756 112.847 130.564C112.511 130.364 112.139 130.264 111.731 130.264C111.323 130.264 110.951 130.36 110.615 130.552C110.279 130.744 110.011 131.024 109.811 131.392C109.611 131.76 109.511 132.192 109.511 132.688C109.511 133.192 109.611 133.632 109.811 134.008C110.011 134.376 110.279 134.66 110.615 134.86C110.951 135.052 111.323 135.148 111.731 135.148C112.139 135.148 112.511 135.052 112.847 134.86C113.191 134.66 113.463 134.376 113.663 134.008C113.863 133.632 113.963 133.196 113.963 132.7ZM118.244 130.324V134.2C118.244 134.52 118.312 134.748 118.448 134.884C118.584 135.012 118.82 135.076 119.156 135.076H119.96V136H118.976C118.368 136 117.912 135.86 117.608 135.58C117.304 135.3 117.152 134.84 117.152 134.2V130.324H116.3V129.424H117.152V127.768H118.244V129.424H119.96V130.324H118.244ZM124.015 128.32V127.324H126.271V136H125.167V128.32H124.015ZM128.146 131.572C128.146 130.196 128.37 129.124 128.818 128.356C129.266 127.58 130.05 127.192 131.17 127.192C132.282 127.192 133.062 127.58 133.51 128.356C133.958 129.124 134.182 130.196 134.182 131.572C134.182 132.972 133.958 134.06 133.51 134.836C133.062 135.612 132.282 136 131.17 136C130.05 136 129.266 135.612 128.818 134.836C128.37 134.06 128.146 132.972 128.146 131.572ZM133.102 131.572C133.102 130.876 133.054 130.288 132.958 129.808C132.87 129.32 132.682 128.928 132.394 128.632C132.114 128.336 131.706 128.188 131.17 128.188C130.626 128.188 130.21 128.336 129.922 128.632C129.642 128.928 129.454 129.32 129.358 129.808C129.27 130.288 129.226 130.876 129.226 131.572C129.226 132.292 129.27 132.896 129.358 133.384C129.454 133.872 129.642 134.264 129.922 134.56C130.21 134.856 130.626 135.004 131.17 135.004C131.706 135.004 132.114 134.856 132.394 134.56C132.682 134.264 132.87 133.872 132.958 133.384C133.054 132.896 133.102 132.292 133.102 131.572ZM136.21 136.072C136.002 136.072 135.826 136 135.682 135.856C135.538 135.712 135.466 135.536 135.466 135.328C135.466 135.12 135.538 134.944 135.682 134.8C135.826 134.656 136.002 134.584 136.21 134.584C136.41 134.584 136.578 134.656 136.714 134.8C136.858 134.944 136.93 135.12 136.93 135.328C136.93 135.536 136.858 135.712 136.714 135.856C136.578 136 136.41 136.072 136.21 136.072ZM136.21 130.936C136.002 130.936 135.826 130.864 135.682 130.72C135.538 130.576 135.466 130.4 135.466 130.192C135.466 129.984 135.538 129.808 135.682 129.664C135.826 129.52 136.002 129.448 136.21 129.448C136.41 129.448 136.578 129.52 136.714 129.664C136.858 129.808 136.93 129.984 136.93 130.192C136.93 130.4 136.858 130.576 136.714 130.72C136.578 130.864 136.41 130.936 136.21 130.936ZM138.236 131.572C138.236 130.196 138.46 129.124 138.908 128.356C139.356 127.58 140.14 127.192 141.26 127.192C142.372 127.192 143.152 127.58 143.6 128.356C144.048 129.124 144.272 130.196 144.272 131.572C144.272 132.972 144.048 134.06 143.6 134.836C143.152 135.612 142.372 136 141.26 136C140.14 136 139.356 135.612 138.908 134.836C138.46 134.06 138.236 132.972 138.236 131.572ZM143.192 131.572C143.192 130.876 143.144 130.288 143.048 129.808C142.96 129.32 142.772 128.928 142.484 128.632C142.204 128.336 141.796 128.188 141.26 128.188C140.716 128.188 140.3 128.336 140.012 128.632C139.732 128.928 139.544 129.32 139.448 129.808C139.36 130.288 139.316 130.876 139.316 131.572C139.316 132.292 139.36 132.896 139.448 133.384C139.544 133.872 139.732 134.264 140.012 134.56C140.3 134.856 140.716 135.004 141.26 135.004C141.796 135.004 142.204 134.856 142.484 134.56C142.772 134.264 142.96 133.872 143.048 133.384C143.144 132.896 143.192 132.292 143.192 131.572ZM145.771 131.572C145.771 130.196 145.995 129.124 146.443 128.356C146.891 127.58 147.675 127.192 148.795 127.192C149.907 127.192 150.687 127.58 151.135 128.356C151.583 129.124 151.807 130.196 151.807 131.572C151.807 132.972 151.583 134.06 151.135 134.836C150.687 135.612 149.907 136 148.795 136C147.675 136 146.891 135.612 146.443 134.836C145.995 134.06 145.771 132.972 145.771 131.572ZM150.727 131.572C150.727 130.876 150.679 130.288 150.583 129.808C150.495 129.32 150.307 128.928 150.019 128.632C149.739 128.336 149.331 128.188 148.795 128.188C148.251 128.188 147.835 128.336 147.547 128.632C147.267 128.928 147.079 129.32 146.983 129.808C146.895 130.288 146.851 130.876 146.851 131.572C146.851 132.292 146.895 132.896 146.983 133.384C147.079 133.872 147.267 134.264 147.547 134.56C147.835 134.856 148.251 135.004 148.795 135.004C149.331 135.004 149.739 134.856 150.019 134.56C150.307 134.264 150.495 133.872 150.583 133.384C150.679 132.896 150.727 132.292 150.727 131.572ZM161.63 134.14H157.982L157.31 136H156.158L159.182 127.684H160.442L163.454 136H162.302L161.63 134.14ZM161.318 133.252L159.806 129.028L158.294 133.252H161.318ZM173.256 127.696V136H172.164V129.808L169.404 136H168.636L165.864 129.796V136H164.772V127.696H165.948L169.02 134.56L172.092 127.696H173.256Z" fill="#4B5563"/>
<path d="M248 168C252.418 168 256 171.582 256 176V216C256 220.418 252.418 224 248 224H40C35.5817 224 32 220.418 32 216V176C32 171.582 35.5817 168 40 168H248Z" fill="#87A96B" fill-opacity="0.1"/>
<path d="M248 168C252.418 168 256 171.582 256 176V216C256 220.418 252.418 224 248 224H40C35.5817 224 32 220.418 32 216V176C32 171.582 35.5817 168 40 168H248Z" stroke="#E5E7EB"/>
<path d="M244 196H44V180H244V196Z" stroke="#E5E7EB"/>
<path d="M47.624 183.66C48.512 183.66 49.288 183.832 49.952 184.176C50.624 184.512 51.14 185 51.5 185.64C51.868 186.272 52.052 187.012 52.052 187.86C52.052 188.708 51.868 189.444 51.5 190.068C51.14 190.692 50.624 191.172 49.952 191.508C49.288 191.836 48.512 192 47.624 192H44.9V183.66H47.624ZM47.624 190.884C48.6 190.884 49.348 190.62 49.868 190.092C50.388 189.564 50.648 188.82 50.648 187.86C50.648 186.892 50.388 186.136 49.868 185.592C49.348 185.048 48.6 184.776 47.624 184.776H46.268V190.884H47.624ZM52.9518 188.664C52.9518 188 53.0878 187.412 53.3598 186.9C53.6398 186.388 54.0158 185.992 54.4878 185.712C54.9678 185.424 55.4958 185.28 56.0718 185.28C56.5918 185.28 57.0438 185.384 57.4278 185.592C57.8198 185.792 58.1318 186.044 58.3638 186.348V185.388H59.7438V192H58.3638V191.016C58.1318 191.328 57.8158 191.588 57.4158 191.796C57.0158 192.004 56.5598 192.108 56.0478 192.108C55.4798 192.108 54.9598 191.964 54.4878 191.676C54.0158 191.38 53.6398 190.972 53.3598 190.452C53.0878 189.924 52.9518 189.328 52.9518 188.664ZM58.3638 188.688C58.3638 188.232 58.2678 187.836 58.0758 187.5C57.8918 187.164 57.6478 186.908 57.3438 186.732C57.0398 186.556 56.7118 186.468 56.3598 186.468C56.0078 186.468 55.6798 186.556 55.3758 186.732C55.0718 186.9 54.8238 187.152 54.6318 187.488C54.4478 187.816 54.3558 188.208 54.3558 188.664C54.3558 189.12 54.4478 189.52 54.6318 189.864C54.8238 190.208 55.0718 190.472 55.3758 190.656C55.6878 190.832 56.0158 190.92 56.3598 190.92C56.7118 190.92 57.0398 190.832 57.3438 190.656C57.6478 190.48 57.8918 190.224 58.0758 189.888C58.2678 189.544 58.3638 189.144 58.3638 188.688ZM62.2366 184.512C61.9886 184.512 61.7806 184.428 61.6126 184.26C61.4446 184.092 61.3606 183.884 61.3606 183.636C61.3606 183.388 61.4446 183.18 61.6126 183.012C61.7806 182.844 61.9886 182.76 62.2366 182.76C62.4766 182.76 62.6806 182.844 62.8486 183.012C63.0166 183.18 63.1006 183.388 63.1006 183.636C63.1006 183.884 63.0166 184.092 62.8486 184.26C62.6806 184.428 62.4766 184.512 62.2366 184.512ZM62.9086 185.388V192H61.5406V185.388H62.9086ZM66.0727 183.12V192H64.7047V183.12H66.0727ZM73.8208 185.388L69.7648 195.108H68.3488L69.6928 191.892L67.0888 185.388H68.6128L70.4728 190.428L72.4048 185.388H73.8208ZM83.3583 183.66V184.776H81.1383V192H79.7703V184.776H77.5383V183.66H83.3583ZM85.4398 184.512C85.1918 184.512 84.9838 184.428 84.8158 184.26C84.6478 184.092 84.5638 183.884 84.5638 183.636C84.5638 183.388 84.6478 183.18 84.8158 183.012C84.9838 182.844 85.1918 182.76 85.4398 182.76C85.6798 182.76 85.8838 182.844 86.0518 183.012C86.2198 183.18 86.3038 183.388 86.3038 183.636C86.3038 183.884 86.2198 184.092 86.0518 184.26C85.8838 184.428 85.6798 184.512 85.4398 184.512ZM86.1118 185.388V192H84.7438V185.388H86.1118ZM89.2758 186.36C89.5078 186.056 89.8238 185.8 90.2238 185.592C90.6238 185.384 91.0758 185.28 91.5798 185.28C92.1558 185.28 92.6798 185.424 93.1518 185.712C93.6318 185.992 94.0078 186.388 94.2798 186.9C94.5518 187.412 94.6878 188 94.6878 188.664C94.6878 189.328 94.5518 189.924 94.2798 190.452C94.0078 190.972 93.6318 191.38 93.1518 191.676C92.6798 191.964 92.1558 192.108 91.5798 192.108C91.0758 192.108 90.6278 192.008 90.2358 191.808C89.8438 191.6 89.5238 191.344 89.2758 191.04V195.144H87.9078V185.388H89.2758V186.36ZM93.2958 188.664C93.2958 188.208 93.1998 187.816 93.0078 187.488C92.8238 187.152 92.5758 186.9 92.2638 186.732C91.9598 186.556 91.6318 186.468 91.2798 186.468C90.9358 186.468 90.6078 186.556 90.2958 186.732C89.9918 186.908 89.7438 187.164 89.5518 187.5C89.3678 187.836 89.2758 188.232 89.2758 188.688C89.2758 189.144 89.3678 189.544 89.5518 189.888C89.7438 190.224 89.9918 190.48 90.2958 190.656C90.6078 190.832 90.9358 190.92 91.2798 190.92C91.6318 190.92 91.9598 190.832 92.2638 190.656C92.5758 190.472 92.8238 190.208 93.0078 189.864C93.1998 189.52 93.2958 189.12 93.2958 188.664Z" fill="#4A5D23"/>
<path d="M244 212H44V196H244V212Z" stroke="#E5E7EB"/>
<path d="M47.528 199.636C48.44 199.636 49.228 199.808 49.892 200.152C50.564 200.488 51.076 200.972 51.428 201.604C51.788 202.236 51.968 202.98 51.968 203.836C51.968 204.692 51.788 205.436 51.428 206.068C51.076 206.692 50.564 207.172 49.892 207.508C49.228 207.836 48.44 208 47.528 208H44.924V199.636H47.528ZM47.528 207.1C48.608 207.1 49.432 206.816 50 206.248C50.568 205.672 50.852 204.868 50.852 203.836C50.852 202.796 50.564 201.984 49.988 201.4C49.42 200.816 48.6 200.524 47.528 200.524H46.016V207.1H47.528ZM54.5004 202.492C54.6924 202.116 54.9644 201.824 55.3164 201.616C55.6764 201.408 56.1124 201.304 56.6244 201.304V202.432H56.3364C55.1124 202.432 54.5004 203.096 54.5004 204.424V208H53.4084V201.424H54.5004V202.492ZM58.4489 200.356C58.2409 200.356 58.0649 200.284 57.9209 200.14C57.7769 199.996 57.7049 199.82 57.7049 199.612C57.7049 199.404 57.7769 199.228 57.9209 199.084C58.0649 198.94 58.2409 198.868 58.4489 198.868C58.6489 198.868 58.8169 198.94 58.9529 199.084C59.0969 199.228 59.1689 199.404 59.1689 199.612C59.1689 199.82 59.0969 199.996 58.9529 200.14C58.8169 200.284 58.6489 200.356 58.4489 200.356ZM58.9769 201.424V208H57.8849V201.424H58.9769ZM64.0421 201.304C64.8421 201.304 65.4901 201.548 65.9861 202.036C66.4821 202.516 66.7301 203.212 66.7301 204.124V208H65.6501V204.28C65.6501 203.624 65.4861 203.124 65.1581 202.78C64.8301 202.428 64.3821 202.252 63.8141 202.252C63.2381 202.252 62.7781 202.432 62.4341 202.792C62.0981 203.152 61.9301 203.676 61.9301 204.364V208H60.8381V201.424H61.9301V202.36C62.1461 202.024 62.4381 201.764 62.8061 201.58C63.1821 201.396 63.5941 201.304 64.0421 201.304ZM72.1858 208L69.6058 205.096V208H68.5138V199.12H69.6058V204.34L72.1378 201.424H73.6618L70.5658 204.7L73.6738 208H72.1858ZM86.6488 201.424L84.5968 208H83.4688L81.8848 202.78L80.3008 208H79.1728L77.1088 201.424H78.2248L79.7368 206.944L81.3688 201.424H82.4848L84.0808 206.956L85.5688 201.424H86.6488ZM87.3246 204.688C87.3246 204.016 87.4606 203.428 87.7326 202.924C88.0046 202.412 88.3766 202.016 88.8486 201.736C89.3286 201.456 89.8606 201.316 90.4446 201.316C91.0206 201.316 91.5206 201.44 91.9446 201.688C92.3686 201.936 92.6846 202.248 92.8926 202.624V201.424H93.9966V208H92.8926V206.776C92.6766 207.16 92.3526 207.48 91.9206 207.736C91.4966 207.984 91.0006 208.108 90.4326 208.108C89.8486 208.108 89.3206 207.964 88.8486 207.676C88.3766 207.388 88.0046 206.984 87.7326 206.464C87.4606 205.944 87.3246 205.352 87.3246 204.688ZM92.8926 204.7C92.8926 204.204 92.7926 203.772 92.5926 203.404C92.3926 203.036 92.1206 202.756 91.7766 202.564C91.4406 202.364 91.0686 202.264 90.6606 202.264C90.2526 202.264 89.8806 202.36 89.5446 202.552C89.2086 202.744 88.9406 203.024 88.7406 203.392C88.5406 203.76 88.4406 204.192 88.4406 204.688C88.4406 205.192 88.5406 205.632 88.7406 206.008C88.9406 206.376 89.2086 206.66 89.5446 206.86C89.8806 207.052 90.2526 207.148 90.6606 207.148C91.0686 207.148 91.4406 207.052 91.7766 206.86C92.1206 206.66 92.3926 206.376 92.5926 206.008C92.7926 205.632 92.8926 205.196 92.8926 204.7ZM96.934 202.492C97.126 202.116 97.398 201.824 97.75 201.616C98.11 201.408 98.546 201.304 99.058 201.304V202.432H98.77C97.546 202.432 96.934 203.096 96.934 204.424V208H95.842V201.424H96.934V202.492ZM108.227 201.304C108.739 201.304 109.195 201.412 109.595 201.628C109.995 201.836 110.311 202.152 110.543 202.576C110.775 203 110.891 203.516 110.891 204.124V208H109.811V204.28C109.811 203.624 109.647 203.124 109.319 202.78C108.999 202.428 108.563 202.252 108.011 202.252C107.443 202.252 106.991 202.436 106.655 202.804C106.319 203.164 106.151 203.688 106.151 204.376V208H105.071V204.28C105.071 203.624 104.907 203.124 104.579 202.78C104.259 202.428 103.823 202.252 103.271 202.252C102.703 202.252 102.251 202.436 101.915 202.804C101.579 203.164 101.411 203.688 101.411 204.376V208H100.319V201.424H101.411V202.372C101.627 202.028 101.915 201.764 102.275 201.58C102.643 201.396 103.047 201.304 103.487 201.304C104.039 201.304 104.527 201.428 104.951 201.676C105.375 201.924 105.691 202.288 105.899 202.768C106.083 202.304 106.387 201.944 106.811 201.688C107.235 201.432 107.707 201.304 108.227 201.304ZM124.641 201.424L122.589 208H121.461L119.877 202.78L118.293 208H117.165L115.101 201.424H116.217L117.729 206.944L119.361 201.424H120.477L122.073 206.956L123.561 201.424H124.641ZM125.317 204.688C125.317 204.016 125.453 203.428 125.725 202.924C125.997 202.412 126.369 202.016 126.841 201.736C127.321 201.456 127.853 201.316 128.437 201.316C129.013 201.316 129.513 201.44 129.937 201.688C130.361 201.936 130.677 202.248 130.885 202.624V201.424H131.989V208H130.885V206.776C130.669 207.16 130.345 207.48 129.913 207.736C129.489 207.984 128.993 208.108 128.425 208.108C127.841 208.108 127.313 207.964 126.841 207.676C126.369 207.388 125.997 206.984 125.725 206.464C125.453 205.944 125.317 205.352 125.317 204.688ZM130.885 204.7C130.885 204.204 130.785 203.772 130.585 203.404C130.385 203.036 130.113 202.756 129.769 202.564C129.433 202.364 129.061 202.264 128.653 202.264C128.245 202.264 127.873 202.36 127.537 202.552C127.201 202.744 126.933 203.024 126.733 203.392C126.533 203.76 126.433 204.192 126.433 204.688C126.433 205.192 126.533 205.632 126.733 206.008C126.933 206.376 127.201 206.66 127.537 206.86C127.873 207.052 128.245 207.148 128.653 207.148C129.061 207.148 129.433 207.052 129.769 206.86C130.113 206.66 130.385 206.376 130.585 206.008C130.785 205.632 130.885 205.196 130.885 204.7ZM135.166 202.324V206.2C135.166 206.52 135.234 206.748 135.37 206.884C135.506 207.012 135.742 207.076 136.078 207.076H136.882V208H135.898C135.29 208 134.834 207.86 134.53 207.58C134.226 207.3 134.074 206.84 134.074 206.2V202.324H133.222V201.424H134.074V199.768H135.166V201.424H136.882V202.324H135.166ZM144.205 204.46C144.205 204.668 144.193 204.888 144.169 205.12H138.913C138.953 205.768 139.173 206.276 139.573 206.644C139.981 207.004 140.473 207.184 141.049 207.184C141.521 207.184 141.913 207.076 142.225 206.86C142.545 206.636 142.769 206.34 142.897 205.972H144.073C143.897 206.604 143.545 207.12 143.017 207.52C142.489 207.912 141.833 208.108 141.049 208.108C140.425 208.108 139.865 207.968 139.369 207.688C138.881 207.408 138.497 207.012 138.217 206.5C137.937 205.98 137.797 205.38 137.797 204.7C137.797 204.02 137.933 203.424 138.205 202.912C138.477 202.4 138.857 202.008 139.345 201.736C139.841 201.456 140.409 201.316 141.049 201.316C141.673 201.316 142.225 201.452 142.705 201.724C143.185 201.996 143.553 202.372 143.809 202.852C144.073 203.324 144.205 203.86 144.205 204.46ZM143.077 204.232C143.077 203.816 142.985 203.46 142.801 203.164C142.617 202.86 142.365 202.632 142.045 202.48C141.733 202.32 141.385 202.24 141.001 202.24C140.449 202.24 139.977 202.416 139.585 202.768C139.201 203.12 138.981 203.608 138.925 204.232H143.077ZM146.739 202.492C146.931 202.116 147.203 201.824 147.555 201.616C147.915 201.408 148.351 201.304 148.863 201.304V202.432H148.575C147.351 202.432 146.739 203.096 146.739 204.424V208H145.647V201.424H146.739V202.492ZM162.082 201.424L160.03 208H158.902L157.318 202.78L155.734 208H154.606L152.542 201.424H153.658L155.17 206.944L156.802 201.424H157.918L159.514 206.956L161.002 201.424H162.082ZM163.73 200.356C163.522 200.356 163.346 200.284 163.202 200.14C163.058 199.996 162.986 199.82 162.986 199.612C162.986 199.404 163.058 199.228 163.202 199.084C163.346 198.94 163.522 198.868 163.73 198.868C163.93 198.868 164.098 198.94 164.234 199.084C164.378 199.228 164.45 199.404 164.45 199.612C164.45 199.82 164.378 199.996 164.234 200.14C164.098 200.284 163.93 200.356 163.73 200.356ZM164.258 201.424V208H163.166V201.424H164.258ZM167.451 202.324V206.2C167.451 206.52 167.519 206.748 167.655 206.884C167.791 207.012 168.027 207.076 168.363 207.076H169.167V208H168.183C167.575 208 167.119 207.86 166.815 207.58C166.511 207.3 166.359 206.84 166.359 206.2V202.324H165.507V201.424H166.359V199.768H167.451V201.424H169.167V202.324H167.451ZM173.754 201.304C174.25 201.304 174.698 201.412 175.098 201.628C175.498 201.836 175.81 202.152 176.034 202.576C176.266 203 176.382 203.516 176.382 204.124V208H175.302V204.28C175.302 203.624 175.138 203.124 174.81 202.78C174.482 202.428 174.034 202.252 173.466 202.252C172.89 202.252 172.43 202.432 172.086 202.792C171.75 203.152 171.582 203.676 171.582 204.364V208H170.49V199.12H171.582V202.36C171.798 202.024 172.094 201.764 172.47 201.58C172.854 201.396 173.282 201.304 173.754 201.304ZM184.077 201.316C184.645 201.316 185.141 201.44 185.565 201.688C185.997 201.936 186.317 202.248 186.525 202.624V201.424H187.629V208.144C187.629 208.744 187.501 209.276 187.245 209.74C186.989 210.212 186.621 210.58 186.141 210.844C185.669 211.108 185.117 211.24 184.485 211.24C183.621 211.24 182.901 211.036 182.325 210.628C181.749 210.22 181.409 209.664 181.305 208.96H182.385C182.505 209.36 182.753 209.68 183.129 209.92C183.505 210.168 183.957 210.292 184.485 210.292C185.085 210.292 185.573 210.104 185.949 209.728C186.333 209.352 186.525 208.824 186.525 208.144V206.764C186.309 207.148 185.989 207.468 185.565 207.724C185.141 207.98 184.645 208.108 184.077 208.108C183.493 208.108 182.961 207.964 182.481 207.676C182.009 207.388 181.637 206.984 181.365 206.464C181.093 205.944 180.957 205.352 180.957 204.688C180.957 204.016 181.093 203.428 181.365 202.924C181.637 202.412 182.009 202.016 182.481 201.736C182.961 201.456 183.493 201.316 184.077 201.316ZM186.525 204.7C186.525 204.204 186.425 203.772 186.225 203.404C186.025 203.036 185.753 202.756 185.409 202.564C185.073 202.364 184.701 202.264 184.293 202.264C183.885 202.264 183.513 202.36 183.177 202.552C182.841 202.744 182.573 203.024 182.373 203.392C182.173 203.76 182.073 204.192 182.073 204.688C182.073 205.192 182.173 205.632 182.373 206.008C182.573 206.376 182.841 206.66 183.177 206.86C183.513 207.052 183.885 207.148 184.293 207.148C184.701 207.148 185.073 207.052 185.409 206.86C185.753 206.66 186.025 206.376 186.225 206.008C186.425 205.632 186.525 205.196 186.525 204.7ZM190.039 200.356C189.831 200.356 189.655 200.284 189.511 200.14C189.367 199.996 189.295 199.82 189.295 199.612C189.295 199.404 189.367 199.228 189.511 199.084C189.655 198.94 189.831 198.868 190.039 198.868C190.239 198.868 190.407 198.94 190.543 199.084C190.687 199.228 190.759 199.404 190.759 199.612C190.759 199.82 190.687 199.996 190.543 200.14C190.407 200.284 190.239 200.356 190.039 200.356ZM190.567 201.424V208H189.475V201.424H190.567ZM195.632 201.304C196.432 201.304 197.08 201.548 197.576 202.036C198.072 202.516 198.32 203.212 198.32 204.124V208H197.24V204.28C197.24 203.624 197.076 203.124 196.748 202.78C196.42 202.428 195.972 202.252 195.404 202.252C194.828 202.252 194.368 202.432 194.024 202.792C193.688 203.152 193.52 203.676 193.52 204.364V208H192.428V201.424H193.52V202.36C193.736 202.024 194.028 201.764 194.396 201.58C194.772 201.396 195.184 201.304 195.632 201.304ZM202.816 201.316C203.384 201.316 203.88 201.44 204.304 201.688C204.736 201.936 205.056 202.248 205.264 202.624V201.424H206.368V208.144C206.368 208.744 206.24 209.276 205.984 209.74C205.728 210.212 205.36 210.58 204.88 210.844C204.408 211.108 203.856 211.24 203.224 211.24C202.36 211.24 201.64 211.036 201.064 210.628C200.488 210.22 200.148 209.664 200.044 208.96H201.124C201.244 209.36 201.492 209.68 201.868 209.92C202.244 210.168 202.696 210.292 203.224 210.292C203.824 210.292 204.312 210.104 204.688 209.728C205.072 209.352 205.264 208.824 205.264 208.144V206.764C205.048 207.148 204.728 207.468 204.304 207.724C203.88 207.98 203.384 208.108 202.816 208.108C202.232 208.108 201.7 207.964 201.22 207.676C200.748 207.388 200.376 206.984 200.104 206.464C199.832 205.944 199.696 205.352 199.696 204.688C199.696 204.016 199.832 203.428 200.104 202.924C200.376 202.412 200.748 202.016 201.22 201.736C201.7 201.456 202.232 201.316 202.816 201.316ZM205.264 204.7C205.264 204.204 205.164 203.772 204.964 203.404C204.764 203.036 204.492 202.756 204.148 202.564C203.812 202.364 203.44 202.264 203.032 202.264C202.624 202.264 202.252 202.36 201.916 202.552C201.58 202.744 201.312 203.024 201.112 203.392C200.912 203.76 200.812 204.192 200.812 204.688C200.812 205.192 200.912 205.632 201.112 206.008C201.312 206.376 201.58 206.66 201.916 206.86C202.252 207.052 202.624 207.148 203.032 207.148C203.44 207.148 203.812 207.052 204.148 206.86C204.492 206.66 204.764 206.376 204.964 206.008C205.164 205.632 205.264 205.196 205.264 204.7ZM214.213 204.46C214.213 204.668 214.201 204.888 214.177 205.12H208.921C208.961 205.768 209.181 206.276 209.581 206.644C209.989 207.004 210.481 207.184 211.057 207.184C211.529 207.184 211.921 207.076 212.233 206.86C212.553 206.636 212.777 206.34 212.905 205.972H214.081C213.905 206.604 213.553 207.12 213.025 207.52C212.497 207.912 211.841 208.108 211.057 208.108C210.433 208.108 209.873 207.968 209.377 207.688C208.889 207.408 208.505 207.012 208.225 206.5C207.945 205.98 207.805 205.38 207.805 204.7C207.805 204.02 207.941 203.424 208.213 202.912C208.485 202.4 208.865 202.008 209.353 201.736C209.849 201.456 210.417 201.316 211.057 201.316C211.681 201.316 212.233 201.452 212.713 201.724C213.193 201.996 213.561 202.372 213.817 202.852C214.081 203.324 214.213 203.86 214.213 204.46ZM213.085 204.232C213.085 203.816 212.993 203.46 212.809 203.164C212.625 202.86 212.373 202.632 212.053 202.48C211.741 202.32 211.393 202.24 211.009 202.24C210.457 202.24 209.985 202.416 209.593 202.768C209.209 203.12 208.989 203.608 208.933 204.232H213.085ZM216.746 202.492C216.938 202.116 217.21 201.824 217.562 201.616C217.922 201.408 218.358 201.304 218.87 201.304V202.432H218.582C217.358 202.432 216.746 203.096 216.746 204.424V208H215.654V201.424H216.746V202.492Z" fill="#4B5563"/>
<path d="M248 240C252.418 240 256 243.582 256 248V288C256 292.418 252.418 296 248 296H40C35.5817 296 32 292.418 32 288V248C32 243.582 35.5817 240 40 240H248Z" fill="#87A96B" fill-opacity="0.1"/>
<path d="M248 240C252.418 240 256 243.582 256 248V288C256 292.418 252.418 296 248 296H40C35.5817 296 32 292.418 32 288V248C32 243.582 35.5817 240 40 240H248Z" stroke="#E5E7EB"/>
<path d="M244 268H44V252H244V268Z" stroke="#E5E7EB"/>
<path d="M50.732 258.144C50.732 258.568 50.632 258.968 50.432 259.344C50.232 259.72 49.912 260.028 49.472 260.268C49.032 260.5 48.468 260.616 47.78 260.616H46.268V264H44.9V255.66H47.78C48.42 255.66 48.96 255.772 49.4 255.996C49.848 256.212 50.18 256.508 50.396 256.884C50.62 257.26 50.732 257.68 50.732 258.144ZM47.78 259.5C48.3 259.5 48.688 259.384 48.944 259.152C49.2 258.912 49.328 258.576 49.328 258.144C49.328 257.232 48.812 256.776 47.78 256.776H46.268V259.5H47.78ZM53.4047 258.348C53.6047 258.012 53.8687 257.752 54.1967 257.568C54.5327 257.376 54.9287 257.28 55.3847 257.28V258.696H55.0367C54.5007 258.696 54.0927 258.832 53.8127 259.104C53.5407 259.376 53.4047 259.848 53.4047 260.52V264H52.0367V257.388H53.4047V258.348ZM59.5102 264.108C58.8862 264.108 58.3222 263.968 57.8182 263.688C57.3142 263.4 56.9182 263 56.6302 262.488C56.3422 261.968 56.1982 261.368 56.1982 260.688C56.1982 260.016 56.3462 259.42 56.6422 258.9C56.9382 258.38 57.3422 257.98 57.8542 257.7C58.3662 257.42 58.9382 257.28 59.5702 257.28C60.2022 257.28 60.7742 257.42 61.2862 257.7C61.7982 257.98 62.2022 258.38 62.4982 258.9C62.7942 259.42 62.9422 260.016 62.9422 260.688C62.9422 261.36 62.7902 261.956 62.4862 262.476C62.1822 262.996 61.7662 263.4 61.2382 263.688C60.7182 263.968 60.1422 264.108 59.5102 264.108ZM59.5102 262.92C59.8622 262.92 60.1902 262.836 60.4942 262.668C60.8062 262.5 61.0582 262.248 61.2502 261.912C61.4422 261.576 61.5382 261.168 61.5382 260.688C61.5382 260.208 61.4462 259.804 61.2622 259.476C61.0782 259.14 60.8342 258.888 60.5302 258.72C60.2262 258.552 59.8982 258.468 59.5462 258.468C59.1942 258.468 58.8662 258.552 58.5622 258.72C58.2662 258.888 58.0302 259.14 57.8542 259.476C57.6782 259.804 57.5902 260.208 57.5902 260.688C57.5902 261.4 57.7702 261.952 58.1302 262.344C58.4982 262.728 58.9582 262.92 59.5102 262.92ZM66.9585 257.28C67.4705 257.28 67.9225 257.384 68.3145 257.592C68.7145 257.792 69.0265 258.044 69.2505 258.348V257.388H70.6305V264.108C70.6305 264.716 70.5025 265.256 70.2465 265.728C69.9905 266.208 69.6185 266.584 69.1305 266.856C68.6505 267.128 68.0745 267.264 67.4025 267.264C66.5065 267.264 65.7625 267.052 65.1705 266.628C64.5785 266.212 64.2425 265.644 64.1625 264.924H65.5185C65.6225 265.268 65.8425 265.544 66.1785 265.752C66.5225 265.968 66.9305 266.076 67.4025 266.076C67.9545 266.076 68.3985 265.908 68.7345 265.572C69.0785 265.236 69.2505 264.748 69.2505 264.108V263.004C69.0185 263.316 68.7025 263.58 68.3025 263.796C67.9105 264.004 67.4625 264.108 66.9585 264.108C66.3825 264.108 65.8545 263.964 65.3745 263.676C64.9025 263.38 64.5265 262.972 64.2465 262.452C63.9745 261.924 63.8385 261.328 63.8385 260.664C63.8385 260 63.9745 259.412 64.2465 258.9C64.5265 258.388 64.9025 257.992 65.3745 257.712C65.8545 257.424 66.3825 257.28 66.9585 257.28ZM69.2505 260.688C69.2505 260.232 69.1545 259.836 68.9625 259.5C68.7785 259.164 68.5345 258.908 68.2305 258.732C67.9265 258.556 67.5985 258.468 67.2465 258.468C66.8945 258.468 66.5665 258.556 66.2625 258.732C65.9585 258.9 65.7105 259.152 65.5185 259.488C65.3345 259.816 65.2425 260.208 65.2425 260.664C65.2425 261.12 65.3345 261.52 65.5185 261.864C65.7105 262.208 65.9585 262.472 66.2625 262.656C66.5745 262.832 66.9025 262.92 67.2465 262.92C67.5985 262.92 67.9265 262.832 68.2305 262.656C68.5345 262.48 68.7785 262.224 68.9625 261.888C69.1545 261.544 69.2505 261.144 69.2505 260.688ZM73.7953 258.348C73.9953 258.012 74.2593 257.752 74.5873 257.568C74.9233 257.376 75.3193 257.28 75.7753 257.28V258.696H75.4273C74.8913 258.696 74.4833 258.832 74.2033 259.104C73.9313 259.376 73.7953 259.848 73.7953 260.52V264H72.4273V257.388H73.7953V258.348ZM83.0928 260.532C83.0928 260.78 83.0768 261.004 83.0448 261.204H77.9928C78.0328 261.732 78.2288 262.156 78.5808 262.476C78.9328 262.796 79.3648 262.956 79.8768 262.956C80.6128 262.956 81.1328 262.648 81.4368 262.032H82.9128C82.7128 262.64 82.3488 263.14 81.8208 263.532C81.3008 263.916 80.6528 264.108 79.8768 264.108C79.2448 264.108 78.6768 263.968 78.1728 263.688C77.6768 263.4 77.2848 263 76.9968 262.488C76.7168 261.968 76.5768 261.368 76.5768 260.688C76.5768 260.008 76.7128 259.412 76.9848 258.9C77.2648 258.38 77.6528 257.98 78.1488 257.7C78.6528 257.42 79.2288 257.28 79.8768 257.28C80.5008 257.28 81.0568 257.416 81.5448 257.688C82.0328 257.96 82.4128 258.344 82.6848 258.84C82.9568 259.328 83.0928 259.892 83.0928 260.532ZM81.6648 260.1C81.6568 259.596 81.4768 259.192 81.1248 258.888C80.7728 258.584 80.3368 258.432 79.8168 258.432C79.3448 258.432 78.9408 258.584 78.6048 258.888C78.2688 259.184 78.0688 259.588 78.0048 260.1H81.6648ZM86.8391 264.108C86.3191 264.108 85.8511 264.016 85.4351 263.832C85.0271 263.64 84.7031 263.384 84.4631 263.064C84.2231 262.736 84.0951 262.372 84.0791 261.972H85.4951C85.5191 262.252 85.6511 262.488 85.8911 262.68C86.1391 262.864 86.4471 262.956 86.8151 262.956C87.1991 262.956 87.4951 262.884 87.7031 262.74C87.9191 262.588 88.0271 262.396 88.0271 262.164C88.0271 261.916 87.9071 261.732 87.6671 261.612C87.4351 261.492 87.0631 261.36 86.5511 261.216C86.0551 261.08 85.6511 260.948 85.3391 260.82C85.0271 260.692 84.7551 260.496 84.5231 260.232C84.2991 259.968 84.1871 259.62 84.1871 259.188C84.1871 258.836 84.2911 258.516 84.4991 258.228C84.7071 257.932 85.0031 257.7 85.3871 257.532C85.7791 257.364 86.2271 257.28 86.7311 257.28C87.4831 257.28 88.0871 257.472 88.5431 257.856C89.0071 258.232 89.2551 258.748 89.2871 259.404H87.9191C87.8951 259.108 87.7751 258.872 87.5591 258.696C87.3431 258.52 87.0511 258.432 86.6831 258.432C86.3231 258.432 86.0471 258.5 85.8551 258.636C85.6631 258.772 85.5671 258.952 85.5671 259.176C85.5671 259.352 85.6311 259.5 85.7591 259.62C85.8871 259.74 86.0431 259.836 86.2271 259.908C86.4111 259.972 86.6831 260.056 87.0431 260.16C87.5231 260.288 87.9151 260.42 88.2191 260.556C88.5311 260.684 88.7991 260.876 89.0231 261.132C89.2471 261.388 89.3631 261.728 89.3711 262.152C89.3711 262.528 89.2671 262.864 89.0591 263.16C88.8511 263.456 88.5551 263.688 88.1711 263.856C87.7951 264.024 87.3511 264.108 86.8391 264.108ZM93.2492 264.108C92.7292 264.108 92.2612 264.016 91.8452 263.832C91.4372 263.64 91.1132 263.384 90.8732 263.064C90.6332 262.736 90.5052 262.372 90.4892 261.972H91.9052C91.9292 262.252 92.0612 262.488 92.3012 262.68C92.5492 262.864 92.8572 262.956 93.2252 262.956C93.6092 262.956 93.9052 262.884 94.1132 262.74C94.3292 262.588 94.4372 262.396 94.4372 262.164C94.4372 261.916 94.3172 261.732 94.0772 261.612C93.8452 261.492 93.4732 261.36 92.9612 261.216C92.4652 261.08 92.0612 260.948 91.7492 260.82C91.4372 260.692 91.1652 260.496 90.9332 260.232C90.7092 259.968 90.5972 259.62 90.5972 259.188C90.5972 258.836 90.7012 258.516 90.9092 258.228C91.1172 257.932 91.4132 257.7 91.7972 257.532C92.1892 257.364 92.6372 257.28 93.1412 257.28C93.8932 257.28 94.4972 257.472 94.9532 257.856C95.4172 258.232 95.6652 258.748 95.6972 259.404H94.3292C94.3052 259.108 94.1852 258.872 93.9692 258.696C93.7532 258.52 93.4612 258.432 93.0932 258.432C92.7332 258.432 92.4572 258.5 92.2652 258.636C92.0732 258.772 91.9772 258.952 91.9772 259.176C91.9772 259.352 92.0412 259.5 92.1692 259.62C92.2972 259.74 92.4532 259.836 92.6372 259.908C92.8212 259.972 93.0932 260.056 93.4532 260.16C93.9332 260.288 94.3252 260.42 94.6292 260.556C94.9412 260.684 95.2092 260.876 95.4332 261.132C95.6572 261.388 95.7732 261.728 95.7812 262.152C95.7812 262.528 95.6772 262.864 95.4692 263.16C95.2612 263.456 94.9652 263.688 94.5812 263.856C94.2052 264.024 93.7612 264.108 93.2492 264.108ZM101.733 255.66V260.976C101.733 261.608 101.897 262.084 102.225 262.404C102.561 262.724 103.025 262.884 103.617 262.884C104.217 262.884 104.681 262.724 105.009 262.404C105.345 262.084 105.513 261.608 105.513 260.976V255.66H106.881V260.952C106.881 261.632 106.733 262.208 106.437 262.68C106.141 263.152 105.745 263.504 105.249 263.736C104.753 263.968 104.205 264.084 103.605 264.084C103.005 264.084 102.457 263.968 101.961 263.736C101.473 263.504 101.085 263.152 100.797 262.68C100.509 262.208 100.365 261.632 100.365 260.952V255.66H101.733ZM110.03 258.36C110.262 258.056 110.578 257.8 110.978 257.592C111.378 257.384 111.83 257.28 112.334 257.28C112.91 257.28 113.434 257.424 113.906 257.712C114.386 257.992 114.762 258.388 115.034 258.9C115.306 259.412 115.442 260 115.442 260.664C115.442 261.328 115.306 261.924 115.034 262.452C114.762 262.972 114.386 263.38 113.906 263.676C113.434 263.964 112.91 264.108 112.334 264.108C111.83 264.108 111.382 264.008 110.99 263.808C110.598 263.6 110.278 263.344 110.03 263.04V267.144H108.662V257.388H110.03V258.36ZM114.05 260.664C114.05 260.208 113.954 259.816 113.762 259.488C113.578 259.152 113.33 258.9 113.018 258.732C112.714 258.556 112.386 258.468 112.034 258.468C111.69 258.468 111.362 258.556 111.05 258.732C110.746 258.908 110.498 259.164 110.306 259.5C110.122 259.836 110.03 260.232 110.03 260.688C110.03 261.144 110.122 261.544 110.306 261.888C110.498 262.224 110.746 262.48 111.05 262.656C111.362 262.832 111.69 262.92 112.034 262.92C112.386 262.92 112.714 262.832 113.018 262.656C113.33 262.472 113.578 262.208 113.762 261.864C113.954 261.52 114.05 261.12 114.05 260.664ZM116.339 260.664C116.339 260 116.475 259.412 116.747 258.9C117.027 258.388 117.403 257.992 117.875 257.712C118.355 257.424 118.887 257.28 119.471 257.28C119.903 257.28 120.327 257.376 120.743 257.568C121.167 257.752 121.503 258 121.751 258.312V255.12H123.131V264H121.751V263.004C121.527 263.324 121.215 263.588 120.815 263.796C120.423 264.004 119.971 264.108 119.459 264.108C118.883 264.108 118.355 263.964 117.875 263.676C117.403 263.38 117.027 262.972 116.747 262.452C116.475 261.924 116.339 261.328 116.339 260.664ZM121.751 260.688C121.751 260.232 121.655 259.836 121.463 259.5C121.279 259.164 121.035 258.908 120.731 258.732C120.427 258.556 120.099 258.468 119.747 258.468C119.395 258.468 119.067 258.556 118.763 258.732C118.459 258.9 118.211 259.152 118.019 259.488C117.835 259.816 117.743 260.208 117.743 260.664C117.743 261.12 117.835 261.52 118.019 261.864C118.211 262.208 118.459 262.472 118.763 262.656C119.075 262.832 119.403 262.92 119.747 262.92C120.099 262.92 120.427 262.832 120.731 262.656C121.035 262.48 121.279 262.224 121.463 261.888C121.655 261.544 121.751 261.144 121.751 260.688ZM124.471 260.664C124.471 260 124.607 259.412 124.879 258.9C125.159 258.388 125.535 257.992 126.007 257.712C126.487 257.424 127.015 257.28 127.591 257.28C128.111 257.28 128.563 257.384 128.947 257.592C129.339 257.792 129.651 258.044 129.883 258.348V257.388H131.263V264H129.883V263.016C129.651 263.328 129.335 263.588 128.935 263.796C128.535 264.004 128.079 264.108 127.567 264.108C126.999 264.108 126.479 263.964 126.007 263.676C125.535 263.38 125.159 262.972 124.879 262.452C124.607 261.924 124.471 261.328 124.471 260.664ZM129.883 260.688C129.883 260.232 129.787 259.836 129.595 259.5C129.411 259.164 129.167 258.908 128.863 258.732C128.559 258.556 128.231 258.468 127.879 258.468C127.527 258.468 127.199 258.556 126.895 258.732C126.591 258.9 126.343 259.152 126.151 259.488C125.967 259.816 125.875 260.208 125.875 260.664C125.875 261.12 125.967 261.52 126.151 261.864C126.343 262.208 126.591 262.472 126.895 262.656C127.207 262.832 127.535 262.92 127.879 262.92C128.231 262.92 128.559 262.832 128.863 262.656C129.167 262.48 129.411 262.224 129.595 261.888C129.787 261.544 129.883 261.144 129.883 260.688ZM134.656 258.504V262.164C134.656 262.412 134.712 262.592 134.824 262.704C134.944 262.808 135.144 262.86 135.424 262.86H136.264V264H135.184C134.568 264 134.096 263.856 133.768 263.568C133.44 263.28 133.276 262.812 133.276 262.164V258.504H132.496V257.388H133.276V255.744H134.656V257.388H136.264V258.504H134.656ZM143.585 260.532C143.585 260.78 143.569 261.004 143.537 261.204H138.485C138.525 261.732 138.721 262.156 139.073 262.476C139.425 262.796 139.857 262.956 140.369 262.956C141.105 262.956 141.625 262.648 141.929 262.032H143.405C143.205 262.64 142.841 263.14 142.313 263.532C141.793 263.916 141.145 264.108 140.369 264.108C139.737 264.108 139.169 263.968 138.665 263.688C138.169 263.4 137.777 263 137.489 262.488C137.209 261.968 137.069 261.368 137.069 260.688C137.069 260.008 137.205 259.412 137.477 258.9C137.757 258.38 138.145 257.98 138.641 257.7C139.145 257.42 139.721 257.28 140.369 257.28C140.993 257.28 141.549 257.416 142.037 257.688C142.525 257.96 142.905 258.344 143.177 258.84C143.449 259.328 143.585 259.892 143.585 260.532ZM142.157 260.1C142.149 259.596 141.969 259.192 141.617 258.888C141.265 258.584 140.829 258.432 140.309 258.432C139.837 258.432 139.433 258.584 139.097 258.888C138.761 259.184 138.561 259.588 138.497 260.1H142.157Z" fill="#4A5D23"/>
<path d="M244 284H44V268H244V284Z" stroke="#E5E7EB"/>
<path d="M46.016 272.524V275.32H49.064V276.22H46.016V279.1H49.424V280H44.924V271.624H49.424V272.524H46.016ZM54.2803 273.304C55.0803 273.304 55.7283 273.548 56.2243 274.036C56.7203 274.516 56.9683 275.212 56.9683 276.124V280H55.8883V276.28C55.8883 275.624 55.7243 275.124 55.3963 274.78C55.0683 274.428 54.6203 274.252 54.0523 274.252C53.4763 274.252 53.0163 274.432 52.6723 274.792C52.3363 275.152 52.1683 275.676 52.1683 276.364V280H51.0763V273.424H52.1683V274.36C52.3843 274.024 52.6763 273.764 53.0443 273.58C53.4203 273.396 53.8323 273.304 54.2803 273.304ZM64.7521 276.46C64.7521 276.668 64.7401 276.888 64.7161 277.12H59.4601C59.5001 277.768 59.7201 278.276 60.1201 278.644C60.5281 279.004 61.0201 279.184 61.5961 279.184C62.0681 279.184 62.4601 279.076 62.7721 278.86C63.0921 278.636 63.3161 278.34 63.4441 277.972H64.6201C64.4441 278.604 64.0921 279.12 63.5641 279.52C63.0361 279.912 62.3801 280.108 61.5961 280.108C60.9721 280.108 60.4121 279.968 59.9161 279.688C59.4281 279.408 59.0441 279.012 58.7641 278.5C58.4841 277.98 58.3441 277.38 58.3441 276.7C58.3441 276.02 58.4801 275.424 58.7521 274.912C59.0241 274.4 59.4041 274.008 59.8921 273.736C60.3881 273.456 60.9561 273.316 61.5961 273.316C62.2201 273.316 62.7721 273.452 63.2521 273.724C63.7321 273.996 64.1001 274.372 64.3561 274.852C64.6201 275.324 64.7521 275.86 64.7521 276.46ZM63.6241 276.232C63.6241 275.816 63.5321 275.46 63.3481 275.164C63.1641 274.86 62.9121 274.632 62.5921 274.48C62.2801 274.32 61.9321 274.24 61.5481 274.24C60.9961 274.24 60.5241 274.416 60.1321 274.768C59.7481 275.12 59.5281 275.608 59.4721 276.232H63.6241ZM67.2855 274.492C67.4775 274.116 67.7495 273.824 68.1015 273.616C68.4615 273.408 68.8975 273.304 69.4095 273.304V274.432H69.1215C67.8975 274.432 67.2855 275.096 67.2855 276.424V280H66.1935V273.424H67.2855V274.492ZM73.3821 273.316C73.9501 273.316 74.4461 273.44 74.8701 273.688C75.3021 273.936 75.6221 274.248 75.8301 274.624V273.424H76.9341V280.144C76.9341 280.744 76.8061 281.276 76.5501 281.74C76.2941 282.212 75.9261 282.58 75.4461 282.844C74.9741 283.108 74.4221 283.24 73.7901 283.24C72.9261 283.24 72.2061 283.036 71.6301 282.628C71.0541 282.22 70.7141 281.664 70.6101 280.96H71.6901C71.8101 281.36 72.0581 281.68 72.4341 281.92C72.8101 282.168 73.2621 282.292 73.7901 282.292C74.3901 282.292 74.8781 282.104 75.2541 281.728C75.6381 281.352 75.8301 280.824 75.8301 280.144V278.764C75.6141 279.148 75.2941 279.468 74.8701 279.724C74.4461 279.98 73.9501 280.108 73.3821 280.108C72.7981 280.108 72.2661 279.964 71.7861 279.676C71.3141 279.388 70.9421 278.984 70.6701 278.464C70.3981 277.944 70.2621 277.352 70.2621 276.688C70.2621 276.016 70.3981 275.428 70.6701 274.924C70.9421 274.412 71.3141 274.016 71.7861 273.736C72.2661 273.456 72.7981 273.316 73.3821 273.316ZM75.8301 276.7C75.8301 276.204 75.7301 275.772 75.5301 275.404C75.3301 275.036 75.0581 274.756 74.7141 274.564C74.3781 274.364 74.0061 274.264 73.5981 274.264C73.1901 274.264 72.8181 274.36 72.4821 274.552C72.1461 274.744 71.8781 275.024 71.6781 275.392C71.4781 275.76 71.3781 276.192 71.3781 276.688C71.3781 277.192 71.4781 277.632 71.6781 278.008C71.8781 278.376 72.1461 278.66 72.4821 278.86C72.8181 279.052 73.1901 279.148 73.5981 279.148C74.0061 279.148 74.3781 279.052 74.7141 278.86C75.0581 278.66 75.3301 278.376 75.5301 278.008C75.7301 277.632 75.8301 277.196 75.8301 276.7ZM84.4435 273.424L80.4835 283.096H79.3555L80.6515 279.928L77.9995 273.424H79.2115L81.2755 278.752L83.3155 273.424H84.4435ZM89.8324 271.12V280H88.7404V271.12H89.8324ZM97.6935 276.46C97.6935 276.668 97.6815 276.888 97.6575 277.12H92.4015C92.4415 277.768 92.6615 278.276 93.0615 278.644C93.4695 279.004 93.9615 279.184 94.5375 279.184C95.0095 279.184 95.4015 279.076 95.7135 278.86C96.0335 278.636 96.2575 278.34 96.3855 277.972H97.5615C97.3855 278.604 97.0335 279.12 96.5055 279.52C95.9775 279.912 95.3215 280.108 94.5375 280.108C93.9135 280.108 93.3535 279.968 92.8575 279.688C92.3695 279.408 91.9855 279.012 91.7055 278.5C91.4255 277.98 91.2855 277.38 91.2855 276.7C91.2855 276.02 91.4215 275.424 91.6935 274.912C91.9655 274.4 92.3455 274.008 92.8335 273.736C93.3295 273.456 93.8975 273.316 94.5375 273.316C95.1615 273.316 95.7135 273.452 96.1935 273.724C96.6735 273.996 97.0415 274.372 97.2975 274.852C97.5615 275.324 97.6935 275.86 97.6935 276.46ZM96.5655 276.232C96.5655 275.816 96.4735 275.46 96.2895 275.164C96.1055 274.86 95.8535 274.632 95.5335 274.48C95.2215 274.32 94.8735 274.24 94.4895 274.24C93.9375 274.24 93.4655 274.416 93.0735 274.768C92.6895 275.12 92.4695 275.608 92.4135 276.232H96.5655ZM101.583 278.992L103.623 273.424H104.787L102.207 280H100.935L98.3549 273.424H99.5309L101.583 278.992ZM111.862 276.46C111.862 276.668 111.85 276.888 111.826 277.12H106.57C106.61 277.768 106.83 278.276 107.23 278.644C107.638 279.004 108.13 279.184 108.706 279.184C109.178 279.184 109.57 279.076 109.882 278.86C110.202 278.636 110.426 278.34 110.554 277.972H111.73C111.554 278.604 111.202 279.12 110.674 279.52C110.146 279.912 109.49 280.108 108.706 280.108C108.082 280.108 107.522 279.968 107.026 279.688C106.538 279.408 106.154 279.012 105.874 278.5C105.594 277.98 105.454 277.38 105.454 276.7C105.454 276.02 105.59 275.424 105.862 274.912C106.134 274.4 106.514 274.008 107.002 273.736C107.498 273.456 108.066 273.316 108.706 273.316C109.33 273.316 109.882 273.452 110.362 273.724C110.842 273.996 111.21 274.372 111.466 274.852C111.73 275.324 111.862 275.86 111.862 276.46ZM110.734 276.232C110.734 275.816 110.642 275.46 110.458 275.164C110.274 274.86 110.022 274.632 109.702 274.48C109.39 274.32 109.042 274.24 108.658 274.24C108.106 274.24 107.634 274.416 107.242 274.768C106.858 275.12 106.638 275.608 106.582 276.232H110.734ZM114.395 271.12V280H113.303V271.12H114.395ZM118.584 280.108C118.08 280.108 117.628 280.024 117.228 279.856C116.828 279.68 116.512 279.44 116.28 279.136C116.048 278.824 115.92 278.468 115.896 278.068H117.024C117.056 278.396 117.208 278.664 117.48 278.872C117.76 279.08 118.124 279.184 118.572 279.184C118.988 279.184 119.316 279.092 119.556 278.908C119.796 278.724 119.916 278.492 119.916 278.212C119.916 277.924 119.788 277.712 119.532 277.576C119.276 277.432 118.88 277.292 118.344 277.156C117.856 277.028 117.456 276.9 117.144 276.772C116.84 276.636 116.576 276.44 116.352 276.184C116.136 275.92 116.028 275.576 116.028 275.152C116.028 274.816 116.128 274.508 116.328 274.228C116.528 273.948 116.812 273.728 117.18 273.568C117.548 273.4 117.968 273.316 118.44 273.316C119.168 273.316 119.756 273.5 120.204 273.868C120.652 274.236 120.892 274.74 120.924 275.38H119.832C119.808 275.036 119.668 274.76 119.412 274.552C119.164 274.344 118.828 274.24 118.404 274.24C118.012 274.24 117.7 274.324 117.468 274.492C117.236 274.66 117.12 274.88 117.12 275.152C117.12 275.368 117.188 275.548 117.324 275.692C117.468 275.828 117.644 275.94 117.852 276.028C118.068 276.108 118.364 276.2 118.74 276.304C119.212 276.432 119.596 276.56 119.892 276.688C120.188 276.808 120.44 276.992 120.648 277.24C120.864 277.488 120.976 277.812 120.984 278.212C120.984 278.572 120.884 278.896 120.684 279.184C120.484 279.472 120.2 279.7 119.832 279.868C119.472 280.028 119.056 280.108 118.584 280.108ZM126.289 272.356C126.081 272.356 125.905 272.284 125.761 272.14C125.617 271.996 125.545 271.82 125.545 271.612C125.545 271.404 125.617 271.228 125.761 271.084C125.905 270.94 126.081 270.868 126.289 270.868C126.489 270.868 126.657 270.94 126.793 271.084C126.937 271.228 127.009 271.404 127.009 271.612C127.009 271.82 126.937 271.996 126.793 272.14C126.657 272.284 126.489 272.356 126.289 272.356ZM126.817 273.424V280H125.725V273.424H126.817ZM136.586 273.304C137.098 273.304 137.554 273.412 137.954 273.628C138.354 273.836 138.67 274.152 138.902 274.576C139.134 275 139.25 275.516 139.25 276.124V280H138.17V276.28C138.17 275.624 138.006 275.124 137.678 274.78C137.358 274.428 136.922 274.252 136.37 274.252C135.802 274.252 135.35 274.436 135.014 274.804C134.678 275.164 134.51 275.688 134.51 276.376V280H133.43V276.28C133.43 275.624 133.266 275.124 132.938 274.78C132.618 274.428 132.182 274.252 131.63 274.252C131.062 274.252 130.61 274.436 130.274 274.804C129.938 275.164 129.77 275.688 129.77 276.376V280H128.678V273.424H129.77V274.372C129.986 274.028 130.274 273.764 130.634 273.58C131.002 273.396 131.406 273.304 131.846 273.304C132.398 273.304 132.886 273.428 133.31 273.676C133.734 273.924 134.05 274.288 134.258 274.768C134.442 274.304 134.746 273.944 135.17 273.688C135.594 273.432 136.066 273.304 136.586 273.304ZM142.133 274.636C142.349 274.26 142.669 273.948 143.093 273.7C143.525 273.444 144.025 273.316 144.593 273.316C145.177 273.316 145.705 273.456 146.177 273.736C146.657 274.016 147.033 274.412 147.305 274.924C147.577 275.428 147.713 276.016 147.713 276.688C147.713 277.352 147.577 277.944 147.305 278.464C147.033 278.984 146.657 279.388 146.177 279.676C145.705 279.964 145.177 280.108 144.593 280.108C144.033 280.108 143.537 279.984 143.105 279.736C142.681 279.48 142.357 279.164 142.133 278.788V283.12H141.041V273.424H142.133V274.636ZM146.597 276.688C146.597 276.192 146.497 275.76 146.297 275.392C146.097 275.024 145.825 274.744 145.481 274.552C145.145 274.36 144.773 274.264 144.365 274.264C143.965 274.264 143.593 274.364 143.249 274.564C142.913 274.756 142.641 275.04 142.433 275.416C142.233 275.784 142.133 276.212 142.133 276.7C142.133 277.196 142.233 277.632 142.433 278.008C142.641 278.376 142.913 278.66 143.249 278.86C143.593 279.052 143.965 279.148 144.365 279.148C144.773 279.148 145.145 279.052 145.481 278.86C145.825 278.66 146.097 278.376 146.297 278.008C146.497 277.632 146.597 277.192 146.597 276.688ZM150.243 274.492C150.435 274.116 150.707 273.824 151.059 273.616C151.419 273.408 151.855 273.304 152.367 273.304V274.432H152.079C150.855 274.432 150.243 275.096 150.243 276.424V280H149.151V273.424H150.243V274.492ZM156.495 280.108C155.879 280.108 155.319 279.968 154.815 279.688C154.319 279.408 153.927 279.012 153.639 278.5C153.359 277.98 153.219 277.38 153.219 276.7C153.219 276.028 153.363 275.436 153.651 274.924C153.947 274.404 154.347 274.008 154.851 273.736C155.355 273.456 155.919 273.316 156.543 273.316C157.167 273.316 157.731 273.456 158.235 273.736C158.739 274.008 159.135 274.4 159.423 274.912C159.719 275.424 159.867 276.02 159.867 276.7C159.867 277.38 159.715 277.98 159.411 278.5C159.115 279.012 158.711 279.408 158.199 279.688C157.687 279.968 157.119 280.108 156.495 280.108ZM156.495 279.148C156.887 279.148 157.255 279.056 157.599 278.872C157.943 278.688 158.219 278.412 158.427 278.044C158.643 277.676 158.751 277.228 158.751 276.7C158.751 276.172 158.647 275.724 158.439 275.356C158.231 274.988 157.959 274.716 157.623 274.54C157.287 274.356 156.923 274.264 156.531 274.264C156.131 274.264 155.763 274.356 155.427 274.54C155.099 274.716 154.835 274.988 154.635 275.356C154.435 275.724 154.335 276.172 154.335 276.7C154.335 277.236 154.431 277.688 154.623 278.056C154.823 278.424 155.087 278.7 155.415 278.884C155.743 279.06 156.103 279.148 156.495 279.148ZM163.751 278.992L165.791 273.424H166.955L164.375 280H163.103L160.523 273.424H161.699L163.751 278.992ZM174.029 276.46C174.029 276.668 174.017 276.888 173.993 277.12H168.737C168.777 277.768 168.997 278.276 169.397 278.644C169.805 279.004 170.297 279.184 170.873 279.184C171.345 279.184 171.737 279.076 172.049 278.86C172.369 278.636 172.593 278.34 172.721 277.972H173.897C173.721 278.604 173.369 279.12 172.841 279.52C172.313 279.912 171.657 280.108 170.873 280.108C170.249 280.108 169.689 279.968 169.193 279.688C168.705 279.408 168.321 279.012 168.041 278.5C167.761 277.98 167.621 277.38 167.621 276.7C167.621 276.02 167.757 275.424 168.029 274.912C168.301 274.4 168.681 274.008 169.169 273.736C169.665 273.456 170.233 273.316 170.873 273.316C171.497 273.316 172.049 273.452 172.529 273.724C173.009 273.996 173.377 274.372 173.633 274.852C173.897 275.324 174.029 275.86 174.029 276.46ZM172.901 276.232C172.901 275.816 172.809 275.46 172.625 275.164C172.441 274.86 172.189 274.632 171.869 274.48C171.557 274.32 171.209 274.24 170.825 274.24C170.273 274.24 169.801 274.416 169.409 274.768C169.025 275.12 168.805 275.608 168.749 276.232H172.901ZM175.063 276.688C175.063 276.016 175.199 275.428 175.471 274.924C175.743 274.412 176.115 274.016 176.587 273.736C177.067 273.456 177.603 273.316 178.195 273.316C178.707 273.316 179.183 273.436 179.623 273.676C180.063 273.908 180.399 274.216 180.631 274.6V271.12H181.735V280H180.631V278.764C180.415 279.156 180.095 279.48 179.671 279.736C179.247 279.984 178.751 280.108 178.183 280.108C177.599 280.108 177.067 279.964 176.587 279.676C176.115 279.388 175.743 278.984 175.471 278.464C175.199 277.944 175.063 277.352 175.063 276.688ZM180.631 276.7C180.631 276.204 180.531 275.772 180.331 275.404C180.131 275.036 179.859 274.756 179.515 274.564C179.179 274.364 178.807 274.264 178.399 274.264C177.991 274.264 177.619 274.36 177.283 274.552C176.947 274.744 176.679 275.024 176.479 275.392C176.279 275.76 176.179 276.192 176.179 276.688C176.179 277.192 176.279 277.632 176.479 278.008C176.679 278.376 176.947 278.66 177.283 278.86C177.619 279.052 177.991 279.148 178.399 279.148C178.807 279.148 179.179 279.052 179.515 278.86C179.859 278.66 180.131 278.376 180.331 278.008C180.531 277.632 180.631 277.196 180.631 276.7ZM186.311 272.32V271.324H188.567V280H187.463V272.32H186.311ZM195.975 272.272H191.763V275.008C191.947 274.752 192.219 274.544 192.579 274.384C192.939 274.216 193.327 274.132 193.743 274.132C194.407 274.132 194.947 274.272 195.363 274.552C195.779 274.824 196.075 275.18 196.251 275.62C196.435 276.052 196.527 276.512 196.527 277C196.527 277.576 196.419 278.092 196.203 278.548C195.987 279.004 195.655 279.364 195.207 279.628C194.767 279.892 194.219 280.024 193.563 280.024C192.723 280.024 192.043 279.808 191.523 279.376C191.003 278.944 190.687 278.368 190.575 277.648H191.643C191.747 278.104 191.967 278.46 192.303 278.716C192.639 278.972 193.063 279.1 193.575 279.1C194.207 279.1 194.683 278.912 195.003 278.536C195.323 278.152 195.483 277.648 195.483 277.024C195.483 276.4 195.323 275.92 195.003 275.584C194.683 275.24 194.211 275.068 193.587 275.068C193.163 275.068 192.791 275.172 192.471 275.38C192.159 275.58 191.931 275.856 191.787 276.208H190.755V271.312H195.975V272.272ZM197.738 273.28C197.738 272.736 197.902 272.304 198.23 271.984C198.558 271.656 198.978 271.492 199.49 271.492C200.002 271.492 200.422 271.656 200.75 271.984C201.078 272.304 201.242 272.736 201.242 273.28C201.242 273.832 201.078 274.272 200.75 274.6C200.422 274.92 200.002 275.08 199.49 275.08C198.978 275.08 198.558 274.92 198.23 274.6C197.902 274.272 197.738 273.832 197.738 273.28ZM204.746 271.624L199.886 280H198.806L203.666 271.624H204.746ZM199.49 272.164C199.218 272.164 199.002 272.26 198.842 272.452C198.69 272.636 198.614 272.912 198.614 273.28C198.614 273.648 198.69 273.928 198.842 274.12C199.002 274.312 199.218 274.408 199.49 274.408C199.762 274.408 199.978 274.312 200.138 274.12C200.298 273.92 200.378 273.64 200.378 273.28C200.378 272.912 200.298 272.636 200.138 272.452C199.978 272.26 199.762 272.164 199.49 272.164ZM202.334 278.344C202.334 277.792 202.498 277.356 202.826 277.036C203.154 276.708 203.574 276.544 204.086 276.544C204.598 276.544 205.014 276.708 205.334 277.036C205.662 277.356 205.826 277.792 205.826 278.344C205.826 278.888 205.662 279.324 205.334 279.652C205.014 279.98 204.598 280.144 204.086 280.144C203.574 280.144 203.154 279.984 202.826 279.664C202.498 279.336 202.334 278.896 202.334 278.344ZM204.074 277.228C203.802 277.228 203.586 277.324 203.426 277.516C203.266 277.7 203.186 277.976 203.186 278.344C203.186 278.704 203.266 278.98 203.426 279.172C203.586 279.356 203.802 279.448 204.074 279.448C204.346 279.448 204.562 279.356 204.722 279.172C204.882 278.98 204.962 278.704 204.962 278.344C204.962 277.976 204.882 277.7 204.722 277.516C204.562 277.324 204.346 277.228 204.074 277.228Z" fill="#4B5563"/>
</svg>
